<svg viewBox="0 0 15 15" fill="none" xmlns="http://www.w3.org/2000/svg">
  <path
    d="M2.28966 12.8947C1.57334 12.2028 1.00197 11.3752 0.608901 10.4602C0.215834 9.54517 0.0089368 8.56102 0.000283176 7.56517C-0.00837045 6.56933 0.181392 5.58173 0.558499 4.66001C0.935606 3.73828 1.4925 2.90089 2.1967 2.1967C2.90089 1.4925 3.73828 0.935606 4.66001 0.558499C5.58173 0.181392 6.56933 -0.00837045 7.56517 0.000283176C8.56102 0.0089368 9.54517 0.215834 10.4602 0.608901C11.3752 1.00197 12.2028 1.57334 12.8947 2.28966C14.2608 3.70418 15.0168 5.59869 14.9997 7.56517C14.9826 9.53165 14.1939 11.4127 12.8033 12.8033C11.4127 14.1939 9.53165 14.9826 7.56517 14.9997C5.59869 15.0168 3.70418 14.2608 2.28966 12.8947ZM6.84216 8.34216V11.3422H8.34216V6.84216H6.84216V8.34216ZM6.84216 3.84216V5.34216H8.34216V3.84216H6.84216Z" />
</svg>