<svg width="44" height="44" viewBox="0 0 44 44" fill="none" xmlns="http://www.w3.org/2000/svg">
    <path d="M14.5003 18.6667H29.5003C29.7213 18.6667 29.9333 18.5789 30.0896 18.4226C30.2459 18.2663 30.3337 18.0543 30.3337 17.8333C30.3337 17.6123 30.2459 17.4004 30.0896 17.2441C29.9333 17.0878 29.7213 17 29.5003 17H14.5003C14.2793 17 14.0674 17.0878 13.9111 17.2441C13.7548 17.4004 13.667 17.6123 13.667 17.8333C13.667 18.0543 13.7548 18.2663 13.9111 18.4226C14.0674 18.5789 14.2793 18.6667 14.5003 18.6667V18.6667ZM29.5003 25.3333H14.5003C14.2793 25.3333 14.0674 25.4211 13.9111 25.5774C13.7548 25.7337 13.667 25.9457 13.667 26.1667C13.667 26.3877 13.7548 26.5996 13.9111 26.7559C14.0674 26.9122 14.2793 27 14.5003 27H29.5003C29.7213 27 29.9333 26.9122 30.0896 26.7559C30.2459 26.5996 30.3337 26.3877 30.3337 26.1667C30.3337 25.9457 30.2459 25.7337 30.0896 25.5774C29.9333 25.4211 29.7213 25.3333 29.5003 25.3333ZM29.5003 21.1667H14.5003C14.2793 21.1667 14.0674 21.2545 13.9111 21.4107C13.7548 21.567 13.667 21.779 13.667 22C13.667 22.221 13.7548 22.433 13.9111 22.5893C14.0674 22.7455 14.2793 22.8333 14.5003 22.8333H29.5003C29.7213 22.8333 29.9333 22.7455 30.0896 22.5893C30.2459 22.433 30.3337 22.221 30.3337 22C30.3337 21.779 30.2459 21.567 30.0896 21.4107C29.9333 21.2545 29.7213 21.1667 29.5003 21.1667Z" fill="#D2D2D2"/>
</svg>
