<svg viewBox="0 0 19 19" fill="none" xmlns="http://www.w3.org/2000/svg">
<g clip-path="url(#clip0_207_2371)">
<path d="M18.3666 18.3661L13.3 13.2995M8.2333 15.8328C7.23525 15.8328 6.24698 15.6362 5.32491 15.2543C4.40283 14.8724 3.56501 14.3125 2.85929 13.6068C2.15356 12.9011 1.59375 12.0633 1.21182 11.1412C0.829881 10.2191 0.633301 9.23086 0.633301 8.23281C0.633301 7.23477 0.829881 6.24649 1.21182 5.32442C1.59375 4.40234 2.15356 3.56453 2.85929 2.8588C3.56501 2.15308 4.40283 1.59326 5.32491 1.21133C6.24698 0.829392 7.23525 0.632812 8.2333 0.632813C10.2489 0.632813 12.182 1.43352 13.6073 2.8588C15.0326 4.28408 15.8333 6.21717 15.8333 8.23281C15.8333 10.2485 15.0326 12.1815 13.6073 13.6068C12.182 15.0321 10.2489 15.8328 8.2333 15.8328Z" stroke="white" stroke-opacity="0.6"/>
</g>
<defs>
<clipPath id="clip0_207_2371">
<rect width="19" height="19" fill="white"/>
</clipPath>
</defs>
</svg>
