<svg width="20" height="20" viewBox="0 0 20 20" fill="none" xmlns="http://www.w3.org/2000/svg">
<path opacity="0.3" d="M2.58301 14.084H16.833V4.58398H2.58301V14.084ZM7.33301 6.16732L12.8747 9.33398L7.33301 12.5007V6.16732Z" fill="url(#paint0_linear_97_3165)"/>
<path d="M7.33333 6.16667V12.5L12.875 9.33333L7.33333 6.16667ZM16.8333 3H2.58333C1.7125 3 1 3.7125 1 4.58333V14.0833C1 14.9542 1.7125 15.6667 2.58333 15.6667H6.54167V17.25H12.875V15.6667H16.8333C17.7042 15.6667 18.4167 14.9542 18.4167 14.0833V4.58333C18.4167 3.7125 17.7042 3 16.8333 3ZM16.8333 14.0833H2.58333V4.58333H16.8333V14.0833Z" fill="url(#paint1_linear_97_3165)"/>
<defs>
<linearGradient id="paint0_linear_97_3165" x1="5.17392" y1="5.44762" x2="10.9149" y2="15.6504" gradientUnits="userSpaceOnUse">
<stop stop-color="#4E4FFF"/>
<stop offset="1" stop-color="#9D5AFF"/>
</linearGradient>
<linearGradient id="paint1_linear_97_3165" x1="4.16667" y1="4.29545" x2="13.5885" y2="17.9389" gradientUnits="userSpaceOnUse">
<stop stop-color="#9D5AFF"/>
<stop offset="0.713542" stop-color="#C393FF"/>
</linearGradient>
</defs>
</svg>
