<svg viewBox="0 0 16 16" fill="none" xmlns="http://www.w3.org/2000/svg">
<g clip-path="url(#clip0_158_5849)">
<path d="M8 16C12.4183 16 16 12.4183 16 8C16 3.58172 12.4183 0 8 0C3.58172 0 0 3.58172 0 8C0 12.4183 3.58172 16 8 16Z" fill="#F4B731"/>
<path fill-rule="evenodd" clip-rule="evenodd" d="M4.6385 4H7.9145C9.907 4 11.4175 5.058 11.9795 6.597H13V7.5275H12.1945C12.21 7.6745 12.218 7.8245 12.218 7.9765V7.9995C12.218 8.1705 12.208 8.3395 12.188 8.5045H13V9.4345H11.96C11.3835 10.9525 9.885 12 7.915 12H4.6385V9.4345H3.5V8.5045H4.6385V7.5275H3.5V6.5975H4.6385V4ZM5.554 9.4345V11.1655H7.914C9.371 11.1655 10.453 10.472 10.9565 9.4345H5.554ZM11.237 8.5045H5.554V7.5275H11.239C11.2595 7.681 11.2705 7.8385 11.2705 7.9995V8.022C11.2705 8.1865 11.259 8.347 11.237 8.504V8.5045ZM7.915 4.8325C9.378 4.8325 10.4635 5.5445 10.964 6.5965H5.554V4.833H7.914L7.915 4.8325Z" fill="white"/>
</g>
<defs>
<clipPath id="clip0_158_5849">
<rect width="16" height="16" fill="white"/>
</clipPath>
</defs>
</svg>
