<svg width="40" height="40" viewBox="0 0 40 40" fill="none" xmlns="http://www.w3.org/2000/svg">
    <path fill-rule="evenodd" clip-rule="evenodd" d="M19.9218 0C23.8774 0 27.7442 1.17298 31.0332 3.37061C34.3222 5.56824 36.8856 8.69181 38.3994 12.3463C39.9132 16.0009 40.3092 20.0222 39.5375 23.9018C38.7658 27.7814 36.861 31.3451 34.0639 34.1421C31.2669 36.9392 27.7032 38.844 23.8236 39.6157C19.944 40.3874 15.9227 39.9913 12.2681 38.4776C8.61362 36.9638 5.49005 34.4004 3.29242 31.1114C1.09479 27.8224 -0.078186 23.9556 -0.078186 20C-0.078186 14.6957 2.02895 9.60859 5.77968 5.85786C9.53041 2.10714 14.6175 0 19.9218 0V0Z" fill="#C3C3C3" fill-opacity="0.04"/>
</svg>
