<svg viewBox="0 0 16 16" fill="none" xmlns="http://www.w3.org/2000/svg">
<g clip-path="url(#clip0_158_5867)">
<path d="M8 16C12.4183 16 16 12.4183 16 8C16 3.58172 12.4183 0 8 0C3.58172 0 0 3.58172 0 8C0 12.4183 3.58172 16 8 16Z" fill="#34445B"/>
<path d="M7.96866 5.1112L8.97366 3.5432C9.23153 3.58502 9.4956 3.52582 9.71092 3.37789C9.92624 3.22996 10.0762 3.00471 10.1297 2.749C10.1832 2.4933 10.136 2.22682 9.99794 2.00502C9.85992 1.78322 9.64169 1.62318 9.38866 1.5582C9.18711 1.51646 8.97764 1.53698 8.78802 1.61705C8.5984 1.69711 8.43761 1.83293 8.32696 2.00649C8.21632 2.18005 8.16106 2.38314 8.1685 2.58884C8.17595 2.79453 8.24576 2.99309 8.36866 3.1582L7.12166 5.1037C6.60126 5.15488 6.09604 5.30812 5.63488 5.55465C5.17373 5.80118 4.76567 6.13617 4.43404 6.54047C4.1024 6.94477 3.85369 7.41047 3.70212 7.91093C3.55054 8.4114 3.49908 8.93683 3.55066 9.4572C3.65468 10.5079 4.17165 11.4742 4.98791 12.1438C5.80418 12.8135 6.85294 13.1316 7.90366 13.0282C8.95441 12.9243 9.92089 12.4074 10.5906 11.5911C11.2604 10.7748 11.5785 9.726 11.4752 8.6752C11.3854 7.77008 10.9886 6.92294 10.3507 6.27457C9.71278 5.62621 8.8722 5.21567 7.96866 5.1112ZM7.51116 11.1722C7.23378 11.1725 6.95907 11.118 6.70274 11.012C6.44641 10.906 6.21351 10.7505 6.01734 10.5544C5.82118 10.3583 5.66561 10.1254 5.55954 9.86908C5.45346 9.61278 5.39897 9.33808 5.39916 9.0607C5.3989 8.78327 5.45335 8.50852 5.55939 8.25216C5.66544 7.9958 5.821 7.76287 6.01717 7.5667C6.21334 7.37053 6.44627 7.21497 6.70262 7.10893C6.95898 7.00288 7.23374 6.94843 7.51116 6.9487C7.9402 6.94859 8.35908 7.07928 8.71194 7.32333C9.0648 7.56739 9.33488 7.91322 9.48616 8.3147C9.28772 8.05914 8.99596 7.8928 8.67496 7.85221C8.35396 7.81161 8.02998 7.90009 7.77416 8.0982C7.51849 8.29656 7.35206 8.58834 7.31147 8.90937C7.27087 9.23041 7.35942 9.55443 7.55766 9.8102C7.67154 9.95669 7.81731 10.0753 7.9839 10.157C8.15049 10.2387 8.33352 10.2813 8.51906 10.2817C8.7046 10.282 8.88778 10.24 9.05467 10.1589C9.22156 10.0778 9.36776 9.95977 9.48216 9.8137C9.33027 10.2134 9.06038 10.5574 8.70833 10.8C8.35628 11.0427 7.93873 11.1725 7.51116 11.1722Z" fill="white"/>
<path d="M7.96866 5.1112L8.97366 3.5432C9.23153 3.58502 9.4956 3.52582 9.71092 3.37789C9.92624 3.22996 10.0762 3.00471 10.1297 2.749C10.1832 2.4933 10.136 2.22682 9.99794 2.00502C9.85992 1.78322 9.64169 1.62318 9.38866 1.5582C9.18711 1.51646 8.97764 1.53698 8.78802 1.61705C8.5984 1.69711 8.43761 1.83293 8.32696 2.00649C8.21632 2.18005 8.16106 2.38314 8.1685 2.58884C8.17595 2.79453 8.24576 2.99309 8.36866 3.1582L7.12166 5.1037C6.60126 5.15488 6.09604 5.30812 5.63488 5.55465C5.17373 5.80118 4.76567 6.13617 4.43404 6.54047C4.1024 6.94477 3.85369 7.41047 3.70212 7.91093C3.55054 8.4114 3.49908 8.93683 3.55066 9.4572C3.65468 10.5079 4.17165 11.4742 4.98791 12.1438C5.80418 12.8135 6.85294 13.1316 7.90366 13.0282C8.95441 12.9243 9.92089 12.4074 10.5906 11.5911C11.2604 10.7748 11.5785 9.726 11.4752 8.6752C11.3854 7.77008 10.9886 6.92294 10.3507 6.27457C9.71278 5.62621 8.8722 5.21567 7.96866 5.1112ZM7.51116 11.1722C7.23378 11.1725 6.95907 11.118 6.70274 11.012C6.44641 10.906 6.21351 10.7505 6.01734 10.5544C5.82118 10.3583 5.66561 10.1254 5.55954 9.86908C5.45346 9.61278 5.39897 9.33808 5.39916 9.0607C5.3989 8.78327 5.45335 8.50852 5.55939 8.25216C5.66544 7.9958 5.821 7.76287 6.01717 7.5667C6.21334 7.37053 6.44627 7.21497 6.70262 7.10893C6.95898 7.00288 7.23374 6.94843 7.51116 6.9487C7.9402 6.94859 8.35908 7.07928 8.71194 7.32333C9.0648 7.56739 9.33488 7.91322 9.48616 8.3147C9.28772 8.05914 8.99596 7.8928 8.67496 7.85221C8.35396 7.81161 8.02998 7.90009 7.77416 8.0982C7.51849 8.29656 7.35206 8.58834 7.31147 8.90937C7.27087 9.23041 7.35942 9.55443 7.55766 9.8102C7.67154 9.95669 7.81731 10.0753 7.9839 10.157C8.15049 10.2387 8.33352 10.2813 8.51906 10.2817C8.7046 10.282 8.88778 10.24 9.05467 10.1589C9.22156 10.0778 9.36776 9.95977 9.48216 9.8137C9.33027 10.2134 9.06038 10.5574 8.70833 10.8C8.35628 11.0427 7.93873 11.1725 7.51116 11.1722Z" fill="white"/>
</g>
<defs>
<clipPath id="clip0_158_5867">
<rect width="16" height="16" fill="white"/>
</clipPath>
</defs>
</svg>
