<svg viewBox="0 0 16 16" fill="none" xmlns="http://www.w3.org/2000/svg">
<g clip-path="url(#clip0_158_5828)">
<path d="M8 16C12.4183 16 16 12.4183 16 8C16 3.58172 12.4183 0 8 0C3.58172 0 0 3.58172 0 8C0 12.4183 3.58172 16 8 16Z" fill="#FFD800"/>
<path fill-rule="evenodd" clip-rule="evenodd" d="M11.8415 6.443C11.87 6.4145 11.9265 6.4145 11.982 6.4145C12.8255 6.4145 13.5 7.1285 13.5 7.986C13.5 8.786 12.91 9.4145 12.151 9.557H11.982C11.701 9.557 11.42 9.4715 11.167 9.3285C11.0849 9.27068 10.9864 9.24071 10.886 9.243C10.7735 9.243 10.661 9.2715 10.577 9.3285C10.38 9.443 10.296 9.643 10.296 9.8715V10.1285C10.2664 10.4815 10.116 10.8134 9.87016 11.0684C9.62434 11.3234 9.29813 11.4859 8.9465 11.5285H8.778C8.497 11.5285 8.216 11.443 7.963 11.3C7.8505 11.243 7.7665 11.2145 7.654 11.2145C7.5415 11.2145 7.429 11.243 7.3445 11.3C7.148 11.4145 7.0635 11.6145 7.0635 11.843V12.1C7.0075 12.843 6.417 13.4145 5.6865 13.5H5.546C4.7025 13.5 4.028 12.7855 4.028 11.9285C4.056 11.1285 4.618 10.4715 5.377 10.3855H5.546C5.827 10.3855 6.108 10.4715 6.361 10.6145C6.44311 10.6723 6.5416 10.7023 6.642 10.7C6.7545 10.7 6.867 10.6715 6.951 10.6145C7.148 10.5 7.232 10.3 7.232 10.0715C7.176 9.243 7.7665 8.5 8.5815 8.4145H8.75C9.031 8.4145 9.312 8.5 9.565 8.643C9.6775 8.7 9.762 8.7285 9.8745 8.7285C9.9865 8.7285 10.0995 8.7 10.1835 8.643C10.38 8.5285 10.4645 8.3285 10.4645 8.1C10.4085 7.2715 11.0265 6.5285 11.8415 6.443ZM8.61 4.4715C8.666 4.443 8.6945 4.443 8.7785 4.443C9.622 4.443 10.2965 5.157 10.2965 6.0145C10.2685 6.8145 9.7065 7.4715 8.947 7.557H8.7785C8.4975 7.557 8.2165 7.4715 7.9635 7.3285C7.88139 7.27068 7.7829 7.24071 7.6825 7.243C7.57 7.243 7.4575 7.2715 7.3735 7.3285C7.1765 7.443 7.092 7.643 7.092 7.8715V8.1285C7.036 8.871 6.446 9.4425 5.715 9.5285H5.5745C4.7315 9.5285 4.0565 8.8145 4.0565 7.957C4.0565 7.186 4.619 6.557 5.3775 6.443H5.5465C5.8275 6.443 6.1085 6.5285 6.3615 6.6715C6.44361 6.72932 6.5421 6.75929 6.6425 6.757C6.755 6.757 6.8675 6.7285 6.9515 6.6715C7.1485 6.557 7.2325 6.357 7.2325 6.1285C7.1765 5.3 7.795 4.557 8.61 4.4715ZM5.518 2.5C6.356 2.5 7.0355 3.191 7.0355 4.043C7.0355 4.895 6.3555 5.5855 5.518 5.5855C4.6795 5.5855 4 4.895 4 4.043C4 3.191 4.68 2.5 5.518 2.5Z" fill="white"/>
</g>
<defs>
<clipPath id="clip0_158_5828">
<rect width="16" height="16" fill="white"/>
</clipPath>
</defs>
</svg>
