<svg viewBox="0 0 16 16" fill="none" xmlns="http://www.w3.org/2000/svg">
<g clip-path="url(#clip0_158_5895)">
<path d="M8.00002 16C9.58228 16 11.129 15.5308 12.4446 14.6518C13.7602 13.7727 14.7856 12.5233 15.3911 11.0615C15.9966 9.59966 16.155 7.99113 15.8463 6.43928C15.5376 4.88743 14.7757 3.46197 13.6569 2.34315C12.5381 1.22433 11.1126 0.462403 9.56075 0.153721C8.0089 -0.15496 6.40037 0.00346624 4.93856 0.608967C3.47675 1.21447 2.22732 2.23985 1.34827 3.55544C0.469216 4.87104 2.42203e-05 6.41775 2.42203e-05 8C-0.0025658 9.05131 0.202592 10.0928 0.603713 11.0645C1.00483 12.0363 1.59401 12.9192 2.33739 13.6626C3.08078 14.406 3.96372 14.9952 4.9355 15.3963C5.90727 15.7974 6.94872 16.0026 8.00002 16Z" fill="#2775CA"/>
<path d="M10.2003 9.26736C10.2003 8.10373 9.50071 7.70009 8.10071 7.53354C7.09998 7.40045 6.90071 7.13354 6.90071 6.66736C6.90071 6.20118 7.2338 5.90009 7.89998 5.90009C8.50071 5.90009 8.8338 6.10009 9.00034 6.60045C9.01823 6.64866 9.05049 6.69021 9.09277 6.71948C9.13504 6.74875 9.18529 6.76432 9.23671 6.76409H9.7698C9.80068 6.76489 9.83139 6.7594 9.86008 6.74795C9.88876 6.7365 9.91482 6.71933 9.93666 6.69749C9.9585 6.67565 9.97566 6.6496 9.98711 6.62091C9.99856 6.59223 10.0041 6.56151 10.0033 6.53063V6.49791C9.93885 6.13663 9.75692 5.80673 9.48574 5.55948C9.21455 5.31223 8.8693 5.16148 8.50362 5.13063V4.33063C8.50362 4.19754 8.40325 4.09791 8.23671 4.06445H7.73635C7.60325 4.06445 7.50362 4.16409 7.47016 4.33063V5.10009C6.46725 5.23682 5.8338 5.90009 5.8338 6.73354C5.8338 7.83391 6.50071 8.26736 7.90071 8.43391C8.8338 8.60045 9.13707 8.79754 9.13707 9.33354C9.13707 9.86954 8.67089 10.2339 8.03744 10.2339C7.17053 10.2339 6.8738 9.87027 6.77053 9.367C6.761 9.31078 6.73205 9.25968 6.68873 9.2226C6.64541 9.18553 6.59045 9.16482 6.53344 9.16409H5.96398C5.93313 9.16339 5.90246 9.16896 5.87383 9.18044C5.84519 9.19193 5.81917 9.2091 5.79735 9.23092C5.77554 9.25274 5.75837 9.27875 5.74688 9.30739C5.73539 9.33603 5.72983 9.3667 5.73053 9.39754V9.431C5.86434 10.2645 6.39744 10.8645 7.4978 11.031V11.831C7.4978 11.9641 7.59744 12.0645 7.76398 12.0979H8.26434C8.39744 12.0979 8.4978 11.9975 8.53053 11.831V11.031C9.53053 10.8645 10.1974 10.1641 10.1974 9.26445L10.2003 9.26736Z" fill="white"/>
<path d="M6.29996 12.7666C5.34085 12.4148 4.51287 11.777 3.92795 10.9394C3.34303 10.1019 3.02937 9.10489 3.02937 8.08329C3.02937 7.0617 3.34303 6.06473 3.92795 5.22717C4.51287 4.3896 5.34085 3.75181 6.29996 3.40002C6.36396 3.37234 6.41771 3.32536 6.4537 3.26564C6.48969 3.20592 6.50612 3.13644 6.50069 3.06693V2.60002C6.50518 2.53878 6.48732 2.47798 6.45041 2.4289C6.4135 2.37982 6.36005 2.34579 6.29996 2.33311C6.25304 2.32822 6.2059 2.34007 6.16687 2.36657C4.95335 2.75227 3.89406 3.51414 3.1423 4.54189C2.39055 5.56964 1.98535 6.80995 1.98535 8.08329C1.98535 9.35663 2.39055 10.5969 3.1423 11.6247C3.89406 12.6524 4.95335 13.4143 6.16687 13.8C6.19459 13.8161 6.22572 13.8254 6.25773 13.8272C6.28973 13.8289 6.32169 13.8231 6.351 13.8101C6.3803 13.7971 6.40611 13.7774 6.42632 13.7525C6.44652 13.7276 6.46054 13.6983 6.46724 13.6669C6.50069 13.6335 6.50069 13.6 6.50069 13.5331V13.0669C6.50069 12.9666 6.40033 12.8335 6.29996 12.7666ZM9.83378 2.36657C9.80602 2.35047 9.77483 2.34118 9.74278 2.33947C9.71073 2.33777 9.67873 2.34369 9.64942 2.35675C9.6201 2.36981 9.5943 2.38964 9.57414 2.41461C9.55397 2.43958 9.54002 2.46897 9.53342 2.50038C9.50069 2.53311 9.50069 2.56657 9.50069 2.63347V3.09966C9.50631 3.16688 9.52725 3.23192 9.56192 3.28979C9.59659 3.34766 9.64406 3.39681 9.70069 3.43347C10.6598 3.78527 11.4878 4.42305 12.0727 5.26062C12.6576 6.09819 12.9713 7.09515 12.9713 8.11675C12.9713 9.13834 12.6576 10.1353 12.0727 10.9729C11.4878 11.8104 10.6598 12.4482 9.70069 12.8C9.63676 12.8277 9.58311 12.8747 9.54724 12.9345C9.51137 12.9942 9.4951 13.0637 9.50069 13.1331V13.6C9.49617 13.6612 9.51393 13.7219 9.5507 13.7709C9.58746 13.82 9.64074 13.8541 9.70069 13.8669C9.74761 13.8718 9.79475 13.86 9.83378 13.8335C11.0468 13.4424 12.1046 12.6767 12.8549 11.6465C13.6053 10.6162 14.0095 9.37454 14.0095 8.10002C14.0095 6.8255 13.6053 5.58381 12.8549 4.55357C12.1046 3.52332 11.0468 2.75761 9.83378 2.36657Z" fill="white"/>
</g>
<defs>
<clipPath id="clip0_158_5895">
<rect width="16" height="16" fill="white"/>
</clipPath>
</defs>
</svg>
