<svg viewBox="0 0 16 16" fill="none" xmlns="http://www.w3.org/2000/svg">
<g clip-path="url(#clip0_158_5594)">
<path d="M8 16C12.4183 16 16 12.4183 16 8C16 3.58172 12.4183 0 8 0C3.58172 0 0 3.58172 0 8C0 12.4183 3.58172 16 8 16Z" fill="#26A17B"/>
<path fill-rule="evenodd" clip-rule="evenodd" d="M8.96139 8.69118V8.69018C8.90639 8.69418 8.62289 8.71118 7.99039 8.71118C7.48539 8.71118 7.12989 8.69618 7.00489 8.69018V8.69168C5.06089 8.60618 3.60989 8.26768 3.60989 7.86268C3.60989 7.45818 5.06089 7.11968 7.00489 7.03268V8.35468C7.13189 8.36368 7.49589 8.38518 7.99889 8.38518C8.60239 8.38518 8.90489 8.36018 8.96139 8.35518V7.03368C10.9014 7.12018 12.3489 7.45868 12.3489 7.86268C12.3489 8.26768 10.9014 8.60518 8.96139 8.69118ZM8.96139 6.89618V5.71318H11.6684V3.90918H4.29789V5.71318H7.00489V6.89568C4.80489 6.99668 3.15039 7.43268 3.15039 7.95468C3.15039 8.47668 4.80489 8.91218 7.00489 9.01368V12.8047H8.96139V9.01268C11.1579 8.91168 12.8084 8.47618 12.8084 7.95468C12.8084 7.43318 11.1579 6.99768 8.96139 6.89618Z" fill="white"/>
</g>
<defs>
<clipPath id="clip0_158_5594">
<rect width="16" height="16" fill="white"/>
</clipPath>
</defs>
</svg>
