<svg viewBox="0 0 16 16" fill="none" xmlns="http://www.w3.org/2000/svg">
<g clip-path="url(#clip0_158_5889)">
<path d="M8 16C12.4183 16 16 12.4183 16 8C16 3.58172 12.4183 0 8 0C3.58172 0 0 3.58172 0 8C0 12.4183 3.58172 16 8 16Z" fill="#201A2D"/>
<path d="M11.4093 4.79334L11.1093 5.09334C11.8252 5.87617 12.2222 6.89855 12.2222 7.95934C12.2222 9.02012 11.8252 10.0425 11.1093 10.8253L11.4093 11.1253C12.2054 10.2618 12.6474 9.13033 12.6474 7.95584C12.6474 6.78134 12.2054 5.64986 11.4093 4.78634V4.79334ZM5.10034 4.81934C5.88317 4.10349 6.90555 3.70651 7.96634 3.70651C9.02712 3.70651 10.0495 4.10349 10.8323 4.81934L11.1323 4.51934C10.2688 3.72324 9.13733 3.28125 7.96284 3.28125C6.78834 3.28125 5.65686 3.72324 4.79334 4.51934L5.10034 4.81934ZM4.81934 10.8283C4.10434 10.0457 3.70788 9.02392 3.70788 7.96384C3.70788 6.90375 4.10434 5.88199 4.81934 5.09934L4.51934 4.79934C3.72324 5.66286 3.28125 6.79434 3.28125 7.96884C3.28125 9.14333 3.72324 10.2748 4.51934 11.1383L4.81934 10.8283ZM10.8283 11.1053C10.0455 11.8212 9.02312 12.2182 7.96234 12.2182C6.90155 12.2182 5.87917 11.8212 5.09634 11.1053L4.79634 11.4053C5.65986 12.2014 6.79134 12.6434 7.96584 12.6434C9.14033 12.6434 10.2718 12.2014 11.1353 11.4053L10.8283 11.1053ZM9.85734 6.96234C9.79734 6.33634 9.25734 6.12634 8.57434 6.06234V5.20034H8.04634V6.04634H7.62434V5.20034H7.10034V6.06834H6.02934V6.63334C6.02934 6.63334 6.41934 6.62634 6.41334 6.63334C6.48366 6.6256 6.55423 6.64546 6.6102 6.68874C6.66616 6.73202 6.70314 6.79533 6.71334 6.86534V9.24134C6.71183 9.26603 6.7054 9.29016 6.6944 9.31232C6.68341 9.33448 6.66809 9.35421 6.64934 9.37034C6.63094 9.38678 6.60941 9.39933 6.58604 9.40723C6.56267 9.41514 6.53794 9.41823 6.51334 9.41634C6.52034 9.42234 6.12934 9.41634 6.12934 9.41634L6.02934 10.0473H7.09034V10.9293H7.61834V10.0603H8.04034V10.9253H8.56934V10.0533C9.46134 9.99934 10.0833 9.77934 10.1613 8.94434C10.2243 8.27234 9.90834 7.97234 9.40334 7.85134C9.71034 7.70034 9.90034 7.42034 9.85734 6.96234ZM9.11734 8.84034C9.11734 9.49634 7.99334 9.42134 7.63534 9.42134V8.25734C7.99334 8.25834 9.11734 8.15534 9.11734 8.84034ZM8.87234 7.20034C8.87234 7.80034 7.93434 7.72734 7.63634 7.72734V6.66934C7.93434 6.66934 8.87234 6.57534 8.87234 7.20034Z" fill="white"/>
<path d="M7.962 13.426C4.945 13.4255 2.5 10.9795 2.5 7.9625C2.5 4.946 4.946 2.5 7.9625 2.5C10.9795 2.5 13.4255 4.945 13.426 7.962C13.4261 8.67958 13.2849 9.39016 13.0103 10.0531C12.7358 10.7161 12.3333 11.3185 11.8259 11.8259C11.3185 12.3333 10.7161 12.7358 10.0531 13.0103C9.39016 13.2849 8.67958 13.4261 7.962 13.426ZM7.962 2.926C5.1825 2.928 2.931 5.1825 2.932 7.962C2.933 10.7415 5.187 12.994 7.966 12.994C10.7455 12.994 12.999 10.7415 13 7.962C13.0003 7.30042 12.8701 6.64528 12.617 6.03403C12.3639 5.42279 11.9928 4.86743 11.5249 4.39972C11.057 3.932 10.5015 3.5611 9.89012 3.30823C9.27877 3.05536 8.62358 2.92547 7.962 2.926Z" fill="white"/>
</g>
<defs>
<clipPath id="clip0_158_5889">
<rect width="16" height="16" fill="white"/>
</clipPath>
</defs>
</svg>
