<svg viewBox="0 0 16 16" fill="none" xmlns="http://www.w3.org/2000/svg">
<g clip-path="url(#clip0_158_5843)">
<path d="M8 16C12.4183 16 16 12.4183 16 8C16 3.58172 12.4183 0 8 0C3.58172 0 0 3.58172 0 8C0 12.4183 3.58172 16 8 16Z" fill="#5783CB"/>
<path d="M7.62 2H8.24C9.59381 2.06517 10.8819 2.60305 11.88 3.52C12.05 3.63 12.05 3.9 11.85 3.97C11.68 4.01 11.55 3.86 11.42 3.77C10.3148 2.92836 8.92649 2.54775 7.54662 2.70812C6.16674 2.86848 4.9027 3.55734 4.02 4.63C3.29925 5.51645 2.88734 6.61381 2.84676 7.75557C2.80619 8.89733 3.13917 10.0212 3.79517 10.9565C4.45118 11.8919 5.3944 12.5878 6.48171 12.9385C7.56902 13.2892 8.74107 13.2757 9.82 12.9C10.7025 12.5946 11.4908 12.0655 12.1077 11.3644C12.7247 10.6633 13.1492 9.8142 13.34 8.9C13.428 8.5355 13.485 8.164 13.51 7.79C13.5164 7.73521 13.544 7.68511 13.587 7.65044C13.6299 7.61577 13.6847 7.59928 13.7396 7.60451C13.7945 7.60974 13.8452 7.63627 13.8808 7.67842C13.9164 7.72057 13.934 7.77498 13.93 7.83L13.91 8.45C13.8322 9.89597 13.2191 11.2612 12.19 12.28C11.1465 13.3145 9.75758 13.927 8.29 14H7.7C6.20923 13.9247 4.79984 13.2972 3.74622 12.2399C2.69259 11.1826 2.07012 9.77102 2 8.28V7.72C2.0727 6.24342 2.68531 4.84499 3.72142 3.79045C4.75753 2.7359 6.14493 2.09873 7.62 2Z" fill="white"/>
<path d="M12.5004 5.11006C12.9004 4.67006 13.7304 4.91006 13.8204 5.50006C13.9504 6.03006 13.4404 6.48006 12.9204 6.44006C12.2304 7.14006 11.6804 7.97006 11.2104 8.84006C11.0204 9.10006 11.2604 9.44006 11.1104 9.71006C10.9304 10.2401 10.1504 10.3501 9.81035 9.91006C9.56035 9.63006 9.63035 9.24006 9.76035 8.93006C9.57004 8.53508 9.31673 8.17369 9.01035 7.86006L8.71035 7.87006C8.05362 8.59377 7.51074 9.41314 7.10035 10.3001C7.17035 10.5701 7.22035 10.8901 7.03035 11.1301C6.78035 11.5401 6.12035 11.5801 5.81035 11.2001C5.58035 10.9401 5.61035 10.5701 5.73035 10.2601C5.38512 9.32124 4.89226 8.44353 4.27035 7.66006C3.88035 7.64006 3.47035 7.41006 3.42035 7.00006C3.29035 6.44006 3.93035 5.90006 4.46035 6.15006C4.93035 6.32006 5.06035 6.92006 4.83035 7.33006C5.20813 8.28886 5.73829 9.18034 6.40035 9.97006C7.12001 9.25674 7.70594 8.42018 8.13035 7.50006C8.05035 7.23006 8.00035 6.92006 8.18035 6.67006C8.45035 6.23006 9.17035 6.22006 9.45035 6.66006C9.66035 6.93006 9.59035 7.29006 9.47035 7.58006C9.656 7.97586 9.90229 8.34025 10.2004 8.66006L10.5004 8.64006C11.2304 7.87006 11.9004 7.02006 12.3504 6.05006C12.3004 5.73006 12.2404 5.35006 12.5104 5.11006H12.5004Z" fill="white"/>
</g>
<defs>
<clipPath id="clip0_158_5843">
<rect width="16" height="16" fill="white"/>
</clipPath>
</defs>
</svg>
