<svg width="40" height="40" viewBox="0 0 40 40" fill="none" xmlns="http://www.w3.org/2000/svg">
<rect width="40" height="40" rx="5" fill="#FF914D"/>
<path fill-rule="evenodd" clip-rule="evenodd" d="M20.217 34.145C12.4445 34.145 6.14453 27.845 6.14453 20.0725C6.14453 12.3 12.4445 6 20.217 6C27.9895 6 34.2895 12.3 34.2895 20.0725C34.2895 27.845 27.9895 34.145 20.217 34.145ZM20.217 33.3175C27.532 33.3175 33.462 27.3875 33.462 20.0725C33.462 12.7575 27.532 6.8275 20.217 6.8275C12.902 6.8275 6.97203 12.7575 6.97203 20.0725C6.97203 27.3875 12.902 33.3175 20.217 33.3175Z" fill="white"/>
<path d="M17.83 30.2381C18.14 30.1106 19.3525 29.1756 20.5238 28.1693C21.9755 26.9346 23.3718 25.6362 24.7088 24.2781C25.9913 22.9956 26.4675 22.4443 26.5463 22.1593C26.8238 21.1581 23.79 10.1518 23.1725 9.91556C22.7963 9.77056 19.4313 12.5693 16.4513 15.4993C14.7038 17.2168 14.22 17.7881 14.1825 18.1618C14.1575 18.4506 14.2575 19.1743 14.4438 20.0318C15.185 23.4343 16.5338 28.1356 17.2163 29.6793C17.5025 30.3343 17.535 30.3631 17.8288 30.2381H17.83Z" fill="white"/>
</svg>
