<svg width="40" height="40" viewBox="0 0 40 40" fill="none" xmlns="http://www.w3.org/2000/svg">
<rect width="40" height="40" rx="5" fill="#F7931A"/>
<path d="M29.79 18.025C30.1825 15.405 28.1863 13.9963 25.4588 13.0563L26.3438 9.50625L24.1838 8.96875L23.3213 12.425C22.7538 12.2825 22.1713 12.15 21.59 12.0175L22.4588 8.53875L20.2988 8L19.4138 11.5487C18.9438 11.4412 18.4813 11.3363 18.0338 11.2238L18.0363 11.2125L15.0563 10.4687L14.4813 12.7763C14.4813 12.7763 16.085 13.1438 16.0513 13.1663C16.9263 13.385 17.0838 13.9637 17.0575 14.4237L16.05 18.4675C16.11 18.4825 16.1875 18.505 16.275 18.5387L16.0463 18.4825L14.6338 24.1475C14.5263 24.4125 14.255 24.8112 13.6425 24.66C13.665 24.6912 12.0725 24.2687 12.0725 24.2687L11 26.7413L13.8125 27.4425C14.335 27.5738 14.8475 27.7112 15.3513 27.84L14.4575 31.43L16.6163 31.9675L17.5013 28.4175C18.0913 28.5762 18.6638 28.7237 19.2238 28.8637L18.3413 32.3987L20.5013 32.9362L21.395 29.3538C25.08 30.0513 27.85 29.77 29.0163 26.4375C29.9563 23.755 28.97 22.2063 27.0313 21.1975C28.4438 20.8725 29.5063 19.9438 29.79 18.025V18.025ZM24.8525 24.9475C24.1863 27.6313 19.6675 26.18 18.2025 25.8163L19.39 21.06C20.855 21.4262 25.5513 22.15 24.8525 24.9475ZM25.5213 17.9863C24.9125 20.4275 21.1525 19.1863 19.9338 18.8825L21.0088 14.57C22.2275 14.8737 26.1563 15.44 25.5213 17.9863Z" fill="white"/>
</svg>
