<svg width="40" height="40" viewBox="0 0 40 40" fill="none" xmlns="http://www.w3.org/2000/svg">
<rect width="40" height="40" rx="5" fill="#F04086"/>
<path d="M29.2961 20.943C28.5086 20.073 27.3761 19.533 25.8961 19.323V19.2917C27.1923 19.0817 28.2111 18.5505 28.9036 17.7005C29.6064 16.8575 29.9881 15.793 29.9811 14.6955C29.9811 12.8692 29.3936 11.628 28.1761 10.6517C26.9586 9.67672 25.1311 9.35547 22.6548 9.35547H13.3036V18.0592H7.93359V21.393H22.5923C23.7461 21.393 24.6123 21.4742 25.1848 21.9355C25.7573 22.3967 26.0498 22.993 26.0498 23.8742C26.0498 24.7555 25.7611 25.508 25.1848 25.9805C24.6098 26.4517 23.7423 26.763 22.5923 26.763H17.5623V24.1705H13.3036V30.0967H22.9623C25.4186 30.0967 27.2961 29.4555 28.5986 28.4592C29.8998 27.463 30.5111 25.9917 30.5111 24.1855C30.5273 22.9905 30.0936 21.8331 29.2961 20.943V20.943ZM22.0548 18.0505H17.5623V12.6805H22.0548C24.3648 12.6805 25.5173 13.5817 25.5173 15.3655C25.5173 17.1492 24.3648 18.0505 22.0548 18.0505Z" fill="white"/>
</svg>
