<svg width="840" height="574" viewBox="0 0 840 574" fill="none" xmlns="http://www.w3.org/2000/svg">
    <path fill-rule="evenodd" clip-rule="evenodd" d="M248.019 -193.125C248.088 -193.125 248.144 -193.069 248.144 -193V336.39C248.144 336.441 248.113 336.487 248.065 336.506L0.0464648 435.806C-0.0176249 435.832 -0.0903812 435.801 -0.116041 435.737C-0.141701 435.673 -0.110548 435.6 -0.046458 435.574L247.894 336.305V-193C247.894 -193.069 247.95 -193.125 248.019 -193.125Z" fill="url(#paint0_radial_70_2465)"/>
    <path fill-rule="evenodd" clip-rule="evenodd" d="M288.189 -193.125C288.258 -193.125 288.314 -193.069 288.314 -193V336.39C288.314 336.437 288.287 336.48 288.245 336.501L0.0559441 480.722C-0.00579238 480.753 -0.0808853 480.728 -0.11178 480.666C-0.142676 480.604 -0.117674 480.529 -0.0559373 480.498L288.064 336.312V-193C288.064 -193.069 288.12 -193.125 288.189 -193.125Z" fill="url(#paint1_radial_70_2465)"/>
    <path fill-rule="evenodd" clip-rule="evenodd" d="M328.359 -193.125C328.428 -193.125 328.484 -193.069 328.484 -193V336.39C328.484 336.431 328.463 336.47 328.428 336.494L0.0693756 555.557C0.0119472 555.596 -0.0656666 555.58 -0.10398 555.523C-0.142293 555.465 -0.126797 555.388 -0.0693688 555.35L328.234 336.323V-193C328.234 -193.069 328.29 -193.125 328.359 -193.125Z" fill="url(#paint2_radial_70_2465)"/>
    <path fill-rule="evenodd" clip-rule="evenodd" d="M368.534 -193.125C368.603 -193.125 368.659 -193.069 368.659 -193V336.39C368.659 336.401 368.658 336.411 368.655 336.422C368.649 336.443 368.638 336.462 368.622 336.478L0.28122 704.976C0.232414 705.025 0.153269 705.025 0.104443 704.976C0.0556169 704.927 0.0556001 704.848 0.104405 704.799L368.409 336.338V-193C368.409 -193.069 368.465 -193.125 368.534 -193.125Z" fill="url(#paint3_radial_70_2465)"/>
    <path fill-rule="evenodd" clip-rule="evenodd" d="M408.702 -193.125C408.771 -193.125 408.827 -193.069 408.827 -193V336.39C408.827 336.409 408.822 336.428 408.814 336.445L224.484 704.944C224.454 705.006 224.378 705.031 224.317 705C224.255 704.969 224.23 704.894 224.261 704.832L408.577 336.36V-193C408.577 -193.069 408.633 -193.125 408.702 -193.125Z" fill="url(#paint4_radial_70_2465)"/>
    <path fill-rule="evenodd" clip-rule="evenodd" d="M448.872 -193.125C448.942 -193.125 448.997 -193.069 448.997 -193L448.683 704.888C448.683 704.957 448.627 705.013 448.558 705.013C448.489 705.013 448.433 704.957 448.433 704.888L448.747 -193C448.747 -193.069 448.803 -193.125 448.872 -193.125Z" fill="url(#paint5_radial_70_2465)"/>
    <path fill-rule="evenodd" clip-rule="evenodd" d="M489.045 -193.125C489.114 -193.125 489.17 -193.069 489.17 -193V336.36L672.851 704.832C672.881 704.894 672.856 704.969 672.795 705C672.733 705.031 672.658 705.005 672.627 704.944L488.933 336.445C488.925 336.428 488.92 336.409 488.92 336.39V-193C488.92 -193.069 488.976 -193.125 489.045 -193.125Z" fill="url(#paint6_radial_70_2465)"/>
    <path fill-rule="evenodd" clip-rule="evenodd" d="M529.215 -193.125C529.284 -193.125 529.34 -193.069 529.34 -193V336.338L897.009 704.8C897.058 704.848 897.057 704.928 897.009 704.976C896.993 704.991 896.975 705.002 896.956 705.008C896.914 705.02 896.865 705.01 896.832 704.976L529.126 336.478C529.103 336.454 529.09 336.423 529.09 336.39V-193C529.09 -193.069 529.145 -193.125 529.215 -193.125Z" fill="url(#paint7_radial_70_2465)"/>
    <path fill-rule="evenodd" clip-rule="evenodd" d="M569.389 -193.125C569.458 -193.125 569.514 -193.069 569.514 -193V336.323L897.958 555.693C898.016 555.731 898.031 555.809 897.993 555.866C897.954 555.924 897.877 555.939 897.819 555.901L569.32 336.493C569.285 336.47 569.264 336.431 569.264 336.39V-193C569.264 -193.069 569.32 -193.125 569.389 -193.125Z" fill="url(#paint8_radial_70_2465)"/>
    <path fill-rule="evenodd" clip-rule="evenodd" d="M609.559 -193.125C609.628 -193.125 609.684 -193.069 609.684 -193V336.312L897.944 480.69C898.006 480.721 898.031 480.796 898 480.858C897.969 480.919 897.894 480.944 897.832 480.914L609.503 336.501C609.461 336.48 609.434 336.437 609.434 336.39V-193C609.434 -193.069 609.49 -193.125 609.559 -193.125Z" fill="url(#paint9_radial_70_2465)"/>
    <path fill-rule="evenodd" clip-rule="evenodd" d="M649.728 -193.125C649.797 -193.125 649.853 -193.069 649.853 -193V336.305L897.933 435.699C897.997 435.725 898.028 435.798 898.002 435.862C897.977 435.926 897.904 435.957 897.84 435.932L649.682 336.506C649.634 336.487 649.603 336.441 649.603 336.39V-193C649.603 -193.069 649.659 -193.125 649.728 -193.125Z" fill="url(#paint10_radial_70_2465)"/>
    <path fill-rule="evenodd" clip-rule="evenodd" d="M689.903 -193.125C689.972 -193.125 690.028 -193.069 690.028 -193V336.299L897.928 405.709C897.994 405.731 898.029 405.801 898.007 405.867C897.985 405.932 897.914 405.968 897.849 405.946L689.864 336.508C689.813 336.491 689.778 336.443 689.778 336.39V-193C689.778 -193.069 689.834 -193.125 689.903 -193.125Z" fill="url(#paint11_radial_70_2465)"/>
    <path fill-rule="evenodd" clip-rule="evenodd" d="M730.073 -193.125C730.142 -193.125 730.198 -193.069 730.198 -193V336.295L897.922 384.291C897.989 384.31 898.027 384.379 898.008 384.445C897.989 384.512 897.92 384.55 897.854 384.531L730.038 336.51C729.985 336.494 729.948 336.445 729.948 336.39V-193C729.948 -193.069 730.004 -193.125 730.073 -193.125Z" fill="url(#paint12_radial_70_2465)"/>
    <path fill-rule="evenodd" clip-rule="evenodd" d="M770.242 -193.125C770.311 -193.125 770.367 -193.069 770.367 -193V336.292L897.919 368.228C897.986 368.245 898.027 368.313 898.01 368.38C897.993 368.447 897.925 368.487 897.858 368.47L770.212 336.511C770.156 336.497 770.117 336.447 770.117 336.39V-193C770.117 -193.069 770.173 -193.125 770.242 -193.125Z" fill="url(#paint13_radial_70_2465)"/>
    <path fill-rule="evenodd" clip-rule="evenodd" d="M810.414 -193.125C810.483 -193.125 810.539 -193.069 810.539 -193V336.289L897.914 355.734C897.981 355.749 898.024 355.816 898.009 355.884C897.994 355.951 897.927 355.993 897.86 355.978L810.387 336.512C810.33 336.499 810.289 336.448 810.289 336.39V-193C810.289 -193.069 810.345 -193.125 810.414 -193.125Z" fill="url(#paint14_radial_70_2465)"/>
    <path fill-rule="evenodd" clip-rule="evenodd" d="M850.584 -193.125C850.653 -193.125 850.709 -193.069 850.709 -193V336.287L897.911 345.743C897.979 345.756 898.022 345.822 898.009 345.89C897.995 345.957 897.929 346.001 897.862 345.988L850.559 336.512C850.501 336.5 850.459 336.449 850.459 336.39V-193C850.459 -193.069 850.515 -193.125 850.584 -193.125Z" fill="url(#paint15_radial_70_2465)"/>
    <path fill-rule="evenodd" clip-rule="evenodd" d="M890.753 -193.125C890.822 -193.125 890.878 -193.069 890.878 -193V336.285L897.91 337.564C897.978 337.576 898.023 337.641 898.01 337.709C897.998 337.777 897.933 337.822 897.865 337.81L890.731 336.513C890.671 336.502 890.628 336.45 890.628 336.39V-193C890.628 -193.069 890.684 -193.125 890.753 -193.125Z" fill="url(#paint16_radial_70_2465)"/>
    <path fill-rule="evenodd" clip-rule="evenodd" d="M167.676 -193.125C167.745 -193.125 167.801 -193.069 167.801 -193V336.39C167.801 336.445 167.764 336.494 167.711 336.51L0.0343758 384.466C-0.0319985 384.485 -0.101195 384.447 -0.120178 384.38C-0.139161 384.314 -0.100743 384.245 -0.034369 384.226L167.551 336.295V-193C167.551 -193.069 167.607 -193.125 167.676 -193.125Z" fill="url(#paint17_radial_70_2465)"/>
    <path fill-rule="evenodd" clip-rule="evenodd" d="M207.846 -193.125C207.915 -193.125 207.971 -193.069 207.971 -193V336.39C207.971 336.443 207.937 336.491 207.886 336.508L0.0395676 405.86C-0.0259188 405.882 -0.0967194 405.846 -0.11857 405.781C-0.140421 405.715 -0.105047 405.644 -0.0395608 405.623L207.721 336.299V-193C207.721 -193.069 207.777 -193.125 207.846 -193.125Z" fill="url(#paint18_radial_70_2465)"/>
    <path fill-rule="evenodd" clip-rule="evenodd" d="M127.508 -193.125C127.577 -193.125 127.633 -193.069 127.633 -193V336.39C127.633 336.424 127.618 336.456 127.595 336.479C127.579 336.494 127.56 336.505 127.538 336.511L0.0303521 368.423C-0.0366179 368.44 -0.104495 368.399 -0.121256 368.332C-0.138018 368.265 -0.0973153 368.197 -0.0303453 368.181L127.383 336.292V-193C127.383 -193.069 127.439 -193.125 127.508 -193.125Z" fill="url(#paint19_radial_70_2465)"/>
    <path fill-rule="evenodd" clip-rule="evenodd" d="M87.335 -193.125C87.404 -193.125 87.46 -193.069 87.46 -193V336.39C87.46 336.448 87.4193 336.499 87.3621 336.512L0.0298612 355.938C-0.0375272 355.953 -0.104308 355.911 -0.119299 355.843C-0.134289 355.776 -0.0918116 355.709 -0.0244232 355.694L87.21 336.289V-193C87.21 -193.069 87.2659 -193.125 87.335 -193.125Z" fill="url(#paint20_radial_70_2465)"/>
    <path fill-rule="evenodd" clip-rule="evenodd" d="M47.1637 -193.125C47.2327 -193.125 47.2887 -193.069 47.2887 -193V336.39C47.2887 336.449 47.2466 336.5 47.1882 336.512L0.024538 345.953C-0.0431548 345.966 -0.109015 345.923 -0.122565 345.855C-0.136115 345.787 -0.0922239 345.721 -0.0245312 345.708L47.0387 336.287V-193C47.0387 -193.069 47.0946 -193.125 47.1637 -193.125Z" fill="url(#paint21_radial_70_2465)"/>
    <path fill-rule="evenodd" clip-rule="evenodd" d="M6.98953 -193.125C7.05857 -193.125 7.11453 -193.069 7.11453 -193V336.39C7.11453 336.45 7.07134 336.502 7.01191 336.513L0.0223872 337.785C-0.0455325 337.797 -0.110614 337.752 -0.122976 337.684C-0.135338 337.616 -0.0903002 337.551 -0.0223804 337.539L6.86453 336.285V-193C6.86453 -193.069 6.92049 -193.125 6.98953 -193.125Z" fill="url(#paint22_radial_70_2465)"/>
    <path fill-rule="evenodd" clip-rule="evenodd" d="M-0.124997 296.22C-0.124997 296.151 -0.0690322 296.095 3.39746e-06 296.095H897.888C897.957 296.095 898.013 296.151 898.013 296.22C898.013 296.289 897.957 296.345 897.888 296.345H3.39746e-06C-0.0690322 296.345 -0.124997 296.289 -0.124997 296.22Z" fill="url(#paint23_radial_70_2465)"/>
    <path fill-rule="evenodd" clip-rule="evenodd" d="M-0.124997 256.047C-0.124997 255.978 -0.0690322 255.922 3.39746e-06 255.922H897.888C897.957 255.922 898.013 255.978 898.013 256.047C898.013 256.116 897.957 256.172 897.888 256.172H3.39746e-06C-0.0690322 256.172 -0.124997 256.116 -0.124997 256.047Z" fill="url(#paint24_radial_70_2465)"/>
    <path fill-rule="evenodd" clip-rule="evenodd" d="M-0.124997 215.877C-0.124997 215.808 -0.0690322 215.752 3.39746e-06 215.752H897.888C897.957 215.752 898.013 215.808 898.013 215.877C898.013 215.946 897.957 216.002 897.888 216.002H3.39746e-06C-0.0690322 216.002 -0.124997 215.946 -0.124997 215.877Z" fill="url(#paint25_radial_70_2465)"/>
    <path fill-rule="evenodd" clip-rule="evenodd" d="M-0.124997 175.708C-0.124997 175.639 -0.0690322 175.583 3.39746e-06 175.583H897.888C897.957 175.583 898.013 175.639 898.013 175.708C898.013 175.777 897.957 175.833 897.888 175.833H3.39746e-06C-0.0690322 175.833 -0.124997 175.777 -0.124997 175.708Z" fill="url(#paint26_radial_70_2465)"/>
    <path fill-rule="evenodd" clip-rule="evenodd" d="M-0.124997 135.533C-0.124997 135.464 -0.0690322 135.408 3.39746e-06 135.408H897.888C897.957 135.408 898.013 135.464 898.013 135.533C898.013 135.602 897.957 135.658 897.888 135.658H3.39746e-06C-0.0690322 135.658 -0.124997 135.602 -0.124997 135.533Z" fill="url(#paint27_radial_70_2465)"/>
    <path fill-rule="evenodd" clip-rule="evenodd" d="M-0.124997 95.3635C-0.124997 95.2944 -0.0690322 95.2385 3.39746e-06 95.2385H897.888C897.957 95.2385 898.013 95.2944 898.013 95.3635C898.013 95.4325 897.957 95.4885 897.888 95.4885H3.39746e-06C-0.0690322 95.4885 -0.124997 95.4325 -0.124997 95.3635Z" fill="url(#paint28_radial_70_2465)"/>
    <path fill-rule="evenodd" clip-rule="evenodd" d="M-0.124997 55.194C-0.124997 55.125 -0.0690322 55.069 3.39746e-06 55.069H897.888C897.957 55.069 898.013 55.125 898.013 55.194C898.013 55.2631 897.957 55.319 897.888 55.319H3.39746e-06C-0.0690322 55.319 -0.124997 55.2631 -0.124997 55.194Z" fill="url(#paint29_radial_70_2465)"/>
    <path fill-rule="evenodd" clip-rule="evenodd" d="M-0.124997 15.0205C-0.124997 14.9515 -0.0690322 14.8955 3.39746e-06 14.8955H897.888C897.957 14.8955 898.013 14.9515 898.013 15.0205C898.013 15.0896 897.957 15.1455 897.888 15.1455H3.39746e-06C-0.0690322 15.1455 -0.124997 15.0896 -0.124997 15.0205Z" fill="url(#paint30_radial_70_2465)"/>
    <path fill-rule="evenodd" clip-rule="evenodd" d="M-0.124997 -25.1489C-0.124997 -25.218 -0.0690322 -25.2739 3.39746e-06 -25.2739H897.888C897.957 -25.2739 898.013 -25.218 898.013 -25.1489C898.013 -25.0799 897.957 -25.0239 897.888 -25.0239H3.39746e-06C-0.0690322 -25.0239 -0.124997 -25.0799 -0.124997 -25.1489Z" fill="url(#paint31_radial_70_2465)"/>
    <path fill-rule="evenodd" clip-rule="evenodd" d="M-0.124997 -65.3184C-0.124997 -65.3874 -0.0690322 -65.4434 3.39746e-06 -65.4434H897.888C897.957 -65.4434 898.013 -65.3874 898.013 -65.3184C898.013 -65.2493 897.957 -65.1934 897.888 -65.1934H3.39746e-06C-0.0690322 -65.1934 -0.124997 -65.2493 -0.124997 -65.3184Z" fill="url(#paint32_radial_70_2465)"/>
    <path fill-rule="evenodd" clip-rule="evenodd" d="M-0.124997 -105.493C-0.124997 -105.562 -0.0690322 -105.618 3.39746e-06 -105.618H897.888C897.957 -105.618 898.013 -105.562 898.013 -105.493C898.013 -105.424 897.957 -105.368 897.888 -105.368H3.39746e-06C-0.0690322 -105.368 -0.124997 -105.424 -0.124997 -105.493Z" fill="url(#paint33_radial_70_2465)"/>
    <path fill-rule="evenodd" clip-rule="evenodd" d="M-0.124997 -145.663C-0.124997 -145.732 -0.0690322 -145.788 3.39746e-06 -145.788H897.888C897.957 -145.788 898.013 -145.732 898.013 -145.663C898.013 -145.594 897.957 -145.538 897.888 -145.538H3.39746e-06C-0.0690322 -145.538 -0.124997 -145.594 -0.124997 -145.663Z" fill="url(#paint34_radial_70_2465)"/>
    <path fill-rule="evenodd" clip-rule="evenodd" d="M-0.124997 -185.836C-0.124997 -185.905 -0.0690322 -185.961 3.39746e-06 -185.961H897.888C897.957 -185.961 898.013 -185.905 898.013 -185.836C898.013 -185.767 897.957 -185.711 897.888 -185.711H3.39746e-06C-0.0690322 -185.711 -0.124997 -185.767 -0.124997 -185.836Z" fill="url(#paint35_radial_70_2465)"/>
    <path fill-rule="evenodd" clip-rule="evenodd" d="M-0.124997 513.125C-0.124997 513.056 -0.0690322 513 3.39746e-06 513H897.888C897.957 513 898.013 513.056 898.013 513.125C898.013 513.194 897.957 513.25 897.888 513.25H3.39746e-06C-0.0690322 513.25 -0.124997 513.194 -0.124997 513.125Z" fill="url(#paint36_radial_70_2465)"/>
    <path fill-rule="evenodd" clip-rule="evenodd" d="M-0.124997 482.074C-0.124997 482.005 -0.0690322 481.949 3.39746e-06 481.949H897.888C897.957 481.949 898.013 482.005 898.013 482.074C898.013 482.143 897.957 482.199 897.888 482.199H3.39746e-06C-0.0690322 482.199 -0.124997 482.143 -0.124997 482.074Z" fill="url(#paint37_radial_70_2465)"/>
    <path fill-rule="evenodd" clip-rule="evenodd" d="M-0.124997 457.717C-0.124997 457.648 -0.0690322 457.592 3.39746e-06 457.592H897.888C897.957 457.592 898.013 457.648 898.013 457.717C898.013 457.786 897.957 457.842 897.888 457.842H3.39746e-06C-0.0690322 457.842 -0.124997 457.786 -0.124997 457.717Z" fill="url(#paint38_radial_70_2465)"/>
    <path fill-rule="evenodd" clip-rule="evenodd" d="M-0.124997 554.056C-0.124997 553.987 -0.0690322 553.931 3.39746e-06 553.931H897.888C897.957 553.931 898.013 553.987 898.013 554.056C898.013 554.125 897.957 554.181 897.888 554.181H3.39746e-06C-0.0690322 554.181 -0.124997 554.125 -0.124997 554.056Z" fill="url(#paint39_radial_70_2465)"/>
    <path fill-rule="evenodd" clip-rule="evenodd" d="M-0.124997 438.094C-0.124997 438.025 -0.0690322 437.969 3.39746e-06 437.969H897.888C897.957 437.969 898.013 438.025 898.013 438.094C898.013 438.163 897.957 438.219 897.888 438.219H3.39746e-06C-0.0690322 438.219 -0.124997 438.163 -0.124997 438.094Z" fill="url(#paint40_radial_70_2465)"/>
    <path fill-rule="evenodd" clip-rule="evenodd" d="M-0.124997 421.951C-0.124997 421.882 -0.0690322 421.826 3.39746e-06 421.826H897.888C897.957 421.826 898.013 421.882 898.013 421.951C898.013 422.02 897.957 422.076 897.888 422.076H3.39746e-06C-0.0690322 422.076 -0.124997 422.02 -0.124997 421.951Z" fill="url(#paint41_radial_70_2465)"/>
    <path fill-rule="evenodd" clip-rule="evenodd" d="M-0.124997 340C-0.124997 339.931 -0.0690322 339.875 3.39746e-06 339.875H897.888C897.957 339.875 898.013 339.931 898.013 340C898.013 340.069 897.957 340.125 897.888 340.125H3.39746e-06C-0.0690322 340.125 -0.124997 340.069 -0.124997 340Z" fill="url(#paint42_radial_70_2465)"/>
    <path fill-rule="evenodd" clip-rule="evenodd" d="M-0.124997 336.39C-0.124997 336.321 -0.0690322 336.265 3.39746e-06 336.265H897.888C897.957 336.265 898.013 336.321 898.013 336.39C898.013 336.459 897.957 336.515 897.888 336.515H3.39746e-06C-0.0690322 336.515 -0.124997 336.459 -0.124997 336.39Z" fill="url(#paint43_radial_70_2465)"/>
    <path fill-rule="evenodd" clip-rule="evenodd" d="M-0.124997 348.287C-0.124997 348.218 -0.0690322 348.162 3.39746e-06 348.162H897.888C897.957 348.162 898.013 348.218 898.013 348.287C898.013 348.356 897.957 348.412 897.888 348.412H3.39746e-06C-0.0690322 348.412 -0.124997 348.356 -0.124997 348.287Z" fill="url(#paint44_radial_70_2465)"/>
    <path fill-rule="evenodd" clip-rule="evenodd" d="M-0.124997 343.95C-0.124997 343.881 -0.0690322 343.825 3.39746e-06 343.825H897.888C897.957 343.825 898.013 343.881 898.013 343.95C898.013 344.019 897.957 344.075 897.888 344.075H3.39746e-06C-0.0690322 344.075 -0.124997 344.019 -0.124997 343.95Z" fill="url(#paint45_radial_70_2465)"/>
    <path fill-rule="evenodd" clip-rule="evenodd" d="M-0.124997 387.081C-0.124997 387.012 -0.0690322 386.956 3.39746e-06 386.956H897.888C897.957 386.956 898.013 387.012 898.013 387.081C898.013 387.15 897.957 387.206 897.888 387.206H3.39746e-06C-0.0690322 387.206 -0.124997 387.15 -0.124997 387.081Z" fill="url(#paint46_radial_70_2465)"/>
    <path fill-rule="evenodd" clip-rule="evenodd" d="M-0.124997 408.432C-0.124997 408.363 -0.0690322 408.307 3.39746e-06 408.307H897.888C897.957 408.307 898.013 408.363 898.013 408.432C898.013 408.501 897.957 408.557 897.888 408.557H3.39746e-06C-0.0690322 408.557 -0.124997 408.501 -0.124997 408.432Z" fill="url(#paint47_radial_70_2465)"/>
    <path fill-rule="evenodd" clip-rule="evenodd" d="M-0.124997 610.487C-0.124997 610.418 -0.0690322 610.362 3.39746e-06 610.362H897.888C897.957 610.362 898.013 610.418 898.013 610.487C898.013 610.556 897.957 610.612 897.888 610.612H3.39746e-06C-0.0690322 610.612 -0.124997 610.556 -0.124997 610.487Z" fill="url(#paint48_radial_70_2465)"/>
    <path fill-rule="evenodd" clip-rule="evenodd" d="M-0.124997 358.39C-0.124997 358.321 -0.0690322 358.265 3.39746e-06 358.265H897.888C897.957 358.265 898.013 358.321 898.013 358.39C898.013 358.459 897.957 358.515 897.888 358.515H3.39746e-06C-0.0690322 358.515 -0.124997 358.459 -0.124997 358.39Z" fill="url(#paint49_radial_70_2465)"/>
    <path fill-rule="evenodd" clip-rule="evenodd" d="M-0.124997 353.077C-0.124997 353.008 -0.0690322 352.952 3.39746e-06 352.952H897.888C897.957 352.952 898.013 353.008 898.013 353.077C898.013 353.146 897.957 353.202 897.888 353.202H3.39746e-06C-0.0690322 353.202 -0.124997 353.146 -0.124997 353.077Z" fill="url(#paint50_radial_70_2465)"/>
    <path fill-rule="evenodd" clip-rule="evenodd" d="M-0.124997 378.502C-0.124997 378.433 -0.0690322 378.377 3.39746e-06 378.377H897.888C897.957 378.377 898.013 378.433 898.013 378.502C898.013 378.571 897.957 378.627 897.888 378.627H3.39746e-06C-0.0690322 378.627 -0.124997 378.571 -0.124997 378.502Z" fill="url(#paint51_radial_70_2465)"/>
    <path fill-rule="evenodd" clip-rule="evenodd" d="M-0.124997 370.972C-0.124997 370.903 -0.0690322 370.847 3.39746e-06 370.847H897.888C897.957 370.847 898.013 370.903 898.013 370.972C898.013 371.041 897.957 371.097 897.888 371.097H3.39746e-06C-0.0690322 371.097 -0.124997 371.041 -0.124997 370.972Z" fill="url(#paint52_radial_70_2465)"/>
    <path fill-rule="evenodd" clip-rule="evenodd" d="M-0.124997 364.317C-0.124997 364.248 -0.0690322 364.192 3.39746e-06 364.192H897.888C897.957 364.192 898.013 364.248 898.013 364.317C898.013 364.386 897.957 364.442 897.888 364.442H3.39746e-06C-0.0690322 364.442 -0.124997 364.386 -0.124997 364.317Z" fill="url(#paint53_radial_70_2465)"/>
    <path fill-rule="evenodd" clip-rule="evenodd" d="M-0.124997 396.953C-0.124997 396.884 -0.0690322 396.828 3.39746e-06 396.828H897.888C897.957 396.828 898.013 396.884 898.013 396.953C898.013 397.022 897.957 397.078 897.888 397.078H3.39746e-06C-0.0690322 397.078 -0.124997 397.022 -0.124997 396.953Z" fill="url(#paint54_radial_70_2465)"/>
    <path fill-rule="evenodd" clip-rule="evenodd" d="M0.0678124 704.888C0.0678124 704.819 0.123777 704.763 0.192812 704.763H896.923C896.992 704.763 897.048 704.819 897.048 704.888C897.048 704.957 896.992 705.013 896.923 705.013H0.192812C0.123777 705.013 0.0678124 704.957 0.0678124 704.888Z" fill="url(#paint55_radial_70_2465)"/>
    <defs>
        <radialGradient id="paint0_radial_70_2465" cx="0" cy="0" r="1" gradientUnits="userSpaceOnUse" gradientTransform="translate(820.5 17.5) rotate(120.294) scale(381.61 226.337)">
            <stop stop-color="white" stop-opacity="0.35"/>
            <stop offset="1" stop-color="white" stop-opacity="0.05"/>
        </radialGradient>
        <radialGradient id="paint1_radial_70_2465" cx="0" cy="0" r="1" gradientUnits="userSpaceOnUse" gradientTransform="translate(820.5 17.5) rotate(120.294) scale(381.61 226.337)">
            <stop stop-color="white" stop-opacity="0.35"/>
            <stop offset="1" stop-color="white" stop-opacity="0.05"/>
        </radialGradient>
        <radialGradient id="paint2_radial_70_2465" cx="0" cy="0" r="1" gradientUnits="userSpaceOnUse" gradientTransform="translate(820.5 17.5) rotate(120.294) scale(381.61 226.337)">
            <stop stop-color="white" stop-opacity="0.35"/>
            <stop offset="1" stop-color="white" stop-opacity="0.05"/>
        </radialGradient>
        <radialGradient id="paint3_radial_70_2465" cx="0" cy="0" r="1" gradientUnits="userSpaceOnUse" gradientTransform="translate(820.5 17.5) rotate(120.294) scale(381.61 226.337)">
            <stop stop-color="white" stop-opacity="0.35"/>
            <stop offset="1" stop-color="white" stop-opacity="0.05"/>
        </radialGradient>
        <radialGradient id="paint4_radial_70_2465" cx="0" cy="0" r="1" gradientUnits="userSpaceOnUse" gradientTransform="translate(820.5 17.5) rotate(120.294) scale(381.61 226.337)">
            <stop stop-color="white" stop-opacity="0.35"/>
            <stop offset="1" stop-color="white" stop-opacity="0.05"/>
        </radialGradient>
        <radialGradient id="paint5_radial_70_2465" cx="0" cy="0" r="1" gradientUnits="userSpaceOnUse" gradientTransform="translate(820.5 17.5) rotate(120.294) scale(381.61 226.337)">
            <stop stop-color="white" stop-opacity="0.35"/>
            <stop offset="1" stop-color="white" stop-opacity="0.05"/>
        </radialGradient>
        <radialGradient id="paint6_radial_70_2465" cx="0" cy="0" r="1" gradientUnits="userSpaceOnUse" gradientTransform="translate(820.5 17.5) rotate(120.294) scale(381.61 226.337)">
            <stop stop-color="white" stop-opacity="0.35"/>
            <stop offset="1" stop-color="white" stop-opacity="0.05"/>
        </radialGradient>
        <radialGradient id="paint7_radial_70_2465" cx="0" cy="0" r="1" gradientUnits="userSpaceOnUse" gradientTransform="translate(820.5 17.5) rotate(120.294) scale(381.61 226.337)">
            <stop stop-color="white" stop-opacity="0.35"/>
            <stop offset="1" stop-color="white" stop-opacity="0.05"/>
        </radialGradient>
        <radialGradient id="paint8_radial_70_2465" cx="0" cy="0" r="1" gradientUnits="userSpaceOnUse" gradientTransform="translate(820.5 17.5) rotate(120.294) scale(381.61 226.337)">
            <stop stop-color="white" stop-opacity="0.35"/>
            <stop offset="1" stop-color="white" stop-opacity="0.05"/>
        </radialGradient>
        <radialGradient id="paint9_radial_70_2465" cx="0" cy="0" r="1" gradientUnits="userSpaceOnUse" gradientTransform="translate(820.5 17.5) rotate(120.294) scale(381.61 226.337)">
            <stop stop-color="white" stop-opacity="0.35"/>
            <stop offset="1" stop-color="white" stop-opacity="0.05"/>
        </radialGradient>
        <radialGradient id="paint10_radial_70_2465" cx="0" cy="0" r="1" gradientUnits="userSpaceOnUse" gradientTransform="translate(820.5 17.5) rotate(120.294) scale(381.61 226.337)">
            <stop stop-color="white" stop-opacity="0.35"/>
            <stop offset="1" stop-color="white" stop-opacity="0.05"/>
        </radialGradient>
        <radialGradient id="paint11_radial_70_2465" cx="0" cy="0" r="1" gradientUnits="userSpaceOnUse" gradientTransform="translate(820.5 17.5) rotate(120.294) scale(381.61 226.337)">
            <stop stop-color="white" stop-opacity="0.35"/>
            <stop offset="1" stop-color="white" stop-opacity="0.05"/>
        </radialGradient>
        <radialGradient id="paint12_radial_70_2465" cx="0" cy="0" r="1" gradientUnits="userSpaceOnUse" gradientTransform="translate(820.5 17.5) rotate(120.294) scale(381.61 226.337)">
            <stop stop-color="white" stop-opacity="0.35"/>
            <stop offset="1" stop-color="white" stop-opacity="0.05"/>
        </radialGradient>
        <radialGradient id="paint13_radial_70_2465" cx="0" cy="0" r="1" gradientUnits="userSpaceOnUse" gradientTransform="translate(820.5 17.5) rotate(120.294) scale(381.61 226.337)">
            <stop stop-color="white" stop-opacity="0.35"/>
            <stop offset="1" stop-color="white" stop-opacity="0.05"/>
        </radialGradient>
        <radialGradient id="paint14_radial_70_2465" cx="0" cy="0" r="1" gradientUnits="userSpaceOnUse" gradientTransform="translate(820.5 17.5) rotate(120.294) scale(381.61 226.337)">
            <stop stop-color="white" stop-opacity="0.35"/>
            <stop offset="1" stop-color="white" stop-opacity="0.05"/>
        </radialGradient>
        <radialGradient id="paint15_radial_70_2465" cx="0" cy="0" r="1" gradientUnits="userSpaceOnUse" gradientTransform="translate(820.5 17.5) rotate(120.294) scale(381.61 226.337)">
            <stop stop-color="white" stop-opacity="0.35"/>
            <stop offset="1" stop-color="white" stop-opacity="0.05"/>
        </radialGradient>
        <radialGradient id="paint16_radial_70_2465" cx="0" cy="0" r="1" gradientUnits="userSpaceOnUse" gradientTransform="translate(820.5 17.5) rotate(120.294) scale(381.61 226.337)">
            <stop stop-color="white" stop-opacity="0.35"/>
            <stop offset="1" stop-color="white" stop-opacity="0.05"/>
        </radialGradient>
        <radialGradient id="paint17_radial_70_2465" cx="0" cy="0" r="1" gradientUnits="userSpaceOnUse" gradientTransform="translate(820.5 17.5) rotate(120.294) scale(381.61 226.337)">
            <stop stop-color="white" stop-opacity="0.35"/>
            <stop offset="1" stop-color="white" stop-opacity="0.05"/>
        </radialGradient>
        <radialGradient id="paint18_radial_70_2465" cx="0" cy="0" r="1" gradientUnits="userSpaceOnUse" gradientTransform="translate(820.5 17.5) rotate(120.294) scale(381.61 226.337)">
            <stop stop-color="white" stop-opacity="0.35"/>
            <stop offset="1" stop-color="white" stop-opacity="0.05"/>
        </radialGradient>
        <radialGradient id="paint19_radial_70_2465" cx="0" cy="0" r="1" gradientUnits="userSpaceOnUse" gradientTransform="translate(820.5 17.5) rotate(120.294) scale(381.61 226.337)">
            <stop stop-color="white" stop-opacity="0.35"/>
            <stop offset="1" stop-color="white" stop-opacity="0.05"/>
        </radialGradient>
        <radialGradient id="paint20_radial_70_2465" cx="0" cy="0" r="1" gradientUnits="userSpaceOnUse" gradientTransform="translate(820.5 17.5) rotate(120.294) scale(381.61 226.337)">
            <stop stop-color="white" stop-opacity="0.35"/>
            <stop offset="1" stop-color="white" stop-opacity="0.05"/>
        </radialGradient>
        <radialGradient id="paint21_radial_70_2465" cx="0" cy="0" r="1" gradientUnits="userSpaceOnUse" gradientTransform="translate(820.5 17.5) rotate(120.294) scale(381.61 226.337)">
            <stop stop-color="white" stop-opacity="0.35"/>
            <stop offset="1" stop-color="white" stop-opacity="0.05"/>
        </radialGradient>
        <radialGradient id="paint22_radial_70_2465" cx="0" cy="0" r="1" gradientUnits="userSpaceOnUse" gradientTransform="translate(820.5 17.5) rotate(120.294) scale(381.61 226.337)">
            <stop stop-color="white" stop-opacity="0.35"/>
            <stop offset="1" stop-color="white" stop-opacity="0.05"/>
        </radialGradient>
        <radialGradient id="paint23_radial_70_2465" cx="0" cy="0" r="1" gradientUnits="userSpaceOnUse" gradientTransform="translate(820.5 17.5) rotate(120.294) scale(381.61 226.337)">
            <stop stop-color="white" stop-opacity="0.35"/>
            <stop offset="1" stop-color="white" stop-opacity="0.05"/>
        </radialGradient>
        <radialGradient id="paint24_radial_70_2465" cx="0" cy="0" r="1" gradientUnits="userSpaceOnUse" gradientTransform="translate(820.5 17.5) rotate(120.294) scale(381.61 226.337)">
            <stop stop-color="white" stop-opacity="0.35"/>
            <stop offset="1" stop-color="white" stop-opacity="0.05"/>
        </radialGradient>
        <radialGradient id="paint25_radial_70_2465" cx="0" cy="0" r="1" gradientUnits="userSpaceOnUse" gradientTransform="translate(820.5 17.5) rotate(120.294) scale(381.61 226.337)">
            <stop stop-color="white" stop-opacity="0.35"/>
            <stop offset="1" stop-color="white" stop-opacity="0.05"/>
        </radialGradient>
        <radialGradient id="paint26_radial_70_2465" cx="0" cy="0" r="1" gradientUnits="userSpaceOnUse" gradientTransform="translate(820.5 17.5) rotate(120.294) scale(381.61 226.337)">
            <stop stop-color="white" stop-opacity="0.35"/>
            <stop offset="1" stop-color="white" stop-opacity="0.05"/>
        </radialGradient>
        <radialGradient id="paint27_radial_70_2465" cx="0" cy="0" r="1" gradientUnits="userSpaceOnUse" gradientTransform="translate(820.5 17.5) rotate(120.294) scale(381.61 226.337)">
            <stop stop-color="white" stop-opacity="0.35"/>
            <stop offset="1" stop-color="white" stop-opacity="0.05"/>
        </radialGradient>
        <radialGradient id="paint28_radial_70_2465" cx="0" cy="0" r="1" gradientUnits="userSpaceOnUse" gradientTransform="translate(820.5 17.5) rotate(120.294) scale(381.61 226.337)">
            <stop stop-color="white" stop-opacity="0.35"/>
            <stop offset="1" stop-color="white" stop-opacity="0.05"/>
        </radialGradient>
        <radialGradient id="paint29_radial_70_2465" cx="0" cy="0" r="1" gradientUnits="userSpaceOnUse" gradientTransform="translate(820.5 17.5) rotate(120.294) scale(381.61 226.337)">
            <stop stop-color="white" stop-opacity="0.35"/>
            <stop offset="1" stop-color="white" stop-opacity="0.05"/>
        </radialGradient>
        <radialGradient id="paint30_radial_70_2465" cx="0" cy="0" r="1" gradientUnits="userSpaceOnUse" gradientTransform="translate(820.5 17.5) rotate(120.294) scale(381.61 226.337)">
            <stop stop-color="white" stop-opacity="0.35"/>
            <stop offset="1" stop-color="white" stop-opacity="0.05"/>
        </radialGradient>
        <radialGradient id="paint31_radial_70_2465" cx="0" cy="0" r="1" gradientUnits="userSpaceOnUse" gradientTransform="translate(820.5 17.5) rotate(120.294) scale(381.61 226.337)">
            <stop stop-color="white" stop-opacity="0.35"/>
            <stop offset="1" stop-color="white" stop-opacity="0.05"/>
        </radialGradient>
        <radialGradient id="paint32_radial_70_2465" cx="0" cy="0" r="1" gradientUnits="userSpaceOnUse" gradientTransform="translate(820.5 17.5) rotate(120.294) scale(381.61 226.337)">
            <stop stop-color="white" stop-opacity="0.35"/>
            <stop offset="1" stop-color="white" stop-opacity="0.05"/>
        </radialGradient>
        <radialGradient id="paint33_radial_70_2465" cx="0" cy="0" r="1" gradientUnits="userSpaceOnUse" gradientTransform="translate(820.5 17.5) rotate(120.294) scale(381.61 226.337)">
            <stop stop-color="white" stop-opacity="0.35"/>
            <stop offset="1" stop-color="white" stop-opacity="0.05"/>
        </radialGradient>
        <radialGradient id="paint34_radial_70_2465" cx="0" cy="0" r="1" gradientUnits="userSpaceOnUse" gradientTransform="translate(820.5 17.5) rotate(120.294) scale(381.61 226.337)">
            <stop stop-color="white" stop-opacity="0.35"/>
            <stop offset="1" stop-color="white" stop-opacity="0.05"/>
        </radialGradient>
        <radialGradient id="paint35_radial_70_2465" cx="0" cy="0" r="1" gradientUnits="userSpaceOnUse" gradientTransform="translate(820.5 17.5) rotate(120.294) scale(381.61 226.337)">
            <stop stop-color="white" stop-opacity="0.35"/>
            <stop offset="1" stop-color="white" stop-opacity="0.05"/>
        </radialGradient>
        <radialGradient id="paint36_radial_70_2465" cx="0" cy="0" r="1" gradientUnits="userSpaceOnUse" gradientTransform="translate(820.5 17.5) rotate(120.294) scale(381.61 226.337)">
            <stop stop-color="white" stop-opacity="0.35"/>
            <stop offset="1" stop-color="white" stop-opacity="0.05"/>
        </radialGradient>
        <radialGradient id="paint37_radial_70_2465" cx="0" cy="0" r="1" gradientUnits="userSpaceOnUse" gradientTransform="translate(820.5 17.5) rotate(120.294) scale(381.61 226.337)">
            <stop stop-color="white" stop-opacity="0.35"/>
            <stop offset="1" stop-color="white" stop-opacity="0.05"/>
        </radialGradient>
        <radialGradient id="paint38_radial_70_2465" cx="0" cy="0" r="1" gradientUnits="userSpaceOnUse" gradientTransform="translate(820.5 17.5) rotate(120.294) scale(381.61 226.337)">
            <stop stop-color="white" stop-opacity="0.35"/>
            <stop offset="1" stop-color="white" stop-opacity="0.05"/>
        </radialGradient>
        <radialGradient id="paint39_radial_70_2465" cx="0" cy="0" r="1" gradientUnits="userSpaceOnUse" gradientTransform="translate(820.5 17.5) rotate(120.294) scale(381.61 226.337)">
            <stop stop-color="white" stop-opacity="0.35"/>
            <stop offset="1" stop-color="white" stop-opacity="0.05"/>
        </radialGradient>
        <radialGradient id="paint40_radial_70_2465" cx="0" cy="0" r="1" gradientUnits="userSpaceOnUse" gradientTransform="translate(820.5 17.5) rotate(120.294) scale(381.61 226.337)">
            <stop stop-color="white" stop-opacity="0.35"/>
            <stop offset="1" stop-color="white" stop-opacity="0.05"/>
        </radialGradient>
        <radialGradient id="paint41_radial_70_2465" cx="0" cy="0" r="1" gradientUnits="userSpaceOnUse" gradientTransform="translate(820.5 17.5) rotate(120.294) scale(381.61 226.337)">
            <stop stop-color="white" stop-opacity="0.35"/>
            <stop offset="1" stop-color="white" stop-opacity="0.05"/>
        </radialGradient>
        <radialGradient id="paint42_radial_70_2465" cx="0" cy="0" r="1" gradientUnits="userSpaceOnUse" gradientTransform="translate(820.5 17.5) rotate(120.294) scale(381.61 226.337)">
            <stop stop-color="white" stop-opacity="0.35"/>
            <stop offset="1" stop-color="white" stop-opacity="0.05"/>
        </radialGradient>
        <radialGradient id="paint43_radial_70_2465" cx="0" cy="0" r="1" gradientUnits="userSpaceOnUse" gradientTransform="translate(820.5 17.5) rotate(120.294) scale(381.61 226.337)">
            <stop stop-color="white" stop-opacity="0.35"/>
            <stop offset="1" stop-color="white" stop-opacity="0.05"/>
        </radialGradient>
        <radialGradient id="paint44_radial_70_2465" cx="0" cy="0" r="1" gradientUnits="userSpaceOnUse" gradientTransform="translate(820.5 17.5) rotate(120.294) scale(381.61 226.337)">
            <stop stop-color="white" stop-opacity="0.35"/>
            <stop offset="1" stop-color="white" stop-opacity="0.05"/>
        </radialGradient>
        <radialGradient id="paint45_radial_70_2465" cx="0" cy="0" r="1" gradientUnits="userSpaceOnUse" gradientTransform="translate(820.5 17.5) rotate(120.294) scale(381.61 226.337)">
            <stop stop-color="white" stop-opacity="0.35"/>
            <stop offset="1" stop-color="white" stop-opacity="0.05"/>
        </radialGradient>
        <radialGradient id="paint46_radial_70_2465" cx="0" cy="0" r="1" gradientUnits="userSpaceOnUse" gradientTransform="translate(820.5 17.5) rotate(120.294) scale(381.61 226.337)">
            <stop stop-color="white" stop-opacity="0.35"/>
            <stop offset="1" stop-color="white" stop-opacity="0.05"/>
        </radialGradient>
        <radialGradient id="paint47_radial_70_2465" cx="0" cy="0" r="1" gradientUnits="userSpaceOnUse" gradientTransform="translate(820.5 17.5) rotate(120.294) scale(381.61 226.337)">
            <stop stop-color="white" stop-opacity="0.35"/>
            <stop offset="1" stop-color="white" stop-opacity="0.05"/>
        </radialGradient>
        <radialGradient id="paint48_radial_70_2465" cx="0" cy="0" r="1" gradientUnits="userSpaceOnUse" gradientTransform="translate(820.5 17.5) rotate(120.294) scale(381.61 226.337)">
            <stop stop-color="white" stop-opacity="0.35"/>
            <stop offset="1" stop-color="white" stop-opacity="0.05"/>
        </radialGradient>
        <radialGradient id="paint49_radial_70_2465" cx="0" cy="0" r="1" gradientUnits="userSpaceOnUse" gradientTransform="translate(820.5 17.5) rotate(120.294) scale(381.61 226.337)">
            <stop stop-color="white" stop-opacity="0.35"/>
            <stop offset="1" stop-color="white" stop-opacity="0.05"/>
        </radialGradient>
        <radialGradient id="paint50_radial_70_2465" cx="0" cy="0" r="1" gradientUnits="userSpaceOnUse" gradientTransform="translate(820.5 17.5) rotate(120.294) scale(381.61 226.337)">
            <stop stop-color="white" stop-opacity="0.35"/>
            <stop offset="1" stop-color="white" stop-opacity="0.05"/>
        </radialGradient>
        <radialGradient id="paint51_radial_70_2465" cx="0" cy="0" r="1" gradientUnits="userSpaceOnUse" gradientTransform="translate(820.5 17.5) rotate(120.294) scale(381.61 226.337)">
            <stop stop-color="white" stop-opacity="0.35"/>
            <stop offset="1" stop-color="white" stop-opacity="0.05"/>
        </radialGradient>
        <radialGradient id="paint52_radial_70_2465" cx="0" cy="0" r="1" gradientUnits="userSpaceOnUse" gradientTransform="translate(820.5 17.5) rotate(120.294) scale(381.61 226.337)">
            <stop stop-color="white" stop-opacity="0.35"/>
            <stop offset="1" stop-color="white" stop-opacity="0.05"/>
        </radialGradient>
        <radialGradient id="paint53_radial_70_2465" cx="0" cy="0" r="1" gradientUnits="userSpaceOnUse" gradientTransform="translate(820.5 17.5) rotate(120.294) scale(381.61 226.337)">
            <stop stop-color="white" stop-opacity="0.35"/>
            <stop offset="1" stop-color="white" stop-opacity="0.05"/>
        </radialGradient>
        <radialGradient id="paint54_radial_70_2465" cx="0" cy="0" r="1" gradientUnits="userSpaceOnUse" gradientTransform="translate(820.5 17.5) rotate(120.294) scale(381.61 226.337)">
            <stop stop-color="white" stop-opacity="0.35"/>
            <stop offset="1" stop-color="white" stop-opacity="0.05"/>
        </radialGradient>
        <radialGradient id="paint55_radial_70_2465" cx="0" cy="0" r="1" gradientUnits="userSpaceOnUse" gradientTransform="translate(820.5 17.5) rotate(120.294) scale(381.61 226.337)">
            <stop stop-color="white" stop-opacity="0.35"/>
            <stop offset="1" stop-color="white" stop-opacity="0.05"/>
        </radialGradient>
    </defs>
</svg>
