<svg viewBox="0 0 1440 333" preserveAspectRatio="xMidYMax" fill="none" xmlns="http://www.w3.org/2000/svg">
<g opacity="0.9" clip-path="url(#clip0_74_1942)">
<g filter="url(#filter0_f_74_1942)">
<path fill-rule="evenodd" clip-rule="evenodd" d="M-20.8882 382.327C-21.0237 382.08 -20.9327 381.769 -20.6852 381.634L-0.686768 370.689H-20.4399C-20.7222 370.689 -20.951 370.461 -20.951 370.178C-20.951 369.896 -20.7222 369.667 -20.4399 369.667H1.18066L134.399 296.761H-20.4399C-20.7222 296.761 -20.951 296.532 -20.951 296.25C-20.951 295.968 -20.7222 295.739 -20.4399 295.739H136.267L228.273 245.387H-15.2001L-20.2646 247.235C-20.5298 247.332 -20.8232 247.196 -20.9199 246.931C-21.0167 246.666 -20.8802 246.372 -20.6152 246.275L-18.181 245.387H-20.4399C-20.7222 245.387 -20.951 245.158 -20.951 244.876C-20.951 244.594 -20.7222 244.365 -20.4399 244.365H-15.3809L81.3776 209.049H-20.4399C-20.7222 209.049 -20.951 208.82 -20.951 208.538C-20.951 208.256 -20.7222 208.027 -20.4399 208.027H84.1776L156.905 181.483H-20.4399C-20.7222 181.483 -20.951 181.254 -20.951 180.972C-20.951 180.689 -20.7222 180.461 -20.4399 180.461H159.705L216.984 159.555H55.1884C54.9254 159.555 54.7089 159.356 54.6805 159.101L-20.3054 179.585C-20.5776 179.659 -20.8586 179.499 -20.933 179.227C-21.0073 178.954 -20.8469 178.673 -20.5747 178.599L254.104 103.563C254.197 103.462 254.33 103.399 254.478 103.399H254.703L414.532 59.7378C414.625 59.6195 414.77 59.5435 414.933 59.5435H415.243L442.147 52.1939C442.241 52.0903 442.376 52.0253 442.526 52.0253H442.764L453.634 49.056C453.906 48.9816 454.187 49.142 454.262 49.4142C454.271 49.4493 454.277 49.4844 454.279 49.5193H518.46L520.024 48.9487C520.289 48.852 520.582 48.9884 520.679 49.2535C520.711 49.3418 520.717 49.4331 520.702 49.5193H586.173L586.384 49.4041C586.599 49.2861 586.863 49.3398 587.017 49.5193H652.608L652.682 49.4383C652.872 49.2299 653.195 49.2153 653.404 49.4056C653.441 49.4397 653.472 49.4781 653.497 49.5193H718.808C718.897 49.3712 719.059 49.2722 719.245 49.2719C719.431 49.2716 719.594 49.3708 719.683 49.5193H784.459C784.468 49.5047 784.478 49.4904 784.488 49.4766C784.507 49.4516 784.528 49.428 784.552 49.4062C784.76 49.2155 785.083 49.2296 785.274 49.4377L785.349 49.5193H850.817C850.812 49.4283 850.832 49.3349 850.879 49.2491C851.014 49.0014 851.324 48.9102 851.572 49.0454L852.44 49.5193H917.487C917.616 49.4393 917.779 49.4171 917.932 49.473L918.059 49.5193H983.677C983.679 49.4832 983.685 49.4469 983.694 49.4106C983.769 49.1384 984.05 48.978 984.322 49.0524L995.204 52.0253H995.429C995.577 52.0253 995.711 52.0883 995.804 52.1891L1022.73 59.5435H1023.02C1023.18 59.5435 1023.33 59.6177 1023.42 59.7337L1183.26 103.399H1183.48C1183.62 103.399 1183.76 103.461 1183.85 103.56L1458.53 178.599C1458.8 178.673 1458.96 178.954 1458.89 179.227C1458.81 179.499 1458.53 179.659 1458.26 179.585L1383.28 159.1C1383.25 159.356 1383.03 159.555 1382.77 159.555H1220.34L1277.77 180.461H1458.4C1458.68 180.461 1458.91 180.689 1458.91 180.972C1458.91 181.254 1458.68 181.483 1458.4 181.483H1280.58L1353.5 208.027H1458.4C1458.68 208.027 1458.91 208.256 1458.91 208.538C1458.91 208.82 1458.68 209.049 1458.4 209.049H1356.31L1453.32 244.365H1458.4C1458.68 244.365 1458.91 244.594 1458.91 244.876C1458.91 245.158 1458.68 245.387 1458.4 245.387H1456.13L1458.57 246.275C1458.84 246.372 1458.97 246.665 1458.88 246.93C1458.78 247.195 1458.49 247.332 1458.22 247.236L1453.14 245.387H1211.31L1303.56 295.739H1458.4C1458.68 295.739 1458.91 295.968 1458.91 296.25C1458.91 296.532 1458.68 296.761 1458.4 296.761H1305.43L1439.01 369.667H1458.4C1458.68 369.667 1458.91 369.896 1458.91 370.178C1458.91 370.461 1458.68 370.689 1458.4 370.689H1440.88L1458.64 380.381C1458.89 380.516 1458.98 380.826 1458.84 381.074C1458.71 381.322 1458.4 381.413 1458.15 381.278L1438.75 370.689H1079.71L1089.83 381.737C1090.02 381.945 1090.01 382.268 1089.8 382.459C1089.59 382.65 1089.27 382.635 1089.08 382.427L1078.32 370.689H720.226L720.243 382.081C720.243 382.364 720.015 382.593 719.733 382.593C719.451 382.594 719.221 382.365 719.221 382.083L719.204 370.689H360.623L349.902 382.427C349.712 382.635 349.388 382.65 349.18 382.459C348.972 382.269 348.957 381.946 349.147 381.738L359.239 370.689H1.44202L-20.1946 382.53C-20.4421 382.666 -20.7527 382.575 -20.8882 382.327ZM1217.53 158.533H1381.2L1318.89 141.512C1318.89 141.789 1318.66 142.012 1318.38 142.012H1172.15L1217.53 158.533ZM1214.54 158.533H1052.17L1021.91 142.012H1169.16L1214.54 158.533ZM1054.05 159.555H1217.35L1274.78 180.461H1092.35L1054.05 159.555ZM1050.04 158.533L1019.77 142.012H870.12L885.261 158.533H1050.04ZM886.198 159.555H1051.91L1090.22 180.461H905.358L886.198 159.555ZM883.875 158.533L868.734 142.012H719.892L719.916 158.533H883.875ZM719.917 159.555H884.811L903.972 180.461H719.948L719.917 159.555ZM718.894 158.533L718.87 142.012H569.505L554.415 158.533H718.894ZM553.482 159.555H718.895L718.926 180.461H534.386L553.482 159.555ZM553.031 158.533L568.121 142.012H419.293L389.107 158.533H553.031ZM387.239 159.555H552.098L533.001 180.461H349.039L387.239 159.555ZM386.978 158.533L417.165 142.012H268.027L222.765 158.533H386.978ZM219.965 159.555H385.111L346.91 180.461H162.686L219.965 159.555ZM219.784 158.533L265.046 142.012H118.552C118.369 142.012 118.208 141.916 118.118 141.771L56.7595 158.533H219.784ZM270.827 140.99H419.032L444.64 126.976H309.224L270.827 140.99ZM421.161 140.99H569.055L581.856 126.976H446.769L421.161 140.99ZM570.439 140.99H718.868L718.848 126.976H583.24L570.439 140.99ZM719.89 140.99H867.797L854.952 126.976H719.87L719.89 140.99ZM869.183 140.99H1017.9L992.222 126.976H856.339L869.183 140.99ZM1020.03 140.99H1166.35L1127.85 126.976H994.355L1020.03 140.99ZM1316.99 140.99H1169.34L1130.84 126.976H1265.24C1265.32 126.976 1265.4 126.955 1265.47 126.918L1316.99 140.99ZM120.975 140.99H267.846L306.244 126.976H172.718C172.634 126.976 172.554 126.955 172.484 126.919L120.975 140.99ZM1128.03 125.954H1261.94L1183.12 104.421H1068.88L1097.05 114.677H1220.27C1220.55 114.677 1220.78 114.905 1220.78 115.188C1220.78 115.47 1220.55 115.699 1220.27 115.699H1099.86L1128.03 125.954ZM1125.05 125.954H992.483L973.693 115.699H1096.87L1125.05 125.954ZM990.35 125.954L971.56 115.699H846.003L855.402 125.954H990.35ZM854.016 125.954L844.617 115.699H719.853L719.868 125.954H854.016ZM718.846 125.954L718.831 115.699H593.542L584.174 125.954H718.846ZM582.79 125.954L592.157 115.699H467.375L448.636 125.954H582.79ZM446.508 125.954L465.247 115.699H340.122L312.024 125.954H446.508ZM309.044 125.954L337.141 115.699H216.664C216.382 115.699 216.153 115.47 216.153 115.188C216.153 115.113 216.169 115.042 216.198 114.977L176.018 125.954H309.044ZM342.922 114.677H467.114L485.853 104.421H371.019L342.922 114.677ZM469.243 114.677H593.091L602.458 104.421H487.982L469.243 114.677ZM594.475 114.677H718.829L718.814 104.421H603.843L594.475 114.677ZM719.851 114.677H843.68L834.281 104.421H719.836L719.851 114.677ZM845.066 114.677H969.688L950.898 104.421H835.667L845.066 114.677ZM971.821 114.677H1094.07L1065.89 104.421H953.031L971.821 114.677ZM217.3 114.677H339.941L368.039 104.421H254.84L217.3 114.677ZM1066.07 103.399H1179.38L1150.93 95.6262C1150.88 95.6418 1150.83 95.6502 1150.77 95.6502H1044.79L1066.07 103.399ZM1063.09 103.399H951.159L936.961 95.6502H1041.8L1063.09 103.399ZM949.026 103.399L934.828 95.6502H827.628L834.731 103.399H949.026ZM833.344 103.399L826.242 95.6502H719.824L719.835 103.399H833.344ZM718.813 103.399L718.802 95.6502H611.854L604.776 103.399H718.813ZM603.392 103.399L610.47 95.6502H504.009L489.849 103.399H603.392ZM487.72 103.399L501.88 95.6502H395.051L373.819 103.399H487.72ZM370.839 103.399L392.07 95.6502H287.182C287.13 95.6502 287.079 95.6422 287.031 95.6275L258.581 103.399H370.839ZM397.851 94.6282H503.748L515.617 88.1322H415.649L397.851 94.6282ZM505.876 94.6282H611.404L617.337 88.1322H517.746L505.876 94.6282ZM612.788 94.6282H718.8L718.791 88.1322H618.722L612.788 94.6282ZM719.822 94.6282H825.305L819.352 88.1322H719.813L719.822 94.6282ZM826.692 94.6282H932.955L921.053 88.1322H820.738L826.692 94.6282ZM935.088 94.6282H1038.99L1021.15 88.1322H923.186L935.088 94.6282ZM1147.28 94.6282H1041.98L1024.13 88.1322H1122.16C1122.34 88.1322 1122.51 88.0336 1122.6 87.8859L1147.28 94.6282ZM290.689 94.6282H394.87L412.668 88.1322H315.799C315.614 88.1322 315.453 88.0345 315.363 87.888L290.689 94.6282ZM1021.33 87.1103H1119.76L1098.12 81.1986L1098.12 81.2078L1098.12 81.2165C1098.12 81.2259 1098.13 81.2354 1098.13 81.2449L1098.13 81.2587L1098.13 81.2747L1098.14 81.2891L1098.14 81.3039C1098.14 81.321 1098.14 81.3384 1098.14 81.356C1098.14 81.6382 1097.91 81.867 1097.63 81.867H1006.92L1021.33 87.1103ZM1018.34 87.1103H921.314L911.707 81.867H1003.93L1018.34 87.1103ZM919.181 87.1103L909.574 81.867H814.996L819.801 87.1103H919.181ZM818.415 87.1103L813.61 81.867H719.803L719.811 87.1103H818.415ZM718.789 87.1103L718.781 81.867H624.445L619.655 87.1103H718.789ZM618.271 87.1103L623.06 81.867H529.195L519.614 87.1103H618.271ZM517.485 87.1103L527.066 81.867H432.814L418.449 87.1103H517.485ZM415.468 87.1103L429.834 81.867H340.326C340.044 81.867 339.815 81.6382 339.815 81.356C339.815 81.3022 339.824 81.2503 339.839 81.2016L318.21 87.1103H415.468ZM435.615 80.845H528.933L538.514 75.6017H449.98L435.615 80.845ZM531.062 80.845H623.994L628.783 75.6017H540.643L531.062 80.845ZM625.378 80.845H718.78L718.772 75.6017H630.167L625.378 80.845ZM719.802 80.845H812.673L807.867 75.6017H719.794L719.802 80.845ZM814.059 80.845H907.702L898.095 75.6017H809.254L814.059 80.845ZM909.835 80.845H1001.13L986.723 75.6017H900.228L909.835 80.845ZM1096.82 80.845H1004.11L989.711 75.6017H1075.15C1075.43 75.6017 1075.66 75.373 1075.66 75.0907C1075.66 75.0814 1075.66 75.0721 1075.66 75.0629L1096.82 80.845ZM341.145 80.845H432.634L446.999 75.6017H362.811C362.528 75.6017 362.3 75.373 362.3 75.0907C362.3 75.0823 362.3 75.074 362.3 75.0657L341.145 80.845ZM986.903 74.5797H1073.89L1056.09 69.7175C1056.18 69.81 1056.24 69.9377 1056.24 70.0788C1056.24 70.361 1056.01 70.5898 1055.73 70.5898H975.942L986.903 74.5797ZM983.916 74.5797H898.356L891.045 70.5898H972.955L983.916 74.5797ZM896.223 74.5797L888.912 70.5898H804.66L808.317 74.5797H896.223ZM806.931 74.5797L803.274 70.5898H719.787L719.793 74.5797H806.931ZM718.771 74.5797L718.765 70.5898H634.746L631.101 74.5797H718.771ZM629.717 74.5797L633.361 70.5898H549.801L542.51 74.5797H629.717ZM540.381 74.5797L547.672 70.5898H463.712L452.78 74.5797H540.381ZM449.799 74.5797L460.731 70.5898H382.229C381.946 70.5898 381.718 70.361 381.718 70.0788C381.718 69.9397 381.773 69.8137 381.863 69.7216L364.079 74.5797H449.799ZM466.512 69.5678H549.539L556.831 65.5775H477.445L466.512 69.5678ZM551.668 69.5678H634.295L637.94 65.5775H558.96L551.668 69.5678ZM635.679 69.5678H718.763L718.758 65.5775H639.324L635.679 69.5678ZM719.785 69.5678H802.337L798.68 65.5775H719.78L719.785 69.5678ZM803.724 69.5678H887.04L879.729 65.5775H800.066L803.724 69.5678ZM889.173 69.5678H970.147L959.185 65.5775H881.862L889.173 69.5678ZM1055.54 69.5678H973.135L962.173 65.5775H1038.35C1038.64 65.5775 1038.86 65.3487 1038.86 65.0665C1038.86 65.0478 1038.86 65.0294 1038.86 65.0112L1055.54 69.5678ZM382.426 69.5678H463.531L474.464 65.5775H399.603C399.32 65.5775 399.092 65.3487 399.092 65.0665C399.092 65.0489 399.093 65.0316 399.094 65.0144L382.426 69.5678ZM959.366 64.5555H1037.19L1022.59 60.5655H948.405L959.366 64.5555ZM956.378 64.5555H879.99L872.679 60.5655H945.417L956.378 64.5555ZM877.856 64.5555L870.546 60.5655H795.473L799.13 64.5555H877.856ZM797.743 64.5555L794.086 60.5655H719.772L719.778 64.5555H797.743ZM718.756 64.5555L718.75 60.5655H643.902L640.257 64.5555H718.756ZM638.873 64.5555L642.518 60.5655H568.118L560.827 64.5555H638.873ZM558.698 64.5555L565.989 60.5655H491.177L480.245 64.5555H558.698ZM477.264 64.5555L488.196 60.5655H415.38L400.774 64.5555H477.264ZM493.977 59.5435H567.856L572.858 56.8065H501.476L493.977 59.5435ZM569.985 59.5435H643.451L645.951 56.8065H574.986L569.985 59.5435ZM644.836 59.5435H718.749L718.745 56.8065H647.336L644.836 59.5435ZM719.771 59.5435H793.15L790.641 56.8065H719.767L719.771 59.5435ZM794.536 59.5435H868.673L863.659 56.8065H792.028L794.536 59.5435ZM870.807 59.5435H942.609L935.091 56.8065H865.792L870.807 59.5435ZM1018.85 59.5435H945.597L938.078 56.8065H1008.72C1008.74 56.8065 1008.77 56.804 1008.8 56.7993L1018.85 59.5435ZM419.121 59.5435H490.996L498.495 56.8065H429.241C429.214 56.8065 429.188 56.8045 429.162 56.8006L419.121 59.5435ZM935.271 55.7845H1005.09L995.067 53.0472H927.751L935.271 55.7845ZM932.283 55.7845H863.919L858.904 53.0472H924.763L932.283 55.7845ZM861.786 55.7845L856.771 53.0472H788.582L791.091 55.7845H861.786ZM789.705 55.7845L787.196 53.0472H719.761L719.765 55.7845H789.705ZM718.743 55.7845L718.739 53.0472H650.77L648.269 55.7845H718.743ZM646.885 55.7845L649.385 53.0472H581.856L576.854 55.7845H646.885ZM574.725 55.7845L579.727 53.0472H511.775L504.276 55.7845H574.725ZM501.295 55.7845L508.794 53.0472H442.902L432.881 55.7845H501.295ZM514.575 52.0253H581.594L584.306 50.5413H518.641L514.575 52.0253ZM583.723 52.0253H650.319L651.674 50.5413H586.435L583.723 52.0253ZM651.703 52.0253H718.738L718.736 50.5413H653.059L651.703 52.0253ZM719.76 52.0253H786.259L784.899 50.5413H719.758L719.76 52.0253ZM787.646 52.0253H854.899L852.18 50.5413H786.286L787.646 52.0253ZM857.032 52.0253H921.956L917.879 50.5413H854.313L857.032 52.0253ZM991.326 52.0253H924.944L920.867 50.5413H984.188C984.408 50.5413 984.596 50.4017 984.668 50.2062L991.326 52.0253ZM446.643 52.0253H511.594L515.66 50.5413H453.769C453.55 50.5413 453.363 50.4033 453.29 50.2094L446.643 52.0253ZM3.30945 369.667H360.173L426.768 296.761H136.528L3.30945 369.667ZM361.557 369.667H719.203L719.096 296.761H428.152L361.557 369.667ZM720.225 369.667H1077.38L1010.56 296.761H720.118L720.225 369.667ZM1078.77 369.667H1436.88L1303.3 296.761H1011.95L1078.77 369.667ZM427.702 295.739H138.395L230.402 245.387H473.695L427.702 295.739ZM719.095 295.739H429.086L475.079 245.387H719.021L719.095 295.739ZM1009.63 295.739H720.117L720.043 245.387H963.478L1009.63 295.739ZM1301.43 295.739H1011.01L964.864 245.387H1209.17L1301.43 295.739ZM232.269 244.365H474.629L506.887 209.049H296.8L232.269 244.365ZM476.013 244.365H719.019L718.968 209.049H508.272L476.013 244.365ZM720.041 244.365H962.541L930.174 209.049H719.99L720.041 244.365ZM963.927 244.365H1207.3L1142.6 209.049H931.56L963.927 244.365ZM1209.43 244.365H1450.34L1353.32 209.049H1144.73L1209.43 244.365ZM-12.3999 244.365H230.14L294.671 209.049H84.3585L-12.3999 244.365ZM507.821 208.027H298.667L347.171 181.483H532.068L507.821 208.027ZM718.966 208.027H509.205L533.452 181.483H718.927L718.966 208.027ZM929.237 208.027H719.988L719.949 181.483H904.909L929.237 208.027ZM1140.72 208.027H930.623L906.295 181.483H1092.09L1140.72 208.027ZM1350.51 208.027H1142.86L1094.22 181.483H1277.59L1350.51 208.027ZM87.1586 208.027H296.539L345.043 181.483H159.886L87.1586 208.027ZM586.94 -94.8099C586.785 -94.6902 586.567 -94.6665 586.383 -94.7671L586.305 -94.8099H454.212C454.1 -94.6122 453.864 -94.5076 453.634 -94.5703L443.566 -97.316H442.526C442.275 -97.316 442.066 -97.4975 442.023 -97.7366L429.782 -101.075H429.241C429.045 -101.075 428.875 -101.185 428.79 -101.346L415.997 -104.834H414.933C414.679 -104.834 414.468 -105.019 414.428 -105.262L287.343 -139.919H287.182C287.047 -139.919 286.923 -139.972 286.832 -140.058L255.18 -148.69H254.478C254.263 -148.69 254.08 -148.823 254.004 -149.011L-20.5745 -223.89C-20.8467 -223.964 -21.0073 -224.245 -20.933 -224.517C-20.8588 -224.789 -20.5779 -224.95 -20.3055 -224.876L54.6854 -204.425C54.7283 -204.664 54.9371 -204.845 55.1884 -204.845H220.041L162.852 -225.751H-20.4399C-20.7222 -225.751 -20.951 -225.98 -20.951 -226.262C-20.951 -226.544 -20.7222 -226.773 -20.4399 -226.773H160.056L87.4429 -253.318H-20.4399C-20.7222 -253.318 -20.951 -253.546 -20.951 -253.829C-20.951 -254.111 -20.7222 -254.34 -20.4399 -254.34H84.6472L-15.3887 -290.909H-20.4399C-20.7222 -290.909 -20.951 -291.137 -20.951 -291.42C-20.951 -291.702 -20.7222 -291.931 -20.4399 -291.931H-18.1843L-20.6155 -292.819C-20.8804 -292.916 -21.0168 -293.21 -20.9199 -293.475C-20.823 -293.74 -20.5295 -293.876 -20.2645 -293.779L-15.2075 -291.931H226.808L137.264 -341.03H-20.4399C-20.7222 -341.03 -20.951 -341.259 -20.951 -341.541C-20.951 -341.823 -20.7222 -342.052 -20.4399 -342.052H135.4L0.152344 -416.211H-20.4399C-20.7222 -416.211 -20.951 -416.44 -20.951 -416.722C-20.951 -417.005 -20.7222 -417.233 -20.4399 -417.233H-1.71155L-19.3872 -426.925C-19.6345 -427.061 -19.7252 -427.372 -19.5896 -427.619C-19.4539 -427.867 -19.1433 -427.957 -18.8958 -427.822L0.414307 -417.233H358.832L349.901 -427.029C349.711 -427.238 349.726 -427.561 349.934 -427.751C350.143 -427.941 350.466 -427.926 350.656 -427.718L360.215 -417.233H719.188L719.203 -427.374C719.203 -427.656 719.432 -427.885 719.714 -427.885C719.997 -427.884 720.225 -427.655 720.225 -427.373L720.21 -417.233H1078.69L1088.28 -427.718C1088.47 -427.927 1088.79 -427.941 1089 -427.751C1089.21 -427.56 1089.22 -427.237 1089.03 -427.029L1080.07 -417.233H1438.66L1458.02 -427.822C1458.27 -427.957 1458.58 -427.866 1458.72 -427.619C1458.85 -427.371 1458.76 -427.061 1458.51 -426.925L1440.79 -417.233H1458.4C1458.68 -417.233 1458.91 -417.005 1458.91 -416.722C1458.91 -416.44 1458.68 -416.211 1458.4 -416.211H1438.92L1303.32 -342.052H1458.4C1458.68 -342.052 1458.91 -341.823 1458.91 -341.541C1458.91 -341.259 1458.68 -341.03 1458.4 -341.03H1301.45L1211.67 -291.931H1456.59L1458.22 -292.526C1458.49 -292.623 1458.78 -292.487 1458.88 -292.221C1458.94 -292.05 1458.9 -291.867 1458.8 -291.733C1458.87 -291.646 1458.91 -291.538 1458.91 -291.42C1458.91 -291.137 1458.68 -290.909 1458.4 -290.909H1456.77L1356.47 -254.34H1458.4C1458.68 -254.34 1458.91 -254.111 1458.91 -253.829C1458.91 -253.546 1458.68 -253.318 1458.4 -253.318H1353.67L1280.86 -226.773H1458.4C1458.68 -226.773 1458.91 -226.544 1458.91 -226.262C1458.91 -225.98 1458.68 -225.751 1458.4 -225.751H1278.06L1220.72 -204.845H1382.77C1383.02 -204.845 1383.23 -204.664 1383.27 -204.425L1458.26 -224.876C1458.53 -224.95 1458.81 -224.789 1458.89 -224.517C1458.96 -224.245 1458.8 -223.964 1458.53 -223.89L1183.95 -149.007C1183.87 -148.821 1183.69 -148.69 1183.48 -148.69H1182.79L1151.12 -140.054C1151.03 -139.97 1150.91 -139.919 1150.77 -139.919H1150.63L1023.53 -105.257C1023.49 -105.017 1023.28 -104.834 1023.02 -104.834H1021.98L1009.16 -101.34C1009.08 -101.182 1008.91 -101.075 1008.72 -101.075H1008.19L995.931 -97.7315C995.887 -97.4949 995.679 -97.316 995.429 -97.316H994.408L984.322 -94.5654C984.09 -94.5022 983.852 -94.609 983.741 -94.8099H918.927L917.932 -94.4472C917.667 -94.3505 917.374 -94.4871 917.277 -94.7523C917.274 -94.7607 917.271 -94.7692 917.269 -94.7777C917.265 -94.7884 917.263 -94.7991 917.26 -94.8099H785.135C784.987 -94.7321 784.809 -94.7312 784.659 -94.8099H719.683C719.593 -94.6618 719.431 -94.563 719.245 -94.5633C719.06 -94.5635 718.898 -94.6623 718.808 -94.8099H653.297C653.148 -94.7312 652.969 -94.7321 652.821 -94.8099H586.94ZM1381.07 -203.823H1217.92L1172.61 -187.303H1318.38C1318.64 -187.303 1318.85 -187.113 1318.89 -186.866L1381.07 -203.823ZM1217.74 -204.845L1275.08 -225.751H1090.66L1052.44 -204.845H1217.74ZM1050.57 -203.823H1214.93L1169.62 -187.303H1020.36L1050.57 -203.823ZM1050.31 -204.845L1088.53 -225.751H904.939L885.818 -204.845H1050.31ZM884.883 -203.823H1048.44L1018.23 -187.303H869.773L884.883 -203.823ZM884.433 -204.845L903.554 -225.751H719.941L719.911 -204.845H884.433ZM719.91 -203.823H883.498L868.388 -187.303H719.886L719.91 -203.823ZM718.889 -204.845L718.919 -225.751H534.786L553.845 -204.845H718.889ZM554.777 -203.823H718.888L718.864 -187.303H569.839L554.777 -203.823ZM552.462 -204.845L533.403 -225.751H349.628L387.755 -204.845H552.462ZM389.619 -203.823H553.394L568.456 -187.303H419.748L389.619 -203.823ZM385.629 -204.845L347.502 -225.751H165.829L223.018 -204.845H385.629ZM225.813 -203.823H387.493L417.622 -187.303H271.006L225.813 -203.823ZM222.837 -203.823H56.8927L118.157 -187.116C118.251 -187.23 118.393 -187.303 118.552 -187.303H268.03L222.837 -203.823ZM172.635 -172.26L121.22 -186.281H270.825L309.161 -172.267H172.718C172.69 -172.267 172.662 -172.264 172.635 -172.26ZM312.138 -172.267L273.802 -186.281H419.486L445.044 -172.267H312.138ZM447.17 -172.267L421.612 -186.281H569.388L582.164 -172.267H447.17ZM583.547 -172.267L570.771 -186.281H718.863L718.843 -172.267H583.547ZM719.865 -172.267L719.885 -186.281H867.453L854.635 -172.267H719.865ZM856.02 -172.267L868.838 -186.281H1016.36L990.737 -172.267H856.02ZM992.867 -172.267L1018.49 -186.281H1166.82L1128.38 -172.267H992.867ZM1131.37 -172.267L1169.8 -186.281H1316.74L1265.33 -172.259C1265.3 -172.264 1265.27 -172.267 1265.24 -172.267H1131.37ZM1261.61 -171.245H1128.56L1100.44 -160.989H1220.27C1220.55 -160.989 1220.78 -160.761 1220.78 -160.478C1220.78 -160.296 1220.69 -160.136 1220.54 -160.046L1261.61 -171.245ZM990.998 -171.245H1125.58L1097.45 -160.989H972.246L990.998 -171.245ZM855.086 -171.245H988.868L970.116 -160.989H845.706L855.086 -171.245ZM719.864 -171.245H853.701L844.321 -160.989H719.849L719.864 -171.245ZM584.479 -171.245H718.842L718.827 -160.989H593.828L584.479 -171.245ZM449.034 -171.245H583.096L592.445 -160.989H467.737L449.034 -171.245ZM314.934 -171.245H446.908L465.611 -160.989H342.987L314.934 -171.245ZM311.957 -171.245H176.357L216.161 -160.39C216.158 -160.405 216.156 -160.42 216.155 -160.436C216.154 -160.45 216.153 -160.464 216.153 -160.478C216.153 -160.761 216.382 -160.989 216.664 -160.989H340.011L311.957 -171.245ZM255.316 -149.712L217.711 -159.967H342.807L370.86 -149.712H255.316ZM373.837 -149.712L345.783 -159.967H467.475L486.178 -149.712H373.837ZM488.304 -149.712L469.601 -159.967H593.377L602.727 -149.712H488.304ZM604.11 -149.712L594.76 -159.967H718.826L718.811 -149.712H604.11ZM719.833 -149.712L719.848 -159.967H843.386L834.006 -149.712H719.833ZM835.391 -149.712L844.771 -159.967H968.248L949.496 -149.712H835.391ZM951.626 -149.712L970.377 -159.967H1094.65L1066.52 -149.712H951.626ZM1069.51 -149.712L1097.63 -159.967H1220.25L1182.65 -149.712H1069.51ZM1178.9 -148.69H1066.7L1045.45 -140.941H1150.49L1178.9 -148.69ZM949.757 -148.69H1063.72L1042.47 -140.941H935.587L949.757 -148.69ZM834.456 -148.69H947.627L933.457 -140.941H827.369L834.456 -148.69ZM719.832 -148.69H833.072L825.984 -140.941H719.821L719.832 -148.69ZM605.041 -148.69H718.81L718.799 -140.941H612.106L605.041 -148.69ZM490.167 -148.69H603.658L610.723 -140.941H504.3L490.167 -148.69ZM376.633 -148.69H488.042L502.174 -140.941H397.831L376.633 -148.69ZM373.656 -148.69H259.064L287.48 -140.941H394.854L373.656 -148.69ZM315.475 -133.307L291.227 -139.919H397.65L415.421 -133.423H315.799C315.676 -133.423 315.563 -133.379 315.475 -133.307ZM418.398 -133.423L400.626 -139.919H504.038L515.886 -133.423H418.398ZM518.011 -133.423L506.164 -139.919H611.655L617.577 -133.423H518.011ZM618.96 -133.423L613.038 -139.919H718.798L718.789 -133.423H618.96ZM719.811 -133.423L719.82 -139.919H825.049L819.107 -133.423H719.811ZM820.492 -133.423L826.434 -139.919H931.589L919.71 -133.423H820.492ZM921.84 -133.423L933.719 -139.919H1039.66L1021.85 -133.423H921.84ZM1024.83 -133.423L1042.65 -139.919H1146.74L1122.49 -133.304C1122.4 -133.378 1122.28 -133.423 1122.16 -133.423H1024.83ZM1119.17 -132.401H1022.03L1007.65 -127.158H1097.63C1097.91 -127.158 1098.13 -126.939 1098.14 -126.665L1119.17 -132.401ZM919.971 -132.401H1019.04L1004.66 -127.158H910.384L919.971 -132.401ZM819.558 -132.401H917.841L908.254 -127.158H814.762L819.558 -132.401ZM719.809 -132.401H818.173L813.377 -127.158H719.802L719.809 -132.401ZM619.892 -132.401H718.787L718.78 -127.158H624.672L619.892 -132.401ZM519.875 -132.401H618.509L623.289 -127.158H529.437L519.875 -132.401ZM421.193 -132.401H517.75L527.312 -127.158H435.536L421.193 -132.401ZM418.217 -132.401H318.797L339.816 -126.669C339.828 -126.941 340.052 -127.158 340.326 -127.158H432.559L418.217 -132.401ZM362.322 -120.531L341.771 -126.136H435.355L449.697 -120.893H362.811C362.58 -120.893 362.386 -120.74 362.322 -120.531ZM452.674 -120.893L438.331 -126.136H529.175L538.737 -120.893H452.674ZM540.863 -120.893L531.301 -126.136H624.221L629.001 -120.893H540.863ZM630.384 -120.893L625.604 -126.136H718.778L718.771 -120.893H630.384ZM719.793 -120.893L719.8 -126.136H812.443L807.647 -120.893H719.793ZM809.032 -120.893L813.828 -126.136H906.386L896.799 -120.893H809.032ZM898.929 -120.893L908.516 -126.136H1001.86L987.48 -120.893H898.929ZM990.464 -120.893L1004.84 -126.136H1096.2L1075.64 -120.527C1075.57 -120.739 1075.38 -120.893 1075.15 -120.893H990.464ZM1073.23 -119.871H987.661L976.717 -115.88H1055.73C1056.01 -115.88 1056.24 -115.651 1056.24 -115.369C1056.24 -115.322 1056.23 -115.276 1056.22 -115.233L1073.23 -119.871ZM897.06 -119.871H984.677L973.733 -115.88H889.764L897.06 -119.871ZM808.097 -119.871H894.93L887.634 -115.88H804.448L808.097 -119.871ZM719.792 -119.871H806.712L803.063 -115.88H719.786L719.792 -119.871ZM631.316 -119.871H718.769L718.764 -115.88H634.953L631.316 -119.871ZM542.727 -119.871H629.933L633.57 -115.88H550.004L542.727 -119.871ZM455.47 -119.871H540.601L547.878 -115.88H466.385L455.47 -119.871ZM452.493 -119.871H364.744L381.735 -115.237C381.724 -115.279 381.718 -115.324 381.718 -115.369C381.718 -115.651 381.946 -115.88 382.229 -115.88H463.408L452.493 -119.871ZM399.111 -110.498L383.124 -114.858H466.204L477.119 -110.868H399.603C399.369 -110.868 399.172 -110.712 399.111 -110.498ZM480.095 -110.868L469.181 -114.858H549.742L557.019 -110.868H480.095ZM559.144 -110.868L551.868 -114.858H634.502L638.14 -110.868H559.144ZM639.523 -110.868L635.885 -114.858H718.762L718.757 -110.868H639.523ZM719.779 -110.868L719.784 -114.858H802.128L798.479 -110.868H719.779ZM799.864 -110.868L803.513 -114.858H885.765L878.469 -110.868H799.864ZM880.599 -110.868L887.895 -114.858H970.93L959.987 -110.868H880.599ZM962.971 -110.868L973.914 -114.858H1054.85L1038.85 -110.494C1038.79 -110.71 1038.59 -110.868 1038.35 -110.868H962.971ZM1036.47 -109.846H960.168L949.224 -105.856H1021.84L1036.47 -109.846ZM878.731 -109.846H957.184L946.24 -105.856H871.435L878.731 -109.846ZM798.929 -109.846H876.601L869.305 -105.856H795.279L798.929 -109.846ZM719.777 -109.846H797.544L793.894 -105.856H719.772L719.777 -109.846ZM640.455 -109.846H718.755L718.75 -105.856H644.092L640.455 -109.846ZM561.008 -109.846H639.072L642.709 -105.856H568.285L561.008 -109.846ZM482.891 -109.846H558.883L566.16 -105.856H493.807L482.891 -109.846ZM479.915 -109.846H401.502L416.134 -105.856H490.83L479.915 -109.846ZM429.919 -102.097L419.882 -104.834H493.626L501.113 -102.097H429.919ZM504.09 -102.097L496.602 -104.834H568.024L573.016 -102.097H504.09ZM575.141 -102.097L570.149 -104.834H643.641L646.137 -102.097H575.141ZM647.52 -102.097L645.024 -104.834H718.748L718.744 -102.097H647.52ZM719.766 -102.097L719.77 -104.834H792.96L790.456 -102.097H719.766ZM791.841 -102.097L794.345 -104.834H867.436L862.431 -102.097H791.841ZM864.561 -102.097L869.566 -104.834H943.437L935.93 -102.097H864.561ZM938.913 -102.097L946.421 -104.834H1018.09L1008.05 -102.097H938.913ZM1004.31 -101.075H936.11L928.604 -98.338H994.271L1004.31 -101.075ZM862.692 -101.075H933.127L925.62 -98.338H857.688L862.692 -101.075ZM790.906 -101.075H860.562L855.558 -98.338H788.403L790.906 -101.075ZM719.765 -101.075H789.521L787.018 -98.338H719.761L719.765 -101.075ZM648.451 -101.075H718.743L718.739 -98.338H650.946L648.451 -101.075ZM577.005 -101.075H647.068L649.563 -98.338H581.996L577.005 -101.075ZM506.886 -101.075H574.879L579.871 -98.338H514.373L506.886 -101.075ZM503.909 -101.075H433.667L443.703 -98.338H511.396L503.909 -101.075ZM453.415 -95.6895L447.45 -97.316H514.192L518.252 -95.8319H453.769C453.631 -95.8319 453.507 -95.7777 453.415 -95.6895ZM520.374 -96.1441L517.168 -97.316H581.735L584.441 -95.8319H520.681C520.633 -95.9717 520.524 -96.0893 520.374 -96.1441ZM586.567 -95.8319L583.86 -97.316H650.495L651.848 -95.8319H586.567ZM653.231 -95.8319L651.878 -97.316H718.738L718.736 -95.8319H653.231ZM719.758 -95.8319L719.76 -97.316H786.083L784.726 -95.8319H719.758ZM786.111 -95.8319L787.468 -97.316H853.689L851.082 -95.8904C851.051 -95.8735 851.023 -95.8538 850.997 -95.8319H786.111ZM853.105 -95.8319L855.819 -97.316H922.817L918.747 -95.8319H853.105ZM921.73 -95.8319L925.801 -97.316H990.524L984.545 -95.6857C984.453 -95.7762 984.327 -95.8319 984.188 -95.8319H921.73ZM532.471 -226.773H347.764L299.354 -253.318H508.271L532.471 -226.773ZM718.92 -226.773H533.854L509.654 -253.318H718.957L718.92 -226.773ZM904.489 -226.773H719.942L719.979 -253.318H928.767L904.489 -226.773ZM1090.4 -226.773H905.874L930.152 -253.318H1138.94L1090.4 -226.773ZM1277.88 -226.773H1092.53L1141.07 -253.318H1350.68L1277.88 -226.773ZM163.033 -226.773H345.638L297.228 -253.318H90.4197L163.033 -226.773ZM137.526 -342.052L2.27808 -416.211H359.763L427.373 -342.052H137.526ZM428.756 -342.052L361.146 -416.211H719.187L719.082 -342.052H428.756ZM720.104 -342.052L720.209 -416.211H1077.75L1009.93 -342.052H720.104ZM1011.31 -342.052L1079.14 -416.211H1436.79L1301.19 -342.052H1011.31ZM1299.32 -341.03H1010.38L965.469 -291.931H1209.54L1299.32 -341.03ZM1008.99 -341.03H720.103L720.034 -291.931H964.084L1008.99 -341.03ZM719.081 -341.03H429.688L474.451 -291.931H719.012L719.081 -341.03ZM428.305 -341.03H139.39L228.934 -291.931H473.068L428.305 -341.03ZM87.624 -254.34L-12.4119 -290.909H228.672L295.364 -254.34H87.624ZM297.49 -254.34L230.798 -290.909H474L507.339 -254.34H297.49ZM508.722 -254.34L475.383 -290.909H719.01L718.959 -254.34H508.722ZM719.981 -254.34L720.032 -290.909H963.149L929.702 -254.34H719.981ZM931.087 -254.34L964.534 -290.909H1207.68L1140.81 -254.34H931.087ZM1142.94 -254.34L1209.81 -290.909H1453.78L1353.49 -254.34H1142.94Z" fill="url(#paint0_linear_74_1942)"/>
</g>
<g opacity="0.5" filter="url(#filter1_df_74_1942)">
<circle cx="967" cy="34" r="2" transform="rotate(180 967 34)" fill="white"/>
</g>
<g filter="url(#filter2_df_74_1942)">
<circle cx="1171" cy="48" r="2" transform="rotate(180 1171 48)" fill="white"/>
</g>
<g filter="url(#filter3_df_74_1942)">
<circle cx="360" cy="29" r="2" transform="rotate(180 360 29)" fill="white"/>
</g>
<g filter="url(#filter4_df_74_1942)">
<circle cx="699.5" cy="7.5" r="1.5" transform="rotate(180 699.5 7.5)" fill="white"/>
</g>
<g filter="url(#filter5_df_74_1942)">
<circle cx="783.5" cy="84.5" r="1.5" transform="rotate(180 783.5 84.5)" fill="white"/>
</g>
<g opacity="0.3" filter="url(#filter6_df_74_1942)">
<circle cx="633.5" cy="108.5" r="1.5" transform="rotate(180 633.5 108.5)" fill="white"/>
</g>
<g opacity="0.1" filter="url(#filter7_df_74_1942)">
<circle cx="901.5" cy="106.5" r="1.5" transform="rotate(180 901.5 106.5)" fill="white"/>
</g>
<g filter="url(#filter8_df_74_1942)">
<circle cx="777.5" cy="32.5" r="1.5" transform="rotate(180 777.5 32.5)" fill="white"/>
</g>
<g filter="url(#filter9_d_74_1942)">
<circle cx="776.5" cy="-18.5" r="1.5" transform="rotate(180 776.5 -18.5)" fill="white"/>
</g>
<g filter="url(#filter10_d_74_1942)">
<circle cx="517.5" cy="-15.5" r="1.5" transform="rotate(180 517.5 -15.5)" fill="white"/>
</g>
<g filter="url(#filter11_d_74_1942)">
<circle cx="1017.5" cy="-19.5" r="1.5" transform="rotate(180 1017.5 -19.5)" fill="white"/>
</g>
<g filter="url(#filter12_df_74_1942)">
<circle cx="860.5" cy="0.5" r="1.5" transform="rotate(180 860.5 0.5)" fill="white"/>
</g>
<g filter="url(#filter13_df_74_1942)">
<circle cx="485.5" cy="46.5" r="1.5" transform="rotate(180 485.5 46.5)" fill="white"/>
</g>
<g filter="url(#filter14_df_74_1942)">
<circle cx="587.5" cy="54.5" r="1.5" transform="rotate(180 587.5 54.5)" fill="white"/>
</g>
<g opacity="0.1" filter="url(#filter15_d_74_1942)">
<circle cx="633.5" cy="-7.5" r="1.5" transform="rotate(180 633.5 -7.5)" fill="white"/>
</g>
<g filter="url(#filter16_df_74_1942)">
<circle cx="683.5" cy="71.5" r="2.5" transform="rotate(180 683.5 71.5)" fill="white"/>
</g>
<g filter="url(#filter17_df_74_1942)">
<circle cx="497" cy="95" r="1" transform="rotate(180 497 95)" fill="white"/>
</g>
</g>
<defs>
<filter id="filter0_f_74_1942" x="-21.9512" y="-428.885" width="1481.86" height="812.478" filterUnits="userSpaceOnUse" color-interpolation-filters="sRGB">
<feFlood flood-opacity="0" result="BackgroundImageFix"/>
<feBlend mode="normal" in="SourceGraphic" in2="BackgroundImageFix" result="shape"/>
<feGaussianBlur stdDeviation="0.5" result="effect1_foregroundBlur_74_1942"/>
</filter>
<filter id="filter1_df_74_1942" x="941" y="8" width="52" height="52" filterUnits="userSpaceOnUse" color-interpolation-filters="sRGB">
<feFlood flood-opacity="0" result="BackgroundImageFix"/>
<feColorMatrix in="SourceAlpha" type="matrix" values="0 0 0 0 0 0 0 0 0 0 0 0 0 0 0 0 0 0 127 0" result="hardAlpha"/>
<feOffset/>
<feGaussianBlur stdDeviation="12"/>
<feComposite in2="hardAlpha" operator="out"/>
<feColorMatrix type="matrix" values="0 0 0 0 1 0 0 0 0 1 0 0 0 0 1 0 0 0 0.6 0"/>
<feBlend mode="normal" in2="BackgroundImageFix" result="effect1_dropShadow_74_1942"/>
<feBlend mode="normal" in="SourceGraphic" in2="effect1_dropShadow_74_1942" result="shape"/>
<feGaussianBlur stdDeviation="1" result="effect2_foregroundBlur_74_1942"/>
</filter>
<filter id="filter2_df_74_1942" x="1145" y="22" width="52" height="52" filterUnits="userSpaceOnUse" color-interpolation-filters="sRGB">
<feFlood flood-opacity="0" result="BackgroundImageFix"/>
<feColorMatrix in="SourceAlpha" type="matrix" values="0 0 0 0 0 0 0 0 0 0 0 0 0 0 0 0 0 0 127 0" result="hardAlpha"/>
<feOffset/>
<feGaussianBlur stdDeviation="12"/>
<feComposite in2="hardAlpha" operator="out"/>
<feColorMatrix type="matrix" values="0 0 0 0 1 0 0 0 0 1 0 0 0 0 1 0 0 0 0.6 0"/>
<feBlend mode="normal" in2="BackgroundImageFix" result="effect1_dropShadow_74_1942"/>
<feBlend mode="normal" in="SourceGraphic" in2="effect1_dropShadow_74_1942" result="shape"/>
<feGaussianBlur stdDeviation="1" result="effect2_foregroundBlur_74_1942"/>
</filter>
<filter id="filter3_df_74_1942" x="334" y="3" width="52" height="52" filterUnits="userSpaceOnUse" color-interpolation-filters="sRGB">
<feFlood flood-opacity="0" result="BackgroundImageFix"/>
<feColorMatrix in="SourceAlpha" type="matrix" values="0 0 0 0 0 0 0 0 0 0 0 0 0 0 0 0 0 0 127 0" result="hardAlpha"/>
<feOffset/>
<feGaussianBlur stdDeviation="12"/>
<feComposite in2="hardAlpha" operator="out"/>
<feColorMatrix type="matrix" values="0 0 0 0 1 0 0 0 0 1 0 0 0 0 1 0 0 0 0.6 0"/>
<feBlend mode="normal" in2="BackgroundImageFix" result="effect1_dropShadow_74_1942"/>
<feBlend mode="normal" in="SourceGraphic" in2="effect1_dropShadow_74_1942" result="shape"/>
<feGaussianBlur stdDeviation="1" result="effect2_foregroundBlur_74_1942"/>
</filter>
<filter id="filter4_df_74_1942" x="674" y="-18" width="51" height="51" filterUnits="userSpaceOnUse" color-interpolation-filters="sRGB">
<feFlood flood-opacity="0" result="BackgroundImageFix"/>
<feColorMatrix in="SourceAlpha" type="matrix" values="0 0 0 0 0 0 0 0 0 0 0 0 0 0 0 0 0 0 127 0" result="hardAlpha"/>
<feOffset/>
<feGaussianBlur stdDeviation="12"/>
<feComposite in2="hardAlpha" operator="out"/>
<feColorMatrix type="matrix" values="0 0 0 0 1 0 0 0 0 1 0 0 0 0 1 0 0 0 0.6 0"/>
<feBlend mode="normal" in2="BackgroundImageFix" result="effect1_dropShadow_74_1942"/>
<feBlend mode="normal" in="SourceGraphic" in2="effect1_dropShadow_74_1942" result="shape"/>
<feGaussianBlur stdDeviation="1" result="effect2_foregroundBlur_74_1942"/>
</filter>
<filter id="filter5_df_74_1942" x="758" y="59" width="51" height="51" filterUnits="userSpaceOnUse" color-interpolation-filters="sRGB">
<feFlood flood-opacity="0" result="BackgroundImageFix"/>
<feColorMatrix in="SourceAlpha" type="matrix" values="0 0 0 0 0 0 0 0 0 0 0 0 0 0 0 0 0 0 127 0" result="hardAlpha"/>
<feOffset/>
<feGaussianBlur stdDeviation="12"/>
<feComposite in2="hardAlpha" operator="out"/>
<feColorMatrix type="matrix" values="0 0 0 0 1 0 0 0 0 1 0 0 0 0 1 0 0 0 0.6 0"/>
<feBlend mode="normal" in2="BackgroundImageFix" result="effect1_dropShadow_74_1942"/>
<feBlend mode="normal" in="SourceGraphic" in2="effect1_dropShadow_74_1942" result="shape"/>
<feGaussianBlur stdDeviation="1" result="effect2_foregroundBlur_74_1942"/>
</filter>
<filter id="filter6_df_74_1942" x="608" y="83" width="51" height="51" filterUnits="userSpaceOnUse" color-interpolation-filters="sRGB">
<feFlood flood-opacity="0" result="BackgroundImageFix"/>
<feColorMatrix in="SourceAlpha" type="matrix" values="0 0 0 0 0 0 0 0 0 0 0 0 0 0 0 0 0 0 127 0" result="hardAlpha"/>
<feOffset/>
<feGaussianBlur stdDeviation="12"/>
<feComposite in2="hardAlpha" operator="out"/>
<feColorMatrix type="matrix" values="0 0 0 0 1 0 0 0 0 1 0 0 0 0 1 0 0 0 0.6 0"/>
<feBlend mode="normal" in2="BackgroundImageFix" result="effect1_dropShadow_74_1942"/>
<feBlend mode="normal" in="SourceGraphic" in2="effect1_dropShadow_74_1942" result="shape"/>
<feGaussianBlur stdDeviation="1" result="effect2_foregroundBlur_74_1942"/>
</filter>
<filter id="filter7_df_74_1942" x="876" y="81" width="51" height="51" filterUnits="userSpaceOnUse" color-interpolation-filters="sRGB">
<feFlood flood-opacity="0" result="BackgroundImageFix"/>
<feColorMatrix in="SourceAlpha" type="matrix" values="0 0 0 0 0 0 0 0 0 0 0 0 0 0 0 0 0 0 127 0" result="hardAlpha"/>
<feOffset/>
<feGaussianBlur stdDeviation="12"/>
<feComposite in2="hardAlpha" operator="out"/>
<feColorMatrix type="matrix" values="0 0 0 0 1 0 0 0 0 1 0 0 0 0 1 0 0 0 0.6 0"/>
<feBlend mode="normal" in2="BackgroundImageFix" result="effect1_dropShadow_74_1942"/>
<feBlend mode="normal" in="SourceGraphic" in2="effect1_dropShadow_74_1942" result="shape"/>
<feGaussianBlur stdDeviation="1" result="effect2_foregroundBlur_74_1942"/>
</filter>
<filter id="filter8_df_74_1942" x="752" y="7" width="51" height="51" filterUnits="userSpaceOnUse" color-interpolation-filters="sRGB">
<feFlood flood-opacity="0" result="BackgroundImageFix"/>
<feColorMatrix in="SourceAlpha" type="matrix" values="0 0 0 0 0 0 0 0 0 0 0 0 0 0 0 0 0 0 127 0" result="hardAlpha"/>
<feOffset/>
<feGaussianBlur stdDeviation="12"/>
<feComposite in2="hardAlpha" operator="out"/>
<feColorMatrix type="matrix" values="0 0 0 0 1 0 0 0 0 1 0 0 0 0 1 0 0 0 0.6 0"/>
<feBlend mode="normal" in2="BackgroundImageFix" result="effect1_dropShadow_74_1942"/>
<feBlend mode="normal" in="SourceGraphic" in2="effect1_dropShadow_74_1942" result="shape"/>
<feGaussianBlur stdDeviation="1" result="effect2_foregroundBlur_74_1942"/>
</filter>
<filter id="filter9_d_74_1942" x="751" y="-44" width="51" height="51" filterUnits="userSpaceOnUse" color-interpolation-filters="sRGB">
<feFlood flood-opacity="0" result="BackgroundImageFix"/>
<feColorMatrix in="SourceAlpha" type="matrix" values="0 0 0 0 0 0 0 0 0 0 0 0 0 0 0 0 0 0 127 0" result="hardAlpha"/>
<feOffset/>
<feGaussianBlur stdDeviation="12"/>
<feComposite in2="hardAlpha" operator="out"/>
<feColorMatrix type="matrix" values="0 0 0 0 1 0 0 0 0 1 0 0 0 0 1 0 0 0 0.6 0"/>
<feBlend mode="normal" in2="BackgroundImageFix" result="effect1_dropShadow_74_1942"/>
<feBlend mode="normal" in="SourceGraphic" in2="effect1_dropShadow_74_1942" result="shape"/>
</filter>
<filter id="filter10_d_74_1942" x="492" y="-41" width="51" height="51" filterUnits="userSpaceOnUse" color-interpolation-filters="sRGB">
<feFlood flood-opacity="0" result="BackgroundImageFix"/>
<feColorMatrix in="SourceAlpha" type="matrix" values="0 0 0 0 0 0 0 0 0 0 0 0 0 0 0 0 0 0 127 0" result="hardAlpha"/>
<feOffset/>
<feGaussianBlur stdDeviation="12"/>
<feComposite in2="hardAlpha" operator="out"/>
<feColorMatrix type="matrix" values="0 0 0 0 1 0 0 0 0 1 0 0 0 0 1 0 0 0 0.6 0"/>
<feBlend mode="normal" in2="BackgroundImageFix" result="effect1_dropShadow_74_1942"/>
<feBlend mode="normal" in="SourceGraphic" in2="effect1_dropShadow_74_1942" result="shape"/>
</filter>
<filter id="filter11_d_74_1942" x="992" y="-45" width="51" height="51" filterUnits="userSpaceOnUse" color-interpolation-filters="sRGB">
<feFlood flood-opacity="0" result="BackgroundImageFix"/>
<feColorMatrix in="SourceAlpha" type="matrix" values="0 0 0 0 0 0 0 0 0 0 0 0 0 0 0 0 0 0 127 0" result="hardAlpha"/>
<feOffset/>
<feGaussianBlur stdDeviation="12"/>
<feComposite in2="hardAlpha" operator="out"/>
<feColorMatrix type="matrix" values="0 0 0 0 1 0 0 0 0 1 0 0 0 0 1 0 0 0 0.6 0"/>
<feBlend mode="normal" in2="BackgroundImageFix" result="effect1_dropShadow_74_1942"/>
<feBlend mode="normal" in="SourceGraphic" in2="effect1_dropShadow_74_1942" result="shape"/>
</filter>
<filter id="filter12_df_74_1942" x="835" y="-25" width="51" height="51" filterUnits="userSpaceOnUse" color-interpolation-filters="sRGB">
<feFlood flood-opacity="0" result="BackgroundImageFix"/>
<feColorMatrix in="SourceAlpha" type="matrix" values="0 0 0 0 0 0 0 0 0 0 0 0 0 0 0 0 0 0 127 0" result="hardAlpha"/>
<feOffset/>
<feGaussianBlur stdDeviation="12"/>
<feComposite in2="hardAlpha" operator="out"/>
<feColorMatrix type="matrix" values="0 0 0 0 1 0 0 0 0 1 0 0 0 0 1 0 0 0 0.6 0"/>
<feBlend mode="normal" in2="BackgroundImageFix" result="effect1_dropShadow_74_1942"/>
<feBlend mode="normal" in="SourceGraphic" in2="effect1_dropShadow_74_1942" result="shape"/>
<feGaussianBlur stdDeviation="1" result="effect2_foregroundBlur_74_1942"/>
</filter>
<filter id="filter13_df_74_1942" x="460" y="21" width="51" height="51" filterUnits="userSpaceOnUse" color-interpolation-filters="sRGB">
<feFlood flood-opacity="0" result="BackgroundImageFix"/>
<feColorMatrix in="SourceAlpha" type="matrix" values="0 0 0 0 0 0 0 0 0 0 0 0 0 0 0 0 0 0 127 0" result="hardAlpha"/>
<feOffset/>
<feGaussianBlur stdDeviation="12"/>
<feComposite in2="hardAlpha" operator="out"/>
<feColorMatrix type="matrix" values="0 0 0 0 1 0 0 0 0 1 0 0 0 0 1 0 0 0 0.6 0"/>
<feBlend mode="normal" in2="BackgroundImageFix" result="effect1_dropShadow_74_1942"/>
<feBlend mode="normal" in="SourceGraphic" in2="effect1_dropShadow_74_1942" result="shape"/>
<feGaussianBlur stdDeviation="1" result="effect2_foregroundBlur_74_1942"/>
</filter>
<filter id="filter14_df_74_1942" x="562" y="29" width="51" height="51" filterUnits="userSpaceOnUse" color-interpolation-filters="sRGB">
<feFlood flood-opacity="0" result="BackgroundImageFix"/>
<feColorMatrix in="SourceAlpha" type="matrix" values="0 0 0 0 0 0 0 0 0 0 0 0 0 0 0 0 0 0 127 0" result="hardAlpha"/>
<feOffset/>
<feGaussianBlur stdDeviation="12"/>
<feComposite in2="hardAlpha" operator="out"/>
<feColorMatrix type="matrix" values="0 0 0 0 1 0 0 0 0 1 0 0 0 0 1 0 0 0 0.6 0"/>
<feBlend mode="normal" in2="BackgroundImageFix" result="effect1_dropShadow_74_1942"/>
<feBlend mode="normal" in="SourceGraphic" in2="effect1_dropShadow_74_1942" result="shape"/>
<feGaussianBlur stdDeviation="1" result="effect2_foregroundBlur_74_1942"/>
</filter>
<filter id="filter15_d_74_1942" x="608" y="-33" width="51" height="51" filterUnits="userSpaceOnUse" color-interpolation-filters="sRGB">
<feFlood flood-opacity="0" result="BackgroundImageFix"/>
<feColorMatrix in="SourceAlpha" type="matrix" values="0 0 0 0 0 0 0 0 0 0 0 0 0 0 0 0 0 0 127 0" result="hardAlpha"/>
<feOffset/>
<feGaussianBlur stdDeviation="12"/>
<feComposite in2="hardAlpha" operator="out"/>
<feColorMatrix type="matrix" values="0 0 0 0 1 0 0 0 0 1 0 0 0 0 1 0 0 0 0.6 0"/>
<feBlend mode="normal" in2="BackgroundImageFix" result="effect1_dropShadow_74_1942"/>
<feBlend mode="normal" in="SourceGraphic" in2="effect1_dropShadow_74_1942" result="shape"/>
</filter>
<filter id="filter16_df_74_1942" x="657" y="45" width="53" height="53" filterUnits="userSpaceOnUse" color-interpolation-filters="sRGB">
<feFlood flood-opacity="0" result="BackgroundImageFix"/>
<feColorMatrix in="SourceAlpha" type="matrix" values="0 0 0 0 0 0 0 0 0 0 0 0 0 0 0 0 0 0 127 0" result="hardAlpha"/>
<feOffset/>
<feGaussianBlur stdDeviation="12"/>
<feComposite in2="hardAlpha" operator="out"/>
<feColorMatrix type="matrix" values="0 0 0 0 1 0 0 0 0 1 0 0 0 0 1 0 0 0 0.6 0"/>
<feBlend mode="normal" in2="BackgroundImageFix" result="effect1_dropShadow_74_1942"/>
<feBlend mode="normal" in="SourceGraphic" in2="effect1_dropShadow_74_1942" result="shape"/>
<feGaussianBlur stdDeviation="1" result="effect2_foregroundBlur_74_1942"/>
</filter>
<filter id="filter17_df_74_1942" x="472" y="70" width="50" height="50" filterUnits="userSpaceOnUse" color-interpolation-filters="sRGB">
<feFlood flood-opacity="0" result="BackgroundImageFix"/>
<feColorMatrix in="SourceAlpha" type="matrix" values="0 0 0 0 0 0 0 0 0 0 0 0 0 0 0 0 0 0 127 0" result="hardAlpha"/>
<feOffset/>
<feGaussianBlur stdDeviation="12"/>
<feComposite in2="hardAlpha" operator="out"/>
<feColorMatrix type="matrix" values="0 0 0 0 1 0 0 0 0 1 0 0 0 0 1 0 0 0 0.6 0"/>
<feBlend mode="normal" in2="BackgroundImageFix" result="effect1_dropShadow_74_1942"/>
<feBlend mode="normal" in="SourceGraphic" in2="effect1_dropShadow_74_1942" result="shape"/>
<feGaussianBlur stdDeviation="1" result="effect2_foregroundBlur_74_1942"/>
</filter>
<linearGradient id="paint0_linear_74_1942" x1="718.978" y1="382.593" x2="718.211" y2="80.7003" gradientUnits="userSpaceOnUse">
<stop stop-color="#A158FF"/>
<stop offset="1" stop-color="#4E4FFF" stop-opacity="0"/>
</linearGradient>
<clipPath id="clip0_74_1942">
<rect width="1440" height="332.15" fill="white" transform="matrix(-1 0 0 -1 1440 333)"/>
</clipPath>
</defs>
</svg>
