<svg viewBox="0 0 1440 333" preserveAspectRatio="xMidYMin" fill="none" xmlns="http://www.w3.org/2000/svg">
<g opacity="0.8" clip-path="url(#clip0_74_1995)">
<g opacity="0.5" filter="url(#filter0_f_74_1995)">
<path fill-rule="evenodd" clip-rule="evenodd" d="M1460.89 -49.328C1461.02 -49.0804 1460.93 -48.7699 1460.69 -48.6344L1440.69 -37.6899H1460.44C1460.72 -37.6899 1460.95 -37.4611 1460.95 -37.1789C1460.95 -36.8967 1460.72 -36.6679 1460.44 -36.6679H1438.82L1305.6 36.2384H1460.44C1460.72 36.2384 1460.95 36.4672 1460.95 36.7494C1460.95 37.0316 1460.72 37.2604 1460.44 37.2604H1303.73L1211.73 87.6126H1455.2L1460.26 85.7641C1460.53 85.6673 1460.82 85.8038 1460.92 86.0689C1461.02 86.334 1460.88 86.6274 1460.62 86.7241L1458.18 87.6126H1460.44C1460.72 87.6126 1460.95 87.8414 1460.95 88.1236C1460.95 88.4058 1460.72 88.6346 1460.44 88.6346H1455.38L1358.62 123.95H1460.44C1460.72 123.95 1460.95 124.179 1460.95 124.461C1460.95 124.743 1460.72 124.972 1460.44 124.972H1355.82L1283.09 151.517H1460.44C1460.72 151.517 1460.95 151.746 1460.95 152.028C1460.95 152.31 1460.72 152.539 1460.44 152.539H1280.29L1223.02 173.445H1384.81C1385.07 173.445 1385.29 173.644 1385.32 173.899L1460.31 153.415C1460.58 153.34 1460.86 153.501 1460.93 153.773C1461.01 154.045 1460.85 154.326 1460.57 154.4L1185.9 229.436C1185.8 229.537 1185.67 229.6 1185.52 229.6H1185.3L1025.47 273.262C1025.37 273.38 1025.23 273.456 1025.07 273.456H1024.76L997.853 280.806C997.759 280.909 997.624 280.974 997.474 280.974H997.236L986.366 283.944C986.094 284.018 985.813 283.857 985.738 283.585C985.729 283.55 985.723 283.515 985.721 283.48H921.54L919.976 284.051C919.711 284.148 919.418 284.011 919.321 283.746C919.289 283.658 919.283 283.566 919.298 283.48H853.827L853.616 283.595C853.401 283.713 853.137 283.66 852.983 283.48H787.392L787.318 283.561C787.128 283.77 786.805 283.784 786.596 283.594C786.559 283.56 786.528 283.521 786.503 283.48H721.192C721.103 283.628 720.941 283.727 720.755 283.728C720.569 283.728 720.406 283.629 720.317 283.48H655.541C655.532 283.495 655.522 283.509 655.512 283.523C655.493 283.548 655.472 283.571 655.448 283.593C655.24 283.784 654.917 283.77 654.726 283.562L654.651 283.48H589.183C589.188 283.571 589.168 283.665 589.121 283.75C588.986 283.998 588.676 284.089 588.428 283.954L587.56 283.48H522.513C522.384 283.56 522.221 283.582 522.068 283.527L521.941 283.48H456.323C456.321 283.516 456.315 283.553 456.306 283.589C456.231 283.861 455.95 284.022 455.678 283.947L444.796 280.974H444.571C444.423 280.974 444.289 280.911 444.196 280.81L417.275 273.456H416.976C416.816 273.456 416.672 273.382 416.579 273.266L256.739 229.6H256.522C256.376 229.6 256.243 229.538 256.15 229.439L-18.5308 154.4C-18.803 154.326 -18.9634 154.045 -18.889 153.773C-18.8147 153.501 -18.5337 153.34 -18.2614 153.415L56.7239 173.899C56.7521 173.644 56.9687 173.445 57.2318 173.445H219.661L162.23 152.539H-18.3961C-18.6783 152.539 -18.9071 152.31 -18.9071 152.028C-18.9071 151.746 -18.6783 151.517 -18.3961 151.517H159.422L86.5008 124.972H-18.3961C-18.6783 124.972 -18.9071 124.743 -18.9071 124.461C-18.9071 124.179 -18.6783 123.95 -18.3961 123.95H83.6932L-13.323 88.6346H-18.3961C-18.6783 88.6346 -18.9071 88.4058 -18.9071 88.1236C-18.9071 87.8414 -18.6783 87.6126 -18.3961 87.6126H-16.1306L-18.5709 86.7243C-18.8361 86.6277 -18.9728 86.3345 -18.8763 86.0693C-18.7797 85.8041 -18.4865 85.6674 -18.2213 85.7639L-13.1428 87.6126H228.693L136.438 37.2604H-18.3961C-18.6783 37.2604 -18.9071 37.0316 -18.9071 36.7494C-18.9071 36.4672 -18.6783 36.2384 -18.3961 36.2384H134.566L0.987728 -36.6679H-18.3961C-18.6783 -36.6679 -18.9071 -36.8967 -18.9071 -37.1789C-18.9071 -37.4611 -18.6783 -37.6899 -18.3961 -37.6899H-0.884771L-18.6409 -47.3811C-18.8886 -47.5163 -18.9798 -47.8268 -18.8446 -48.0745C-18.7094 -48.3222 -18.399 -48.4134 -18.1513 -48.2782L1.24847 -37.6899H360.295L350.17 -48.7374C349.979 -48.9454 349.993 -49.2687 350.201 -49.4594C350.409 -49.6501 350.732 -49.636 350.923 -49.4279L361.681 -37.6899H719.774L719.757 -49.0819C719.757 -49.3641 719.985 -49.5932 720.267 -49.5937C720.549 -49.5941 720.779 -49.3656 720.779 -49.0834L720.796 -37.6899H1079.38L1090.1 -49.4273C1090.29 -49.6357 1090.61 -49.6503 1090.82 -49.4599C1091.03 -49.2696 1091.04 -48.9464 1090.85 -48.738L1080.76 -37.6899H1438.56L1460.19 -49.5309C1460.44 -49.6664 1460.75 -49.5755 1460.89 -49.328ZM222.468 174.467H58.8014L121.107 191.488C121.113 191.21 121.339 190.987 121.618 190.987H267.851L222.468 174.467ZM225.456 174.467H387.827L418.095 190.987H270.839L225.456 174.467ZM385.954 173.445H222.649L165.218 152.539H347.651L385.954 173.445ZM389.96 174.467L420.228 190.987H569.88L554.739 174.467H389.96ZM553.802 173.445H388.087L349.784 152.539H534.642L553.802 173.445ZM556.125 174.467L571.266 190.987H720.108L720.084 174.467H556.125ZM720.083 173.445H555.189L536.028 152.539H720.052L720.083 173.445ZM721.106 174.467L721.13 190.987H870.495L885.585 174.467H721.106ZM886.518 173.445H721.105L721.074 152.539H905.614L886.518 173.445ZM886.969 174.467L871.879 190.987H1020.71L1050.89 174.467H886.969ZM1052.76 173.445H887.902L906.999 152.539H1090.96L1052.76 173.445ZM1053.02 174.467L1022.84 190.987H1171.97L1217.24 174.467H1053.02ZM1220.04 173.445H1054.89L1093.09 152.539H1277.31L1220.04 173.445ZM1220.22 174.467L1174.95 190.987H1321.45C1321.63 190.987 1321.79 191.084 1321.88 191.229L1383.24 174.467H1220.22ZM1169.17 192.009H1020.97L995.36 206.024H1130.78L1169.17 192.009ZM1018.84 192.009H870.945L858.144 206.024H993.231L1018.84 192.009ZM869.561 192.009H721.132L721.152 206.024H856.76L869.561 192.009ZM720.11 192.009H572.203L585.048 206.024H720.13L720.11 192.009ZM570.817 192.009H422.101L447.778 206.024H583.661L570.817 192.009ZM419.967 192.009H273.647L312.146 206.024H445.645L419.967 192.009ZM123.015 192.009H270.659L309.158 206.024H174.762C174.677 206.024 174.597 206.044 174.526 206.081L123.015 192.009ZM1319.03 192.009H1172.15L1133.76 206.024H1267.28C1267.37 206.024 1267.45 206.044 1267.52 206.08L1319.03 192.009ZM311.966 207.046H178.056L256.876 228.578H371.118L342.946 218.323H219.73C219.448 218.323 219.219 218.094 219.219 217.812C219.219 217.53 219.448 217.301 219.73 217.301H340.138L311.966 207.046ZM314.954 207.046H447.517L466.307 217.301H343.126L314.954 207.046ZM449.65 207.046L468.44 217.301H593.997L584.598 207.046H449.65ZM585.984 207.046L595.383 217.301H720.147L720.132 207.046H585.984ZM721.154 207.046L721.169 217.301H846.458L855.826 207.046H721.154ZM857.21 207.046L847.843 217.301H972.625L991.364 207.046H857.21ZM993.492 207.046L974.753 217.301H1099.88L1127.98 207.046H993.492ZM1130.96 207.046L1102.86 217.301H1223.34C1223.62 217.301 1223.85 217.53 1223.85 217.812C1223.85 217.887 1223.83 217.958 1223.8 218.022L1263.98 207.046H1130.96ZM1097.08 218.323H972.886L954.147 228.578H1068.98L1097.08 218.323ZM970.757 218.323H846.909L837.542 228.578H952.018L970.757 218.323ZM845.525 218.323H721.171L721.186 228.578H836.157L845.525 218.323ZM720.149 218.323H596.32L605.719 228.578H720.164L720.149 218.323ZM594.934 218.323H470.312L489.102 228.578H604.333L594.934 218.323ZM468.179 218.323H345.933L374.106 228.578H486.969L468.179 218.323ZM1222.7 218.323H1100.06L1071.96 228.578H1185.16L1222.7 218.323ZM373.926 229.6H260.617L289.071 237.373C289.12 237.358 289.172 237.349 289.226 237.349H395.214L373.926 229.6ZM376.913 229.6H488.841L503.039 237.349H398.201L376.913 229.6ZM490.974 229.6L505.172 237.349H612.372L605.269 229.6H490.974ZM606.656 229.6L613.758 237.349H720.176L720.165 229.6H606.656ZM721.187 229.6L721.198 237.349H828.146L835.224 229.6H721.187ZM836.608 229.6L829.53 237.349H935.991L950.151 229.6H836.608ZM952.28 229.6L938.12 237.349H1044.95L1066.18 229.6H952.28ZM1069.16 229.6L1047.93 237.349H1152.82C1152.87 237.349 1152.92 237.357 1152.97 237.372L1181.42 229.6H1069.16ZM1042.15 238.371H936.252L924.383 244.867H1024.35L1042.15 238.371ZM934.124 238.371H828.596L822.663 244.867H922.254L934.124 238.371ZM827.212 238.371H721.2L721.209 244.867H821.278L827.212 238.371ZM720.178 238.371H614.695L620.648 244.867H720.187L720.178 238.371ZM613.308 238.371H507.045L518.947 244.867H619.262L613.308 238.371ZM504.912 238.371H401.009L418.854 244.867H516.814L504.912 238.371ZM292.725 238.371H398.021L415.866 244.867H317.842C317.657 244.867 317.495 244.966 317.405 245.114L292.725 238.371ZM1149.31 238.371H1045.13L1027.33 244.867H1124.2C1124.39 244.867 1124.55 244.965 1124.64 245.112L1149.31 238.371ZM418.674 245.889H320.244L341.884 251.801L341.881 251.792L341.879 251.783C341.876 251.774 341.874 251.764 341.872 251.755L341.869 251.741L341.866 251.725L341.864 251.71L341.862 251.696C341.86 251.678 341.86 251.661 341.86 251.644C341.86 251.361 342.088 251.133 342.371 251.133H433.078L418.674 245.889ZM421.662 245.889H518.686L528.293 251.133H436.065L421.662 245.889ZM520.819 245.889L530.426 251.133H625.004L620.199 245.889H520.819ZM621.585 245.889L626.39 251.133H720.197L720.189 245.889H621.585ZM721.211 245.889L721.219 251.133H815.555L820.345 245.889H721.211ZM821.729 245.889L816.94 251.133H910.805L920.386 245.889H821.729ZM922.515 245.889L912.934 251.133H1007.19L1021.55 245.889H922.515ZM1024.53 245.889L1010.17 251.133H1099.67C1099.96 251.133 1100.18 251.361 1100.18 251.644C1100.18 251.697 1100.18 251.749 1100.16 251.798L1121.79 245.889H1024.53ZM1004.39 252.155H911.067L901.486 257.398H990.02L1004.39 252.155ZM908.938 252.155H816.006L811.217 257.398H899.357L908.938 252.155ZM814.622 252.155H721.22L721.228 257.398H809.833L814.622 252.155ZM720.198 252.155H627.327L632.133 257.398H720.206L720.198 252.155ZM625.941 252.155H532.298L541.905 257.398H630.746L625.941 252.155ZM530.165 252.155H438.873L453.277 257.398H539.772L530.165 252.155ZM343.179 252.155H435.885L450.289 257.398H364.854C364.572 257.398 364.343 257.627 364.343 257.909C364.343 257.918 364.344 257.927 364.344 257.937L343.179 252.155ZM1098.86 252.155H1007.37L993.001 257.398H1077.19C1077.47 257.398 1077.7 257.627 1077.7 257.909C1077.7 257.917 1077.7 257.926 1077.7 257.934L1098.86 252.155ZM453.097 258.42H366.113L383.911 263.282C383.819 263.19 383.761 263.062 383.761 262.921C383.761 262.639 383.99 262.41 384.272 262.41H464.058L453.097 258.42ZM456.084 258.42H541.644L548.955 262.41H467.045L456.084 258.42ZM543.777 258.42L551.088 262.41H635.34L631.683 258.42H543.777ZM633.069 258.42L636.726 262.41H720.213L720.207 258.42H633.069ZM721.229 258.42L721.235 262.41H805.254L808.899 258.42H721.229ZM810.283 258.42L806.639 262.41H890.199L897.49 258.42H810.283ZM899.619 258.42L892.328 262.41H976.288L987.22 258.42H899.619ZM990.201 258.42L979.269 262.41H1057.77C1058.05 262.41 1058.28 262.639 1058.28 262.921C1058.28 263.06 1058.23 263.186 1058.14 263.278L1075.92 258.42H990.201ZM973.488 263.432H890.461L883.169 267.422H962.555L973.488 263.432ZM888.332 263.432H805.705L802.06 267.422H881.04L888.332 263.432ZM804.321 263.432H721.237L721.242 267.422H800.676L804.321 263.432ZM720.215 263.432H637.663L641.32 267.422H720.22L720.215 263.432ZM636.276 263.432H552.96L560.271 267.422H639.934L636.276 263.432ZM550.827 263.432H469.853L480.815 267.422H558.138L550.827 263.432ZM384.459 263.432H466.865L477.827 267.422H401.646C401.364 267.422 401.135 267.651 401.135 267.933C401.135 267.952 401.136 267.97 401.138 267.988L384.459 263.432ZM1057.57 263.432H976.469L965.536 267.422H1040.4C1040.68 267.422 1040.91 267.651 1040.91 267.933C1040.91 267.951 1040.91 267.968 1040.91 267.985L1057.57 263.432ZM480.634 268.444H402.806L417.412 272.434H491.595L480.634 268.444ZM483.622 268.444H560.01L567.321 272.434H494.583L483.622 268.444ZM562.144 268.444L569.454 272.434H644.527L640.87 268.444H562.144ZM642.257 268.444L645.914 272.434H720.228L720.222 268.444H642.257ZM721.244 268.444L721.25 272.434H796.098L799.743 268.444H721.244ZM801.127 268.444L797.482 272.434H871.882L879.173 268.444H801.127ZM881.302 268.444L874.011 272.434H948.823L959.755 268.444H881.302ZM962.736 268.444L951.804 272.434H1024.62L1039.23 268.444H962.736ZM946.023 273.456H872.144L867.142 276.193H938.524L946.023 273.456ZM870.015 273.456H796.549L794.049 276.193H865.014L870.015 273.456ZM795.164 273.456H721.251L721.255 276.193H792.664L795.164 273.456ZM720.229 273.456H646.85L649.359 276.193H720.233L720.229 273.456ZM645.464 273.456H571.327L576.341 276.193H647.972L645.464 273.456ZM569.193 273.456H497.391L504.909 276.193H574.208L569.193 273.456ZM421.153 273.456H494.403L501.922 276.193H431.285C431.255 276.193 431.226 276.195 431.198 276.2L421.153 273.456ZM1020.88 273.456H949.004L941.505 276.193H1010.76C1010.79 276.193 1010.81 276.195 1010.84 276.199L1020.88 273.456ZM504.729 277.215H434.913L444.933 279.952H512.249L504.729 277.215ZM507.717 277.215H576.081L581.096 279.952H515.237L507.717 277.215ZM578.214 277.215L583.229 279.952H651.418L648.909 277.215H578.214ZM650.295 277.215L652.804 279.952H720.239L720.235 277.215H650.295ZM721.257 277.215L721.261 279.952H789.23L791.731 277.215H721.257ZM793.115 277.215L790.615 279.952H858.144L863.146 277.215H793.115ZM865.275 277.215L860.273 279.952H928.225L935.724 277.215H865.275ZM938.705 277.215L931.206 279.952H997.098L1007.12 277.215H938.705ZM925.425 280.974H858.406L855.694 282.458H921.359L925.425 280.974ZM856.277 280.974H789.681L788.326 282.458H853.565L856.277 280.974ZM788.297 280.974H721.262L721.264 282.458H786.941L788.297 280.974ZM720.24 280.974H653.741L655.101 282.458H720.242L720.24 280.974ZM652.354 280.974H585.101L587.82 282.458H653.714L652.354 280.974ZM582.968 280.974H518.044L522.121 282.458H585.687L582.968 280.974ZM448.674 280.974H515.056L519.133 282.458H455.812C455.592 282.458 455.404 282.598 455.332 282.793L448.674 280.974ZM993.357 280.974H928.406L924.34 282.458H986.231C986.45 282.458 986.637 282.596 986.71 282.79L993.357 280.974ZM1436.69 -36.6679H1079.83L1013.23 36.2384H1303.47L1436.69 -36.6679ZM1078.44 -36.6679H720.797L720.904 36.2384H1011.85L1078.44 -36.6679ZM719.775 -36.6679H362.618L429.437 36.2384H719.882L719.775 -36.6679ZM361.231 -36.6679H3.12097L136.699 36.2384H428.051L361.231 -36.6679ZM1012.3 37.2604H1301.6L1209.6 87.6126H966.305L1012.3 37.2604ZM720.905 37.2604H1010.91L964.921 87.6126H720.979L720.905 37.2604ZM430.374 37.2604H719.883L719.957 87.6126H476.522L430.374 37.2604ZM138.572 37.2604H428.988L475.136 87.6126H230.826L138.572 37.2604ZM1207.73 88.6346H965.371L933.113 123.95H1143.2L1207.73 88.6346ZM963.987 88.6346H720.981L721.032 123.95H931.728L963.987 88.6346ZM719.959 88.6346H477.459L509.826 123.95H720.01L719.959 88.6346ZM476.073 88.6346H232.699L297.404 123.95H508.44L476.073 88.6346ZM230.566 88.6346H-10.3352L86.681 123.95H295.271L230.566 88.6346ZM1452.4 88.6346H1209.86L1145.33 123.95H1355.64L1452.4 88.6346ZM932.179 124.972H1141.33L1092.83 151.517H907.932L932.179 124.972ZM721.034 124.972H930.795L906.548 151.517H721.073L721.034 124.972ZM510.763 124.972H720.012L720.051 151.517H535.091L510.763 124.972ZM299.276 124.972H509.377L533.705 151.517H347.911L299.276 124.972ZM89.4886 124.972H297.143L345.778 151.517H162.41L89.4886 124.972ZM1352.84 124.972H1143.46L1094.96 151.517H1280.11L1352.84 124.972ZM853.06 427.809C853.215 427.69 853.433 427.666 853.617 427.767L853.695 427.809H985.788C985.9 427.612 986.136 427.507 986.366 427.57L996.434 430.316H997.474C997.725 430.316 997.934 430.497 997.977 430.736L1010.22 434.074H1010.76C1010.95 434.074 1011.12 434.184 1011.21 434.345L1024 437.834H1025.07C1025.32 437.834 1025.53 438.019 1025.57 438.261L1152.66 472.918H1152.82C1152.95 472.918 1153.08 472.971 1153.17 473.058L1184.82 481.69H1185.52C1185.74 481.69 1185.92 481.822 1186 482.01L1460.57 556.889C1460.85 556.964 1461.01 557.244 1460.93 557.517C1460.86 557.789 1460.58 557.95 1460.31 557.875L1385.31 537.425C1385.27 537.664 1385.06 537.845 1384.81 537.845H1219.96L1277.15 558.751H1460.44C1460.72 558.751 1460.95 558.98 1460.95 559.262C1460.95 559.544 1460.72 559.773 1460.44 559.773H1279.94L1352.56 586.317H1460.44C1460.72 586.317 1460.95 586.546 1460.95 586.828C1460.95 587.11 1460.72 587.339 1460.44 587.339H1355.35L1455.39 623.908H1460.44C1460.72 623.908 1460.95 624.137 1460.95 624.419C1460.95 624.701 1460.72 624.93 1460.44 624.93H1458.18L1460.62 625.819C1460.88 625.916 1461.02 626.209 1460.92 626.474C1460.82 626.739 1460.53 626.876 1460.26 626.779L1455.21 624.93H1213.19L1302.74 674.029H1460.44C1460.72 674.029 1460.95 674.258 1460.95 674.54C1460.95 674.823 1460.72 675.051 1460.44 675.051H1304.6L1439.85 749.211H1460.44C1460.72 749.211 1460.95 749.44 1460.95 749.722C1460.95 750.004 1460.72 750.233 1460.44 750.233H1441.71L1459.39 759.925C1459.63 760.061 1459.73 760.371 1459.59 760.619C1459.45 760.866 1459.14 760.957 1458.9 760.821L1439.59 750.233H1081.17L1090.1 760.029C1090.29 760.237 1090.27 760.56 1090.07 760.751C1089.86 760.941 1089.53 760.926 1089.34 760.717L1079.79 750.233H720.812L720.797 760.374C720.797 760.656 720.568 760.884 720.286 760.884C720.003 760.884 719.775 760.655 719.775 760.372L719.79 750.233H361.31L351.72 760.718C351.53 760.926 351.207 760.941 350.999 760.75C350.79 760.56 350.776 760.236 350.966 760.028L359.925 750.233H1.33832L-18.0227 760.821C-18.2703 760.957 -18.5808 760.866 -18.7162 760.618C-18.8516 760.371 -18.7606 760.06 -18.513 759.925L-0.79163 750.233H-18.3961C-18.6783 750.233 -18.9071 750.004 -18.9071 749.722C-18.9071 749.44 -18.6783 749.211 -18.3961 749.211H1.07706L136.679 675.051H-18.3961C-18.6783 675.051 -18.9071 674.823 -18.9071 674.54C-18.9071 674.258 -18.6783 674.029 -18.3961 674.029H138.548L228.326 624.93H-16.5869L-18.221 625.526C-18.4862 625.623 -18.7795 625.486 -18.8762 625.221C-18.9386 625.05 -18.9037 624.867 -18.7998 624.732C-18.867 624.646 -18.9071 624.537 -18.9071 624.419C-18.9071 624.137 -18.6783 623.908 -18.3961 623.908H-16.7675L83.5302 587.339H-18.3961C-18.6783 587.339 -18.9071 587.11 -18.9071 586.828C-18.9071 586.546 -18.6783 586.317 -18.3961 586.317H86.3332L159.137 559.773H-18.3961C-18.6783 559.773 -18.9071 559.544 -18.9071 559.262C-18.9071 558.98 -18.6783 558.751 -18.3961 558.751H161.94L219.278 537.845H57.2318C56.9804 537.845 56.7714 537.663 56.7288 537.424L-18.2616 557.875C-18.5339 557.95 -18.8148 557.789 -18.8891 557.517C-18.9633 557.244 -18.8028 556.964 -18.5305 556.889L256.049 482.007C256.126 481.821 256.309 481.69 256.522 481.69H257.213L288.881 473.053C288.972 472.97 289.093 472.918 289.226 472.918H289.375L416.473 438.257C416.515 438.016 416.724 437.834 416.976 437.834H418.025L430.836 434.34C430.923 434.182 431.091 434.074 431.285 434.074H431.809L444.069 430.731C444.113 430.494 444.321 430.316 444.571 430.316H445.592L455.678 427.565C455.91 427.502 456.148 427.608 456.259 427.809H521.073L522.068 427.447C522.333 427.35 522.626 427.487 522.723 427.752C522.726 427.76 522.729 427.769 522.731 427.777C522.735 427.788 522.737 427.799 522.74 427.809H654.865C655.013 427.732 655.191 427.731 655.341 427.809H720.317C720.407 427.661 720.569 427.562 720.755 427.563C720.94 427.563 721.102 427.662 721.192 427.809H786.703C786.852 427.731 787.031 427.732 787.179 427.809H853.06ZM58.9337 536.823H222.082L267.393 520.302H121.618C121.361 520.302 121.148 520.113 121.112 519.866L58.9337 536.823ZM222.262 537.845L164.923 558.751H349.336L387.563 537.845H222.262ZM389.431 536.823H225.065L270.376 520.302H419.639L389.431 536.823ZM389.693 537.845L351.466 558.751H535.061L554.182 537.845H389.693ZM555.117 536.823H391.561L421.769 520.302H570.227L555.117 536.823ZM555.567 537.845L536.446 558.751H720.059L720.089 537.845H555.567ZM720.09 536.823H556.502L571.612 520.302H720.114L720.09 536.823ZM721.111 537.845L721.081 558.751H905.214L886.155 537.845H721.111ZM885.223 536.823H721.112L721.136 520.302H870.161L885.223 536.823ZM887.538 537.845L906.597 558.751H1090.37L1052.25 537.845H887.538ZM1050.38 536.823H886.606L871.544 520.302H1020.25L1050.38 536.823ZM1054.37 537.845L1092.5 558.751H1274.17L1216.98 537.845H1054.37ZM1214.19 536.823H1052.51L1022.38 520.302H1168.99L1214.19 536.823ZM1217.16 536.823H1383.11L1321.84 520.116C1321.75 520.23 1321.61 520.302 1321.45 520.302H1171.97L1217.16 536.823ZM1267.37 505.259L1318.78 519.28H1169.17L1130.84 505.266H1267.28C1267.31 505.266 1267.34 505.264 1267.37 505.259ZM1127.86 505.266L1166.2 519.28H1020.51L994.956 505.266H1127.86ZM992.83 505.266L1018.39 519.28H870.612L857.836 505.266H992.83ZM856.453 505.266L869.229 519.28H721.137L721.157 505.266H856.453ZM720.135 505.266L720.115 519.28H572.547L585.365 505.266H720.135ZM583.98 505.266L571.162 519.28H423.638L449.263 505.266H583.98ZM447.133 505.266L421.508 519.28H273.179L311.616 505.266H447.133ZM308.632 505.266L270.196 519.28H123.259L174.674 505.259C174.703 505.263 174.732 505.266 174.762 505.266H308.632ZM178.394 504.244H311.435L339.562 493.989H219.73C219.448 493.989 219.219 493.76 219.219 493.478C219.219 493.296 219.315 493.136 219.459 493.045L178.394 504.244ZM449.002 504.244H314.419L342.546 493.989H467.754L449.002 504.244ZM584.914 504.244H451.132L469.884 493.989H594.294L584.914 504.244ZM720.136 504.244H586.299L595.679 493.989H720.151L720.136 504.244ZM855.521 504.244H721.158L721.173 493.989H846.172L855.521 504.244ZM990.966 504.244H856.904L847.555 493.989H972.263L990.966 504.244ZM1125.07 504.244H993.092L974.389 493.989H1097.01L1125.07 504.244ZM1128.04 504.244H1263.64L1223.84 493.389C1223.84 493.405 1223.84 493.42 1223.84 493.435C1223.85 493.449 1223.85 493.464 1223.85 493.478C1223.85 493.76 1223.62 493.989 1223.34 493.989H1099.99L1128.04 504.244ZM1184.68 482.712L1222.29 492.967H1097.19L1069.14 482.712H1184.68ZM1066.16 482.712L1094.22 492.967H972.525L953.822 482.712H1066.16ZM951.696 482.712L970.399 492.967H846.623L837.273 482.712H951.696ZM835.89 482.712L845.24 492.967H721.174L721.189 482.712H835.89ZM720.167 482.712L720.152 492.967H596.614L605.994 482.712H720.167ZM604.609 482.712L595.229 492.967H471.752L490.504 482.712H604.609ZM488.374 482.712L469.623 492.967H345.349L373.476 482.712H488.374ZM370.492 482.712L342.365 492.967H219.745L257.35 482.712H370.492ZM261.097 481.69H373.296L394.549 473.94H289.512L261.097 481.69ZM490.243 481.69H376.279L397.533 473.94H504.413L490.243 481.69ZM605.544 481.69H492.373L506.543 473.94H612.631L605.544 481.69ZM720.168 481.69H606.928L614.016 473.94H720.179L720.168 481.69ZM834.959 481.69H721.19L721.201 473.94H827.894L834.959 481.69ZM949.833 481.69H836.342L829.277 473.94H935.7L949.833 481.69ZM1063.37 481.69H951.958L937.826 473.94H1042.17L1063.37 481.69ZM1066.34 481.69H1180.94L1152.52 473.94H1045.15L1066.34 481.69ZM1124.53 466.306L1148.77 472.918H1042.35L1024.58 466.422H1124.2C1124.32 466.422 1124.44 466.379 1124.53 466.306ZM1021.6 466.422L1039.37 472.918H935.962L924.114 466.422H1021.6ZM921.989 466.422L933.836 472.918H828.345L822.423 466.422H921.989ZM821.04 466.422L826.962 472.918H721.202L721.211 466.422H821.04ZM720.189 466.422L720.18 472.918H614.951L620.893 466.422H720.189ZM619.508 466.422L613.566 472.918H508.411L520.29 466.422H619.508ZM518.16 466.422L506.281 472.918H400.336L418.153 466.422H518.16ZM415.17 466.422L397.352 472.918H293.259L317.515 466.304C317.604 466.378 317.718 466.422 317.842 466.422H415.17ZM320.828 465.4H417.973L432.353 460.157H342.371C342.094 460.157 341.869 459.938 341.86 459.664L320.828 465.4ZM520.029 465.4H420.956L435.336 460.157H529.616L520.029 465.4ZM620.442 465.4H522.159L531.746 460.157H625.238L620.442 465.4ZM720.191 465.4H621.827L626.623 460.157H720.198L720.191 465.4ZM820.108 465.4H721.213L721.22 460.157H815.328L820.108 465.4ZM920.125 465.4H821.491L816.711 460.157H910.563L920.125 465.4ZM1018.81 465.4H922.25L912.688 460.157H1004.46L1018.81 465.4ZM1021.78 465.4H1121.2L1100.18 459.668C1100.17 459.94 1099.95 460.157 1099.67 460.157H1007.44L1021.78 465.4ZM1077.68 453.531L1098.23 459.135H1004.65L990.303 453.892H1077.19C1077.42 453.892 1077.61 453.74 1077.68 453.531ZM987.326 453.892L1001.67 459.135H910.825L901.263 453.892H987.326ZM899.137 453.892L908.699 459.135H815.779L810.999 453.892H899.137ZM809.616 453.892L814.396 459.135H721.222L721.229 453.892H809.616ZM720.207 453.892L720.2 459.135H627.557L632.353 453.892H720.207ZM630.968 453.892L626.172 459.135H533.614L543.201 453.892H630.968ZM541.071 453.892L531.484 459.135H438.139L452.52 453.892H541.071ZM449.536 453.892L435.156 459.135H343.8L364.365 453.527C364.427 453.738 364.623 453.892 364.854 453.892H449.536ZM366.773 452.87H452.339L463.283 448.88H384.272C383.99 448.88 383.761 448.651 383.761 448.369C383.761 448.321 383.768 448.276 383.78 448.232L366.773 452.87ZM542.94 452.87H455.323L466.267 448.88H550.236L542.94 452.87ZM631.903 452.87H545.07L552.366 448.88H635.552L631.903 452.87ZM720.208 452.87H633.288L636.937 448.88H720.214L720.208 452.87ZM808.684 452.87H721.231L721.236 448.88H805.047L808.684 452.87ZM897.273 452.87H810.067L806.43 448.88H889.996L897.273 452.87ZM984.53 452.87H899.399L892.122 448.88H973.615L984.53 452.87ZM987.507 452.87H1075.26L1058.27 448.237C1058.28 448.279 1058.28 448.323 1058.28 448.369C1058.28 448.651 1058.05 448.88 1057.77 448.88H976.592L987.507 452.87ZM1040.89 443.498L1056.88 447.858H973.796L962.881 443.868H1040.4C1040.63 443.868 1040.83 443.711 1040.89 443.498ZM959.905 443.868L970.819 447.858H890.258L882.981 443.868H959.905ZM880.856 443.868L888.132 447.858H805.498L801.86 443.868H880.856ZM800.477 443.868L804.115 447.858H721.238L721.243 443.868H800.477ZM720.221 443.868L720.216 447.858H637.872L641.521 443.868H720.221ZM640.136 443.868L636.487 447.858H554.235L561.531 443.868H640.136ZM559.401 443.868L552.105 447.858H469.07L480.013 443.868H559.401ZM477.029 443.868L466.086 447.858H385.152L401.154 443.494C401.214 443.71 401.412 443.868 401.646 443.868H477.029ZM403.53 442.846H479.832L490.776 438.856H418.162L403.53 442.846ZM561.269 442.846H482.816L493.76 438.856H568.565L561.269 442.846ZM641.071 442.846H563.399L570.695 438.856H644.721L641.071 442.846ZM720.223 442.846H642.456L646.106 438.856H720.228L720.223 442.846ZM799.545 442.846H721.245L721.25 438.856H795.908L799.545 442.846ZM878.992 442.846H800.928L797.291 438.856H871.715L878.992 442.846ZM957.109 442.846H881.117L873.84 438.856H946.193L957.109 442.846ZM960.085 442.846H1038.5L1023.87 438.856H949.17L960.085 442.846ZM1010.08 435.096L1020.12 437.834H946.374L938.887 435.096H1010.08ZM935.91 435.096L943.398 437.834H871.976L866.984 435.096H935.91ZM864.859 435.096L869.851 437.834H796.359L793.863 435.096H864.859ZM792.48 435.096L794.976 437.834H721.252L721.256 435.096H792.48ZM720.234 435.096L720.23 437.834H647.04L649.544 435.096H720.234ZM648.159 435.096L645.655 437.834H572.564L577.569 435.096H648.159ZM575.439 435.096L570.434 437.834H496.563L504.07 435.096H575.439ZM501.087 435.096L493.579 437.834H421.909L431.946 435.096H501.087ZM435.693 434.074H503.89L511.396 431.338H445.729L435.693 434.074ZM577.308 434.074H506.873L514.38 431.338H582.312L577.308 434.074ZM649.094 434.074H579.438L584.442 431.338H651.597L649.094 434.074ZM720.235 434.074H650.479L652.982 431.338H720.239L720.235 434.074ZM791.549 434.074H721.257L721.261 431.338H789.054L791.549 434.074ZM862.995 434.074H792.932L790.437 431.338H858.004L862.995 434.074ZM933.114 434.074H865.121L860.129 431.338H925.627L933.114 434.074ZM936.091 434.074H1006.33L996.297 431.338H928.604L936.091 434.074ZM986.585 428.689L992.55 430.316H925.808L921.748 428.831H986.231C986.369 428.831 986.493 428.777 986.585 428.689ZM919.626 429.144L922.832 430.316H858.265L855.559 428.831H919.319C919.367 428.971 919.476 429.089 919.626 429.144ZM853.433 428.831L856.14 430.316H789.505L788.152 428.831H853.433ZM786.769 428.831L788.122 430.316H721.262L721.264 428.831H786.769ZM720.242 428.831L720.24 430.316H653.917L655.274 428.831H720.242ZM653.889 428.831L652.532 430.316H586.311L588.918 428.89C588.949 428.873 588.977 428.853 589.003 428.831H653.889ZM586.895 428.831L584.181 430.316H517.183L521.253 428.831H586.895ZM518.27 428.831L514.199 430.316H449.476L455.455 428.685C455.547 428.776 455.673 428.831 455.812 428.831H518.27ZM907.529 559.773H1092.24L1140.65 586.317H931.729L907.529 559.773ZM721.08 559.773H906.146L930.346 586.317H721.043L721.08 559.773ZM535.511 559.773H720.058L720.021 586.317H511.233L535.511 559.773ZM349.597 559.773H534.126L509.848 586.317H301.06L349.597 559.773ZM162.12 559.773H347.467L298.93 586.317H89.3168L162.12 559.773ZM1276.97 559.773H1094.36L1142.77 586.317H1349.58L1276.97 559.773ZM1302.47 675.051L1437.72 749.211H1080.24L1012.63 675.051H1302.47ZM1011.24 675.051L1078.85 749.211H720.813L720.918 675.051H1011.24ZM719.896 675.051L719.791 749.211H362.245L430.074 675.051H719.896ZM428.689 675.051L360.86 749.211H3.20701L138.809 675.051H428.689ZM140.677 674.029H429.624L474.531 624.93H230.456L140.677 674.029ZM431.009 674.029H719.897L719.966 624.93H475.916L431.009 674.029ZM720.919 674.029H1010.31L965.549 624.93H720.988L720.919 674.029ZM1011.69 674.029H1300.61L1211.07 624.93H966.932L1011.69 674.029ZM1352.38 587.339L1452.41 623.908H1211.33L1144.64 587.339H1352.38ZM1142.51 587.339L1209.2 623.908H966L932.661 587.339H1142.51ZM931.278 587.339L964.617 623.908H720.99L721.041 587.339H931.278ZM720.019 587.339L719.968 623.908H476.851L510.298 587.339H720.019ZM508.913 587.339L475.466 623.908H232.325L299.192 587.339H508.913ZM297.062 587.339L230.195 623.908H-13.7839L86.5139 587.339H297.062Z" fill="url(#paint0_linear_74_1995)"/>
</g>
<g opacity="0.5" filter="url(#filter1_df_74_1995)">
<circle cx="473" cy="259" r="2" fill="white"/>
</g>
<g filter="url(#filter2_df_74_1995)">
<circle cx="269" cy="245" r="2" fill="white"/>
</g>
<g filter="url(#filter3_df_74_1995)">
<circle cx="1080" cy="264" r="2" fill="white"/>
</g>
<g filter="url(#filter4_df_74_1995)">
<circle cx="740.5" cy="285.5" r="1.5" fill="white"/>
</g>
<g filter="url(#filter5_df_74_1995)">
<circle cx="656.5" cy="208.5" r="1.5" fill="white"/>
</g>
<g opacity="0.3" filter="url(#filter6_df_74_1995)">
<circle cx="806.5" cy="184.5" r="1.5" fill="white"/>
</g>
<g opacity="0.1" filter="url(#filter7_df_74_1995)">
<circle cx="538.5" cy="186.5" r="1.5" fill="white"/>
</g>
<g filter="url(#filter8_df_74_1995)">
<circle cx="662.5" cy="260.5" r="1.5" fill="white"/>
</g>
<g filter="url(#filter9_df_74_1995)">
<circle cx="663.5" cy="311.5" r="1.5" fill="white"/>
</g>
<g filter="url(#filter10_df_74_1995)">
<circle cx="922.5" cy="308.5" r="1.5" fill="white"/>
</g>
<g filter="url(#filter11_df_74_1995)">
<circle cx="422.5" cy="312.5" r="1.5" fill="white"/>
</g>
<g filter="url(#filter12_df_74_1995)">
<circle cx="579.5" cy="292.5" r="1.5" fill="white"/>
</g>
<g filter="url(#filter13_df_74_1995)">
<circle cx="954.5" cy="246.5" r="1.5" fill="white"/>
</g>
<g filter="url(#filter14_df_74_1995)">
<circle cx="852.5" cy="238.5" r="1.5" fill="white"/>
</g>
<g opacity="0.1" filter="url(#filter15_df_74_1995)">
<circle cx="806.5" cy="300.5" r="1.5" fill="white"/>
</g>
<g filter="url(#filter16_df_74_1995)">
<circle cx="756.5" cy="221.5" r="2.5" fill="white"/>
</g>
<g filter="url(#filter17_df_74_1995)">
<circle cx="943" cy="198" r="1" fill="white"/>
</g>
</g>
<defs>
<filter id="filter0_f_74_1995" x="-19.9072" y="-50.5938" width="1481.86" height="812.478" filterUnits="userSpaceOnUse" color-interpolation-filters="sRGB">
<feFlood flood-opacity="0" result="BackgroundImageFix"/>
<feBlend mode="normal" in="SourceGraphic" in2="BackgroundImageFix" result="shape"/>
<feGaussianBlur stdDeviation="0.5" result="effect1_foregroundBlur_74_1995"/>
</filter>
<filter id="filter1_df_74_1995" x="447" y="233" width="52" height="52" filterUnits="userSpaceOnUse" color-interpolation-filters="sRGB">
<feFlood flood-opacity="0" result="BackgroundImageFix"/>
<feColorMatrix in="SourceAlpha" type="matrix" values="0 0 0 0 0 0 0 0 0 0 0 0 0 0 0 0 0 0 127 0" result="hardAlpha"/>
<feOffset/>
<feGaussianBlur stdDeviation="12"/>
<feComposite in2="hardAlpha" operator="out"/>
<feColorMatrix type="matrix" values="0 0 0 0 1 0 0 0 0 1 0 0 0 0 1 0 0 0 0.6 0"/>
<feBlend mode="normal" in2="BackgroundImageFix" result="effect1_dropShadow_74_1995"/>
<feBlend mode="normal" in="SourceGraphic" in2="effect1_dropShadow_74_1995" result="shape"/>
<feGaussianBlur stdDeviation="1" result="effect2_foregroundBlur_74_1995"/>
</filter>
<filter id="filter2_df_74_1995" x="243" y="219" width="52" height="52" filterUnits="userSpaceOnUse" color-interpolation-filters="sRGB">
<feFlood flood-opacity="0" result="BackgroundImageFix"/>
<feColorMatrix in="SourceAlpha" type="matrix" values="0 0 0 0 0 0 0 0 0 0 0 0 0 0 0 0 0 0 127 0" result="hardAlpha"/>
<feOffset/>
<feGaussianBlur stdDeviation="12"/>
<feComposite in2="hardAlpha" operator="out"/>
<feColorMatrix type="matrix" values="0 0 0 0 1 0 0 0 0 1 0 0 0 0 1 0 0 0 0.6 0"/>
<feBlend mode="normal" in2="BackgroundImageFix" result="effect1_dropShadow_74_1995"/>
<feBlend mode="normal" in="SourceGraphic" in2="effect1_dropShadow_74_1995" result="shape"/>
<feGaussianBlur stdDeviation="1" result="effect2_foregroundBlur_74_1995"/>
</filter>
<filter id="filter3_df_74_1995" x="1054" y="238" width="52" height="52" filterUnits="userSpaceOnUse" color-interpolation-filters="sRGB">
<feFlood flood-opacity="0" result="BackgroundImageFix"/>
<feColorMatrix in="SourceAlpha" type="matrix" values="0 0 0 0 0 0 0 0 0 0 0 0 0 0 0 0 0 0 127 0" result="hardAlpha"/>
<feOffset/>
<feGaussianBlur stdDeviation="12"/>
<feComposite in2="hardAlpha" operator="out"/>
<feColorMatrix type="matrix" values="0 0 0 0 1 0 0 0 0 1 0 0 0 0 1 0 0 0 0.6 0"/>
<feBlend mode="normal" in2="BackgroundImageFix" result="effect1_dropShadow_74_1995"/>
<feBlend mode="normal" in="SourceGraphic" in2="effect1_dropShadow_74_1995" result="shape"/>
<feGaussianBlur stdDeviation="1" result="effect2_foregroundBlur_74_1995"/>
</filter>
<filter id="filter4_df_74_1995" x="715" y="260" width="51" height="51" filterUnits="userSpaceOnUse" color-interpolation-filters="sRGB">
<feFlood flood-opacity="0" result="BackgroundImageFix"/>
<feColorMatrix in="SourceAlpha" type="matrix" values="0 0 0 0 0 0 0 0 0 0 0 0 0 0 0 0 0 0 127 0" result="hardAlpha"/>
<feOffset/>
<feGaussianBlur stdDeviation="12"/>
<feComposite in2="hardAlpha" operator="out"/>
<feColorMatrix type="matrix" values="0 0 0 0 1 0 0 0 0 1 0 0 0 0 1 0 0 0 0.6 0"/>
<feBlend mode="normal" in2="BackgroundImageFix" result="effect1_dropShadow_74_1995"/>
<feBlend mode="normal" in="SourceGraphic" in2="effect1_dropShadow_74_1995" result="shape"/>
<feGaussianBlur stdDeviation="1" result="effect2_foregroundBlur_74_1995"/>
</filter>
<filter id="filter5_df_74_1995" x="631" y="183" width="51" height="51" filterUnits="userSpaceOnUse" color-interpolation-filters="sRGB">
<feFlood flood-opacity="0" result="BackgroundImageFix"/>
<feColorMatrix in="SourceAlpha" type="matrix" values="0 0 0 0 0 0 0 0 0 0 0 0 0 0 0 0 0 0 127 0" result="hardAlpha"/>
<feOffset/>
<feGaussianBlur stdDeviation="12"/>
<feComposite in2="hardAlpha" operator="out"/>
<feColorMatrix type="matrix" values="0 0 0 0 1 0 0 0 0 1 0 0 0 0 1 0 0 0 0.6 0"/>
<feBlend mode="normal" in2="BackgroundImageFix" result="effect1_dropShadow_74_1995"/>
<feBlend mode="normal" in="SourceGraphic" in2="effect1_dropShadow_74_1995" result="shape"/>
<feGaussianBlur stdDeviation="1" result="effect2_foregroundBlur_74_1995"/>
</filter>
<filter id="filter6_df_74_1995" x="781" y="159" width="51" height="51" filterUnits="userSpaceOnUse" color-interpolation-filters="sRGB">
<feFlood flood-opacity="0" result="BackgroundImageFix"/>
<feColorMatrix in="SourceAlpha" type="matrix" values="0 0 0 0 0 0 0 0 0 0 0 0 0 0 0 0 0 0 127 0" result="hardAlpha"/>
<feOffset/>
<feGaussianBlur stdDeviation="12"/>
<feComposite in2="hardAlpha" operator="out"/>
<feColorMatrix type="matrix" values="0 0 0 0 1 0 0 0 0 1 0 0 0 0 1 0 0 0 0.6 0"/>
<feBlend mode="normal" in2="BackgroundImageFix" result="effect1_dropShadow_74_1995"/>
<feBlend mode="normal" in="SourceGraphic" in2="effect1_dropShadow_74_1995" result="shape"/>
<feGaussianBlur stdDeviation="1" result="effect2_foregroundBlur_74_1995"/>
</filter>
<filter id="filter7_df_74_1995" x="513" y="161" width="51" height="51" filterUnits="userSpaceOnUse" color-interpolation-filters="sRGB">
<feFlood flood-opacity="0" result="BackgroundImageFix"/>
<feColorMatrix in="SourceAlpha" type="matrix" values="0 0 0 0 0 0 0 0 0 0 0 0 0 0 0 0 0 0 127 0" result="hardAlpha"/>
<feOffset/>
<feGaussianBlur stdDeviation="12"/>
<feComposite in2="hardAlpha" operator="out"/>
<feColorMatrix type="matrix" values="0 0 0 0 1 0 0 0 0 1 0 0 0 0 1 0 0 0 0.6 0"/>
<feBlend mode="normal" in2="BackgroundImageFix" result="effect1_dropShadow_74_1995"/>
<feBlend mode="normal" in="SourceGraphic" in2="effect1_dropShadow_74_1995" result="shape"/>
<feGaussianBlur stdDeviation="1" result="effect2_foregroundBlur_74_1995"/>
</filter>
<filter id="filter8_df_74_1995" x="637" y="235" width="51" height="51" filterUnits="userSpaceOnUse" color-interpolation-filters="sRGB">
<feFlood flood-opacity="0" result="BackgroundImageFix"/>
<feColorMatrix in="SourceAlpha" type="matrix" values="0 0 0 0 0 0 0 0 0 0 0 0 0 0 0 0 0 0 127 0" result="hardAlpha"/>
<feOffset/>
<feGaussianBlur stdDeviation="12"/>
<feComposite in2="hardAlpha" operator="out"/>
<feColorMatrix type="matrix" values="0 0 0 0 1 0 0 0 0 1 0 0 0 0 1 0 0 0 0.6 0"/>
<feBlend mode="normal" in2="BackgroundImageFix" result="effect1_dropShadow_74_1995"/>
<feBlend mode="normal" in="SourceGraphic" in2="effect1_dropShadow_74_1995" result="shape"/>
<feGaussianBlur stdDeviation="1" result="effect2_foregroundBlur_74_1995"/>
</filter>
<filter id="filter9_df_74_1995" x="638" y="286" width="51" height="51" filterUnits="userSpaceOnUse" color-interpolation-filters="sRGB">
<feFlood flood-opacity="0" result="BackgroundImageFix"/>
<feColorMatrix in="SourceAlpha" type="matrix" values="0 0 0 0 0 0 0 0 0 0 0 0 0 0 0 0 0 0 127 0" result="hardAlpha"/>
<feOffset/>
<feGaussianBlur stdDeviation="12"/>
<feComposite in2="hardAlpha" operator="out"/>
<feColorMatrix type="matrix" values="0 0 0 0 1 0 0 0 0 1 0 0 0 0 1 0 0 0 0.6 0"/>
<feBlend mode="normal" in2="BackgroundImageFix" result="effect1_dropShadow_74_1995"/>
<feBlend mode="normal" in="SourceGraphic" in2="effect1_dropShadow_74_1995" result="shape"/>
<feGaussianBlur stdDeviation="1" result="effect2_foregroundBlur_74_1995"/>
</filter>
<filter id="filter10_df_74_1995" x="897" y="283" width="51" height="51" filterUnits="userSpaceOnUse" color-interpolation-filters="sRGB">
<feFlood flood-opacity="0" result="BackgroundImageFix"/>
<feColorMatrix in="SourceAlpha" type="matrix" values="0 0 0 0 0 0 0 0 0 0 0 0 0 0 0 0 0 0 127 0" result="hardAlpha"/>
<feOffset/>
<feGaussianBlur stdDeviation="12"/>
<feComposite in2="hardAlpha" operator="out"/>
<feColorMatrix type="matrix" values="0 0 0 0 1 0 0 0 0 1 0 0 0 0 1 0 0 0 0.6 0"/>
<feBlend mode="normal" in2="BackgroundImageFix" result="effect1_dropShadow_74_1995"/>
<feBlend mode="normal" in="SourceGraphic" in2="effect1_dropShadow_74_1995" result="shape"/>
<feGaussianBlur stdDeviation="1" result="effect2_foregroundBlur_74_1995"/>
</filter>
<filter id="filter11_df_74_1995" x="397" y="287" width="51" height="51" filterUnits="userSpaceOnUse" color-interpolation-filters="sRGB">
<feFlood flood-opacity="0" result="BackgroundImageFix"/>
<feColorMatrix in="SourceAlpha" type="matrix" values="0 0 0 0 0 0 0 0 0 0 0 0 0 0 0 0 0 0 127 0" result="hardAlpha"/>
<feOffset/>
<feGaussianBlur stdDeviation="12"/>
<feComposite in2="hardAlpha" operator="out"/>
<feColorMatrix type="matrix" values="0 0 0 0 1 0 0 0 0 1 0 0 0 0 1 0 0 0 0.6 0"/>
<feBlend mode="normal" in2="BackgroundImageFix" result="effect1_dropShadow_74_1995"/>
<feBlend mode="normal" in="SourceGraphic" in2="effect1_dropShadow_74_1995" result="shape"/>
<feGaussianBlur stdDeviation="1" result="effect2_foregroundBlur_74_1995"/>
</filter>
<filter id="filter12_df_74_1995" x="554" y="267" width="51" height="51" filterUnits="userSpaceOnUse" color-interpolation-filters="sRGB">
<feFlood flood-opacity="0" result="BackgroundImageFix"/>
<feColorMatrix in="SourceAlpha" type="matrix" values="0 0 0 0 0 0 0 0 0 0 0 0 0 0 0 0 0 0 127 0" result="hardAlpha"/>
<feOffset/>
<feGaussianBlur stdDeviation="12"/>
<feComposite in2="hardAlpha" operator="out"/>
<feColorMatrix type="matrix" values="0 0 0 0 1 0 0 0 0 1 0 0 0 0 1 0 0 0 0.6 0"/>
<feBlend mode="normal" in2="BackgroundImageFix" result="effect1_dropShadow_74_1995"/>
<feBlend mode="normal" in="SourceGraphic" in2="effect1_dropShadow_74_1995" result="shape"/>
<feGaussianBlur stdDeviation="1" result="effect2_foregroundBlur_74_1995"/>
</filter>
<filter id="filter13_df_74_1995" x="929" y="221" width="51" height="51" filterUnits="userSpaceOnUse" color-interpolation-filters="sRGB">
<feFlood flood-opacity="0" result="BackgroundImageFix"/>
<feColorMatrix in="SourceAlpha" type="matrix" values="0 0 0 0 0 0 0 0 0 0 0 0 0 0 0 0 0 0 127 0" result="hardAlpha"/>
<feOffset/>
<feGaussianBlur stdDeviation="12"/>
<feComposite in2="hardAlpha" operator="out"/>
<feColorMatrix type="matrix" values="0 0 0 0 1 0 0 0 0 1 0 0 0 0 1 0 0 0 0.6 0"/>
<feBlend mode="normal" in2="BackgroundImageFix" result="effect1_dropShadow_74_1995"/>
<feBlend mode="normal" in="SourceGraphic" in2="effect1_dropShadow_74_1995" result="shape"/>
<feGaussianBlur stdDeviation="1" result="effect2_foregroundBlur_74_1995"/>
</filter>
<filter id="filter14_df_74_1995" x="827" y="213" width="51" height="51" filterUnits="userSpaceOnUse" color-interpolation-filters="sRGB">
<feFlood flood-opacity="0" result="BackgroundImageFix"/>
<feColorMatrix in="SourceAlpha" type="matrix" values="0 0 0 0 0 0 0 0 0 0 0 0 0 0 0 0 0 0 127 0" result="hardAlpha"/>
<feOffset/>
<feGaussianBlur stdDeviation="12"/>
<feComposite in2="hardAlpha" operator="out"/>
<feColorMatrix type="matrix" values="0 0 0 0 1 0 0 0 0 1 0 0 0 0 1 0 0 0 0.6 0"/>
<feBlend mode="normal" in2="BackgroundImageFix" result="effect1_dropShadow_74_1995"/>
<feBlend mode="normal" in="SourceGraphic" in2="effect1_dropShadow_74_1995" result="shape"/>
<feGaussianBlur stdDeviation="1" result="effect2_foregroundBlur_74_1995"/>
</filter>
<filter id="filter15_df_74_1995" x="781" y="275" width="51" height="51" filterUnits="userSpaceOnUse" color-interpolation-filters="sRGB">
<feFlood flood-opacity="0" result="BackgroundImageFix"/>
<feColorMatrix in="SourceAlpha" type="matrix" values="0 0 0 0 0 0 0 0 0 0 0 0 0 0 0 0 0 0 127 0" result="hardAlpha"/>
<feOffset/>
<feGaussianBlur stdDeviation="12"/>
<feComposite in2="hardAlpha" operator="out"/>
<feColorMatrix type="matrix" values="0 0 0 0 1 0 0 0 0 1 0 0 0 0 1 0 0 0 0.6 0"/>
<feBlend mode="normal" in2="BackgroundImageFix" result="effect1_dropShadow_74_1995"/>
<feBlend mode="normal" in="SourceGraphic" in2="effect1_dropShadow_74_1995" result="shape"/>
<feGaussianBlur stdDeviation="1" result="effect2_foregroundBlur_74_1995"/>
</filter>
<filter id="filter16_df_74_1995" x="730" y="195" width="53" height="53" filterUnits="userSpaceOnUse" color-interpolation-filters="sRGB">
<feFlood flood-opacity="0" result="BackgroundImageFix"/>
<feColorMatrix in="SourceAlpha" type="matrix" values="0 0 0 0 0 0 0 0 0 0 0 0 0 0 0 0 0 0 127 0" result="hardAlpha"/>
<feOffset/>
<feGaussianBlur stdDeviation="12"/>
<feComposite in2="hardAlpha" operator="out"/>
<feColorMatrix type="matrix" values="0 0 0 0 1 0 0 0 0 1 0 0 0 0 1 0 0 0 0.6 0"/>
<feBlend mode="normal" in2="BackgroundImageFix" result="effect1_dropShadow_74_1995"/>
<feBlend mode="normal" in="SourceGraphic" in2="effect1_dropShadow_74_1995" result="shape"/>
<feGaussianBlur stdDeviation="1" result="effect2_foregroundBlur_74_1995"/>
</filter>
<filter id="filter17_df_74_1995" x="918" y="173" width="50" height="50" filterUnits="userSpaceOnUse" color-interpolation-filters="sRGB">
<feFlood flood-opacity="0" result="BackgroundImageFix"/>
<feColorMatrix in="SourceAlpha" type="matrix" values="0 0 0 0 0 0 0 0 0 0 0 0 0 0 0 0 0 0 127 0" result="hardAlpha"/>
<feOffset/>
<feGaussianBlur stdDeviation="12"/>
<feComposite in2="hardAlpha" operator="out"/>
<feColorMatrix type="matrix" values="0 0 0 0 1 0 0 0 0 1 0 0 0 0 1 0 0 0 0.6 0"/>
<feBlend mode="normal" in2="BackgroundImageFix" result="effect1_dropShadow_74_1995"/>
<feBlend mode="normal" in="SourceGraphic" in2="effect1_dropShadow_74_1995" result="shape"/>
<feGaussianBlur stdDeviation="1" result="effect2_foregroundBlur_74_1995"/>
</filter>
<linearGradient id="paint0_linear_74_1995" x1="721.022" y1="-49.5938" x2="721.789" y2="252.299" gradientUnits="userSpaceOnUse">
<stop stop-color="#A158FF"/>
<stop offset="0.9999" stop-color="#4E4FFF" stop-opacity="0.0104167"/>
<stop offset="1" stop-color="#81E1FA" stop-opacity="0"/>
</linearGradient>
<clipPath id="clip0_74_1995">
<rect width="1440" height="332.15" fill="white"/>
</clipPath>
</defs>
</svg>
