<svg width="52" height="52" viewBox="0 0 52 52" fill="none" xmlns="http://www.w3.org/2000/svg">
<path d="M25.785 0.5C39.7493 0.5 51.07 11.8207 51.07 25.785C51.07 39.7493 39.7493 51.07 25.785 51.07C11.8207 51.07 0.5 39.7493 0.5 25.785C0.5 11.8207 11.8207 0.5 25.785 0.5Z" fill="#0052FF"/>
<path d="M26.2927 34.1672C21.3783 34.1672 17.4073 30.1852 17.4073 25.2818C17.4073 20.3783 21.3893 16.3964 26.2927 16.3964C30.6915 16.3964 34.3444 19.5995 35.0465 23.8009H43.9977C43.2408 14.6741 35.6059 7.5 26.2818 7.5C16.4639 7.5 8.5 15.4639 8.5 25.2818C8.5 35.0996 16.4639 43.0635 26.2818 43.0635C35.6059 43.0635 43.2408 35.8894 43.9977 26.7627H35.0355C34.3335 30.964 30.6915 34.1672 26.2927 34.1672Z" fill="white"/>
</svg>
