<svg width="60" height="60" viewBox="0 0 60 60" fill="none" xmlns="http://www.w3.org/2000/svg">
<path d="M51.6201 6.68555L32.8818 20.6027L36.347 12.3918L51.6201 6.68555Z" fill="#E2761B" stroke="#E2761B" stroke-linecap="round" stroke-linejoin="round"/>
<path d="M8.36119 6.68555L26.9488 20.7345L23.6531 12.3918L8.36119 6.68555ZM44.8772 38.9454L39.8866 46.5914L50.5646 49.5292L53.6343 39.1149L44.8772 38.9454ZM6.38379 39.1149L9.43464 49.5292L20.1126 46.5914L15.122 38.9454L6.38379 39.1149Z" fill="#E4761B" stroke="#E4761B" stroke-linecap="round" stroke-linejoin="round"/>
<path d="M19.5107 26.0263L16.5352 30.5273L27.1378 30.9981L26.7611 19.6045L19.5107 26.0263ZM40.4711 26.0263L33.1265 19.4727L32.8817 30.9981L43.4655 30.5273L40.4711 26.0263ZM20.1133 46.5913L26.4787 43.484L20.9796 39.1902L20.1133 46.5913ZM33.5031 43.484L39.8873 46.5913L39.0022 39.1902L33.5031 43.484Z" fill="#E4761B" stroke="#E4761B" stroke-linecap="round" stroke-linejoin="round"/>
<path d="M39.8873 46.5917L33.5031 43.4844L34.0116 47.6463L33.9551 49.3977L39.8873 46.5917ZM20.1133 46.5917L26.0455 49.3977L26.0078 47.6463L26.4786 43.4844L20.1133 46.5917Z" fill="#D7C1B3" stroke="#D7C1B3" stroke-linecap="round" stroke-linejoin="round"/>
<path d="M26.1398 36.4409L20.8291 34.8778L24.5767 33.1641L26.1398 36.4409ZM33.8423 36.4409L35.4054 33.1641L39.1719 34.8778L33.8423 36.4409Z" fill="#233447" stroke="#233447" stroke-linecap="round" stroke-linejoin="round"/>
<path d="M20.1127 46.5914L21.0166 38.9454L15.1221 39.1149L20.1127 46.5914ZM38.9827 38.9454L39.8867 46.5914L44.8772 39.1149L38.9827 38.9454ZM43.4648 30.5273L32.881 30.9982L33.8603 36.4407L35.4234 33.1639L39.1899 34.8776L43.4648 30.5273ZM20.8283 34.8776L24.5948 33.1639L26.139 36.4407L27.1371 30.9982L16.5345 30.5273L20.8283 34.8776Z" fill="#CD6116" stroke="#CD6116" stroke-linecap="round" stroke-linejoin="round"/>
<path d="M16.5352 30.5273L20.9796 39.1902L20.8289 34.8776L16.5352 30.5273ZM39.1905 34.8776L39.0022 39.1902L43.4655 30.5273L39.1905 34.8776ZM27.1378 30.9982L26.1397 36.4407L27.3826 42.8626L27.6651 34.4068L27.1378 30.9982ZM32.8817 30.9982L32.3732 34.388L32.5992 42.8626L33.861 36.4407L32.8817 30.9982Z" fill="#E4751F" stroke="#E4751F" stroke-linecap="round" stroke-linejoin="round"/>
<path d="M33.8611 36.441L32.5993 42.8629L33.5033 43.4843L39.0024 39.1905L39.1907 34.8779L33.8611 36.441ZM20.8291 34.8779L20.9798 39.1905L26.4788 43.4843L27.3828 42.8629L26.1398 36.441L20.8291 34.8779Z" fill="#F6851B" stroke="#F6851B" stroke-linecap="round" stroke-linejoin="round"/>
<path d="M33.9551 49.3978L34.0116 47.6464L33.5408 47.2321H26.441L26.0078 47.6464L26.0455 49.3978L20.1133 46.5918L22.1848 48.2867L26.3845 51.2057H33.5973L37.8157 48.2867L39.8873 46.5918L33.9551 49.3978Z" fill="#C0AD9E" stroke="#C0AD9E" stroke-linecap="round" stroke-linejoin="round"/>
<path d="M33.5031 43.4838L32.5991 42.8623H27.3826L26.4786 43.4838L26.0078 47.6457L26.441 47.2314H33.5408L34.0116 47.6457L33.5031 43.4838Z" fill="#161616" stroke="#161616" stroke-linecap="round" stroke-linejoin="round"/>
<path d="M52.4101 21.5066L54.0109 13.823L51.6192 6.68555L33.5024 20.1319L40.4704 26.0264L50.3197 28.9078L52.5043 26.3654L51.5627 25.6874L53.0693 24.3127L51.9017 23.4087L53.4082 22.2599L52.4101 21.5066ZM5.98828 13.823L7.58903 21.5066L6.57209 22.2599L8.07868 23.4087L6.9299 24.3127L8.43649 25.6874L7.49487 26.3654L9.6606 28.9078L19.5099 26.0264L26.4779 20.1319L8.36116 6.68555L5.98828 13.823Z" fill="#763D16" stroke="#763D16" stroke-linecap="round" stroke-linejoin="round"/>
<path d="M50.3198 28.9076L40.4704 26.0263L43.4648 30.5272L39.0015 39.1901L44.8772 39.1148H53.6343L50.3198 28.9076ZM19.51 26.0263L9.66062 28.9076L6.38379 39.1148H15.122L20.9789 39.1901L16.5344 30.5272L19.51 26.0263ZM32.881 30.998L33.5024 20.1317L36.365 12.3916H23.6531L26.478 20.1317L27.1371 30.998L27.3631 34.4255L27.3819 42.8624H32.5985L32.6361 34.4255L32.881 30.998Z" fill="#F6851B" stroke="#F6851B" stroke-linecap="round" stroke-linejoin="round"/>
</svg>
