<svg width="69" height="43" viewBox="0 0 69 43" fill="none" xmlns="http://www.w3.org/2000/svg">
<path d="M14.4752 8.20667C25.6472 -2.73555 43.7664 -2.73555 54.9385 8.20667L56.282 9.51478C56.8476 10.0628 56.8476 10.9466 56.282 11.4946L51.6859 16.0023C51.403 16.2675 50.9611 16.2675 50.6783 16.0023L48.8222 14.1816C41.0265 6.545 28.3872 6.545 20.5915 14.1816L18.6117 16.1261C18.3289 16.3912 17.8869 16.3912 17.6041 16.1261L12.9903 11.6361C12.4246 11.0881 12.4246 10.2042 12.9903 9.6562L14.4752 8.20667ZM64.4489 17.5226L68.55 21.5353C69.1157 22.0833 69.1157 22.9672 68.55 23.5152L50.0772 41.599C49.5116 42.147 48.61 42.147 48.062 41.599L34.9632 28.7653C34.8218 28.6239 34.5919 28.6239 34.4505 28.7653L21.3517 41.599C20.786 42.147 19.8845 42.147 19.3365 41.599L0.863708 23.5152C0.298035 22.9672 0.298035 22.0833 0.863708 21.5353L4.96484 17.5226C5.53051 16.9746 6.43205 16.9746 6.98004 17.5226L20.0789 30.3563C20.2203 30.4977 20.4501 30.4977 20.5915 30.3563L33.6904 17.5226C34.2561 16.9746 35.1576 16.9746 35.7056 17.5226L48.8045 30.3563C48.9459 30.4977 49.1757 30.4977 49.3171 30.3563L62.416 17.5226C62.9817 16.9746 63.8832 16.9746 64.4489 17.5226Z" fill="#3B99FC"/>
</svg>
